<?xml version="1.0" encoding="UTF-8"?>
<!DOCTYPE svg PUBLIC "-//W3C//DTD SVG 1.1//EN" "http://www.w3.org/Graphics/SVG/1.1/DTD/svg11.dtd">
<!-- Creator: CorelDRAW 2019 (64-Bit) -->
<svg xmlns="http://www.w3.org/2000/svg" xml:space="preserve" width="157.113mm" height="144.286mm" version="1.1" style="shape-rendering:geometricPrecision; text-rendering:geometricPrecision; image-rendering:optimizeQuality; fill-rule:evenodd; clip-rule:evenodd"
viewBox="0 0 8483.17 7790.57"
 xmlns:xlink="http://www.w3.org/1999/xlink"
 xmlns:xodm="http://www.corel.com/coreldraw/odm/2003">
 <defs>
  <style type="text/css">
   <![CDATA[
    .str0 {stroke:#C9C9C9;stroke-width:4.11;stroke-miterlimit:2.61313}
    .fil2 {fill:none}
    .fil1 {fill:#C9C9C9}
    .fil0 {fill:#C9C9C9;fill-rule:nonzero}
   ]]>
  </style>
    <clipPath id="id0">
     <path d="M2295.58 3787.12l143.47 -246.25 143.47 -246.24 286.95 0 286.95 0 143.47 246.24 143.47 246.25 -143.47 246.25 -143.47 246.24 -286.95 0 -286.95 0 -143.47 -246.24 -143.47 -246.25z"/>
    </clipPath>
    <clipPath id="id1">
     <path d="M2295.58 3787.12l143.47 -246.25 143.47 -246.24 286.95 0 286.95 0 143.47 246.24 143.47 246.25 -143.47 246.25 -143.47 246.24 -286.95 0 -286.95 0 -143.47 -246.24 -143.47 -246.25z"/>
    </clipPath>
 </defs>
 <g id="Layer_x0020_1">
  <metadata id="CorelCorpID_0Corel-Layer"/>
  <g id="_1625312439104">
   <g>
    <path class="fil0" d="M8468.99 4508.89l11.02 18.91 -5.86 33.39 -11.02 -18.91 0 0 5.86 -33.39zm-143.47 -246.25l143.47 246.25 -5.86 33.39 -143.47 -246.25 0 -33.39 5.86 0zm-5.86 33.39l-9.73 -16.69 9.73 -16.69 0 33.39zm149.34 -246.25l-143.47 246.25 -5.86 -33.39 143.47 -246.25 0 0 5.86 33.39zm11.02 -18.91l-11.02 18.91 -5.86 -33.39 11.02 -18.91 5.86 33.39z"/>
   </g>
   <g>
    <path class="fil0" d="M8474.39 3524.99l5.62 9.65 -5.87 33.39 -5.62 -9.65 5.87 -33.39 0.01 0zm-143.48 -246.25l143.47 246.25 -5.86 33.39 -143.47 -246.25 0 -33.39 5.86 0zm-5.86 33.39l-9.73 -16.69 9.73 -16.69 0 33.39zm149.34 -246.25l-143.47 246.25 -5.86 -33.39 143.47 -246.25 5.87 33.39 -0.01 0zm5.63 -9.65l-5.62 9.65 -5.87 -33.39 5.62 -9.65 5.87 33.39z"/>
   </g>
   <g>
    <path class="fil0" d="M8470.78 2536.09l9.22 15.83 -5.86 33.39 -9.22 -15.83 0 0 5.86 -33.39zm-143.47 -246.25l143.47 246.25 -5.86 33.39 -143.47 -246.25 0 -33.39 5.86 0zm-5.86 33.39l-9.73 -16.69 9.73 -16.69 0 33.39zm149.34 -246.25l-143.47 246.25 -5.86 -33.39 143.47 -246.25 0 0 5.86 33.39zm9.22 -15.83l-9.22 15.83 -5.86 -33.39 9.22 -15.83 5.86 33.39z"/>
   </g>
   <g>
    <path class="fil0" d="M8468.99 1545.01l11.02 18.91 -5.86 33.39 -11.02 -18.91 0 0 5.86 -33.39zm-143.47 -246.25l143.47 246.25 -5.86 33.39 -143.47 -246.25 0 -33.39 5.86 0zm-5.86 33.39l-9.73 -16.69 9.73 -16.69 0 33.39zm149.34 -246.25l-143.47 246.25 -5.86 -33.39 143.47 -246.25 0 0 5.86 33.39zm11.02 -18.91l-11.02 18.91 -5.86 -33.39 11.02 -18.91 5.86 33.39z"/>
   </g>
   <g>
    <path class="fil0" d="M8447.28 548.29l35.13 57.42 -5.65 33.76 -35.13 -57.42 -0.11 -0.18 5.76 -33.57zm-5.65 33.76l-0.11 -0.18 0.09 0.15 0.02 0.04zm-137.72 -279.82l143.47 246.25 -5.86 33.39 -143.47 -246.25 0 -33.39 5.86 0zm-5.86 33.39l-9.73 -16.69 9.73 -16.69 0 33.39zm149.34 -246.25l-143.47 246.25 -5.86 -33.39 143.47 -246.25 0 0 5.86 33.39zm32.62 -55.98l-32.62 55.98 -5.86 -33.39 32.62 -55.98 5.86 33.39z"/>
   </g>
   <g>
    <path class="fil0" d="M8468.49 3030.9l5.65 -9.7 5.86 33.39 -5.65 9.7 0 0 -5.86 -33.39zm-143.47 246.24l143.47 -246.24 5.86 33.39 -143.47 246.24 -2.93 2.35 -2.93 -35.74zm5.86 33.39l-1.37 2.35 -1.56 0 2.93 -2.35zm-289.88 -35.74l286.95 0 0 38.1 -286.95 0 0 0 0 -38.1zm-286.95 0l286.95 0 0 38.1 -286.95 0 -2.93 -2.35 2.93 -35.74zm0 38.1l-1.56 0 -1.37 -2.35 2.93 2.35zm-140.54 -281.98l143.47 246.24 -5.86 33.39 -143.47 -246.24 0 0 5.86 -33.39zm-143.47 -246.25l143.47 246.25 -5.86 33.39 -143.47 -246.25 0 -33.39 5.86 0zm-5.86 33.39l-9.73 -16.69 9.73 -16.69 0 33.39zm149.34 -246.25l-143.47 246.25 -5.86 -33.39 143.47 -246.25 0 0 5.86 33.39zm143.47 -246.24l-143.47 246.24 -5.86 -33.39 143.47 -246.24 2.93 -2.35 2.93 35.74zm-5.86 -33.39l1.37 -2.35 1.56 0 -2.93 2.35zm289.88 35.74l-286.95 0 0 -38.1 286.95 0 0 0 0 38.1zm286.95 0l-286.95 0 0 -38.1 286.95 0 2.93 2.35 -2.93 35.74zm0 -38.1l1.56 0 1.37 2.35 -2.93 -2.35zm146.19 291.69l-149.13 -255.94 5.86 -33.39 149.13 255.94 -5.86 33.39z"/>
   </g>
   <g>
    <path class="fil0" d="M8324.96 2289.59l144.52 -253.82 5.97 33.22 -144.52 253.82 -2.99 2.44 -2.99 -35.66zm5.97 33.22l-1.39 2.44 -1.6 0 2.99 -2.44zm-289.93 -35.66l286.95 0 0 38.1 -286.95 0 0 0 0 -38.1zm-286.95 0l286.95 0 0 38.1 -286.95 0 -2.93 -2.35 2.93 -35.74zm0 38.1l-1.56 0 -1.37 -2.35 2.93 2.35zm-140.54 -281.98l143.47 246.24 -5.86 33.39 -143.47 -246.24 0 0 5.86 -33.39zm-143.47 -246.25l143.47 246.25 -5.86 33.39 -143.47 -246.25 0 -33.39 5.86 0zm-5.86 33.39l-9.73 -16.69 9.73 -16.69 0 33.39zm149.34 -246.25l-143.47 246.25 -5.86 -33.39 143.47 -246.25 0 0 5.86 33.39zm143.47 -246.24l-143.47 246.24 -5.86 -33.39 143.47 -246.24 2.93 -2.35 2.93 35.74zm-5.86 -33.39l1.37 -2.35 1.56 0 -2.93 2.35zm289.88 35.74l-286.95 0 0 -38.1 286.95 0 0 0 0 38.1zm286.95 0l-286.95 0 0 -38.1 286.95 0 2.93 2.35 -2.93 35.74zm0 -38.1l1.56 0 1.37 2.35 -2.93 -2.35zm146.19 291.69l-149.13 -255.94 5.86 -33.39 149.13 255.94 -5.86 33.39z"/>
   </g>
   <g>
    <path class="fil0" d="M8441.35 1059.7l28.22 -51.65 6.16 32.87 -28.22 51.65 -0.15 0.26 -6.01 -33.13zm6.16 32.87l-0.08 0.15 -0.06 0.11 0.15 -0.26zm-149.48 213.11l143.47 -246.24 5.86 33.39 -143.47 246.24 -2.93 2.35 -2.93 -35.74zm5.86 33.39l-1.37 2.35 -1.56 0 2.93 -2.35zm-289.88 -35.74l286.95 0 0 38.1 -286.95 0 0 0 0 -38.1zm-286.95 0l286.95 0 0 38.1 -286.95 0 -2.93 -2.35 2.93 -35.74zm0 38.1l-1.56 0 -1.37 -2.35 2.93 2.35zm-140.54 -281.98l143.47 246.24 -5.86 33.39 -143.47 -246.24 0 0 5.86 -33.39zm-143.47 -246.25l143.47 246.25 -5.86 33.39 -143.47 -246.25 0 -33.39 5.86 0zm-5.86 33.39l-9.73 -16.69 9.73 -16.69 0 33.39zm149.34 -246.25l-143.48 246.25 -5.86 -33.39 143.48 -246.25 5.86 33.39zm143.47 -246.24l-143.47 246.24 -5.86 -33.39 143.47 -246.24 2.93 -2.35 2.93 35.74zm-5.86 -33.39l1.37 -2.35 1.56 0 -2.93 2.35zm289.88 35.74l-286.95 0 0 -38.1 286.95 0 0 0 0 38.1zm286.95 0l-286.95 0 0 -38.1 286.95 0 2.93 2.35 -2.93 35.74zm0 -38.1l1.56 0 1.37 2.35 -2.93 -2.35zm140.54 281.98l-143.47 -246.24 5.86 -33.39 143.47 246.24 0 0 -5.86 33.39zm32.65 56.04l-32.65 -56.04 5.86 -33.39 32.65 56.04 -5.86 33.39z"/>
   </g>
   <g>
    <path class="fil0" d="M8452.18 7016.54l7.2 -12.36 5.86 33.39 -7.2 12.36 -5.86 -33.39zm-136.09 233.58l136.09 -233.58 5.86 33.39 -136.09 233.58 -2.93 2.35 -2.93 -35.74zm5.86 33.39l-1.37 2.35 -1.56 0 2.93 -2.35zm-289.88 -35.74l286.95 0 0 38.1 -286.95 0 0 0 0 -38.1zm-286.95 0l286.95 0 0 38.1 -286.95 0 -2.93 -2.35 2.93 -35.74zm0 38.1l-1.56 0 -1.37 -2.35 2.93 2.35zm-140.54 -281.98l143.47 246.24 -5.86 33.39 -143.47 -246.24 0 0 5.86 -33.39zm-143.47 -246.25l143.47 246.25 -5.86 33.39 -143.47 -246.25 0 -33.39 5.86 0zm-5.86 33.39l-9.73 -16.69 9.73 -16.69 0 33.39zm149.34 -246.25l-143.47 246.25 -5.86 -33.39 143.47 -246.25 0 0 5.86 33.39zm143.47 -246.24l-143.47 246.24 -5.86 -33.39 143.47 -246.24 2.93 -2.35 2.93 35.74zm-5.86 -33.39l1.37 -2.35 1.56 0 -2.93 2.35zm289.88 35.74l-286.95 0 0 -38.1 286.95 0 0 0 0 38.1zm286.95 0l-286.95 0 0 -38.1 286.95 0 2.93 2.35 -2.93 35.74zm0 -38.1l1.56 0 1.37 2.35 -2.93 -2.35zm94.95 203.74l-97.88 -167.99 5.86 -33.39 97.88 167.99 0.01 0 -5.87 33.39zm6.68 11.47l-6.68 -11.47 5.87 -33.39 6.68 11.47 -5.87 33.39z"/>
   </g>
   <g>
    <path class="fil0" d="M278.03 6794.88l-131.56 2.42 -0.08 -38.1 131.56 -2.42 0.04 0 0.04 38.1zm-0.08 -38.1l0 0 0.04 0 -0.04 0zm286.98 38.1l-286.95 0 0 -38.1 286.95 0 2.93 2.35 -2.93 35.74zm0 -38.1l1.56 0 1.37 2.35 -2.93 -2.35zm140.54 281.98l-143.47 -246.24 5.86 -33.39 143.47 246.24 0 0 -5.86 33.39zm143.47 246.25l-143.47 -246.25 5.86 -33.39 143.47 246.25 0 33.39 -5.86 0zm5.86 -33.39l9.73 16.69 -9.73 16.69 0 -33.39zm-149.34 246.25l143.47 -246.25 5.86 33.39 -143.47 246.25 0 0 -5.86 -33.39zm-143.47 246.24l143.47 -246.24 5.86 33.39 -143.47 246.24 -2.93 2.35 -2.93 -35.74zm5.86 33.39l-1.37 2.35 -1.56 0 2.93 -2.35zm-289.88 -35.74l286.95 0 0 38.1 -286.95 0 0 0 0 -38.1zm-277.99 0l277.99 0 0 38.1 -277.99 0 0 -38.1z"/>
   </g>
   <g>
    <path class="fil0" d="M268.47 5812.33l-268.47 0 0 -38.1 268.47 0 0 0 0 38.1zm286.95 0l-286.95 0 0 -38.1 286.95 0 2.93 2.35 -2.93 35.74zm0 -38.1l1.56 0 1.37 2.35 -2.93 -2.35zm140.54 281.98l-143.47 -246.24 5.86 -33.39 143.47 246.24 0 0 -5.86 33.39zm143.47 246.25l-143.47 -246.25 5.86 -33.39 143.47 246.25 0 33.39 -5.86 0zm5.86 -33.39l9.73 16.69 -9.73 16.69 0 -33.39zm-149.34 246.25l143.47 -246.25 5.86 33.39 -143.47 246.25 0 0 -5.86 -33.39zm-143.47 246.24l143.47 -246.24 5.86 33.39 -143.47 246.24 -2.93 2.35 -2.93 -35.74zm5.86 33.39l-1.37 2.35 -1.56 0 2.93 -2.35zm-289.88 -35.74l286.95 0 0 38.1 -286.95 0 0 0 0 -38.1zm-90.93 0l90.93 0 0 38.1 -90.93 0 0 -38.1z"/>
   </g>
   <g>
    <path class="fil0" d="M6746.83 3077.85l-143.47 246.25 -5.86 -33.39 143.47 -246.25 0 0 5.86 33.39zm143.47 -246.24l-143.47 246.24 -5.86 -33.39 143.47 -246.24 2.93 -2.35 2.93 35.74zm-5.86 -33.39l1.37 -2.35 1.56 0 -2.93 2.35zm289.88 35.74l-286.95 0 0 -38.1 286.95 0 0 0 0 38.1zm286.95 0l-286.95 0 0 -38.1 286.95 0 2.93 2.35 -2.93 35.74zm0 -38.1l1.56 0 1.37 2.35 -2.93 -2.35zm140.54 281.98l-143.47 -246.24 5.86 -33.39 143.47 246.24 0 0 -5.86 33.39zm143.47 246.25l-143.47 -246.25 5.86 -33.39 143.47 246.25 0 33.39 -5.86 0zm5.86 -33.39l9.73 16.69 -9.73 16.69 0 -33.39zm-149.34 246.25l143.47 -246.25 5.86 33.39 -143.47 246.25 0 0 -5.86 -33.39zm-143.47 246.24l143.47 -246.24 5.86 33.39 -143.47 246.24 -2.93 2.35 -2.93 -35.74zm5.86 33.39l-1.37 2.35 -1.56 0 2.93 -2.35zm-289.88 -35.74l286.95 0 0 38.1 -286.95 0 0 0 0 -38.1zm-286.95 0l286.95 0 0 38.1 -286.95 0 -2.93 -2.35 2.93 -35.74zm0 38.1l-1.56 0 -1.37 -2.35 2.93 2.35zm-140.54 -281.98l143.47 246.24 -5.86 33.39 -143.47 -246.24 0 0 5.86 -33.39zm-143.47 -246.25l143.47 246.25 -5.86 33.39 -143.47 -246.25 0 -33.39 5.86 0zm-5.86 33.39l-9.73 -16.69 9.73 -16.69 0 33.39z"/>
   </g>
   <g>
    <path class="fil0" d="M6741.43 2084.8l-143.47 246.25 -5.86 -33.39 143.47 -246.25 0 0 5.86 33.39zm143.47 -246.24l-143.47 246.24 -5.86 -33.39 143.47 -246.24 2.93 -2.35 2.93 35.74zm-5.86 -33.39l1.37 -2.35 1.56 0 -2.93 2.35zm289.88 35.74l-286.95 0 0 -38.1 286.95 0 0 0 0 38.1zm286.95 0l-286.95 0 0 -38.1 286.95 0 2.93 2.35 -2.93 35.74zm0 -38.1l1.56 0 1.37 2.35 -2.93 -2.35zm140.54 281.98l-143.47 -246.24 5.86 -33.39 143.47 246.24 0 0 -5.86 33.39zm143.47 246.25l-143.47 -246.25 5.86 -33.39 143.47 246.25 0 33.39 -5.86 0zm5.86 -33.39l9.73 16.69 -9.73 16.69 0 -33.39zm-149.34 246.25l143.47 -246.25 5.86 33.39 -143.47 246.25 0 0 -5.86 -33.39zm-143.47 246.24l143.47 -246.24 5.86 33.39 -143.47 246.24 -2.93 2.35 -2.93 -35.74zm5.86 33.39l-1.37 2.35 -1.56 0 2.93 -2.35zm-289.88 -35.74l286.95 0 0 38.1 -286.95 0 0 0 0 -38.1zm-286.95 0l286.95 0 0 38.1 -286.95 0 -2.93 -2.35 2.93 -35.74zm0 38.1l-1.56 0 -1.37 -2.35 2.93 2.35zm-140.54 -281.98l143.47 246.24 -5.86 33.39 -143.47 -246.24 0 0 5.86 -33.39zm-143.47 -246.25l143.47 246.25 -5.86 33.39 -143.47 -246.25 0 -33.39 5.86 0zm-5.86 33.39l-9.73 -16.69 9.73 -16.69 0 33.39z"/>
   </g>
   <g>
    <path class="fil0" d="M6746.83 4049.79l-143.47 246.25 -5.86 -33.39 143.47 -246.25 0 0 5.86 33.39zm143.47 -246.24l-143.47 246.24 -5.86 -33.39 143.47 -246.24 2.93 -2.35 2.93 35.74zm-5.86 -33.39l1.37 -2.35 1.56 0 -2.93 2.35zm289.88 35.74l-286.95 0 0 -38.1 286.95 0 0 0 0 38.1zm286.95 0l-286.95 0 0 -38.1 286.95 0 2.93 2.35 -2.93 35.74zm0 -38.1l1.56 0 1.37 2.35 -2.93 -2.35zm140.54 281.98l-143.47 -246.24 5.86 -33.39 143.47 246.24 0 0 -5.86 33.39zm143.47 246.25l-143.47 -246.25 5.86 -33.39 143.47 246.25 0 33.39 -5.86 0zm5.86 -33.39l9.73 16.69 -9.73 16.69 0 -33.39zm-149.34 246.25l143.47 -246.25 5.86 33.39 -143.47 246.25 0 0 -5.86 -33.39zm-143.47 246.24l143.47 -246.24 5.86 33.39 -143.47 246.24 -2.93 2.35 -2.93 -35.74zm5.86 33.39l-1.37 2.35 -1.56 0 2.93 -2.35zm-289.88 -35.74l286.95 0 0 38.1 -286.95 0 0 0 0 -38.1zm-286.95 0l286.95 0 0 38.1 -286.95 0 -2.93 -2.35 2.93 -35.74zm0 38.1l-1.56 0 -1.37 -2.35 2.93 2.35zm-140.54 -281.98l143.47 246.24 -5.86 33.39 -143.47 -246.24 0 0 5.86 -33.39zm-143.47 -246.25l143.47 246.25 -5.86 33.39 -143.47 -246.25 0 -33.39 5.86 0zm-5.86 33.39l-9.73 -16.69 9.73 -16.69 0 33.39z"/>
   </g>
   <g>
    <path class="fil0" d="M5888.38 3577.24l-143.47 246.25 -5.86 -33.39 143.47 -246.25 0 0 5.86 33.39zm143.47 -246.24l-143.47 246.24 -5.86 -33.39 143.47 -246.24 2.93 -2.35 2.93 35.74zm-5.86 -33.39l1.37 -2.35 1.56 0 -2.93 2.35zm289.88 35.74l-286.95 0 0 -38.1 286.95 0 0 0 0 38.1zm286.95 0l-286.95 0 0 -38.1 286.95 0 2.93 2.35 -2.93 35.74zm0 -38.1l1.56 0 1.37 2.35 -2.93 -2.35zm140.54 281.98l-143.47 -246.24 5.86 -33.39 143.47 246.24 0 0 -5.86 33.39zm143.47 246.25l-143.47 -246.25 5.86 -33.39 143.47 246.25 0 33.39 -5.86 0zm5.86 -33.39l9.73 16.69 -9.73 16.69 0 -33.39zm-149.34 246.25l143.47 -246.25 5.86 33.39 -143.47 246.25 0 0 -5.86 -33.39zm-143.47 246.24l143.47 -246.24 5.86 33.39 -143.47 246.24 -2.93 2.35 -2.93 -35.74zm5.86 33.39l-1.37 2.35 -1.56 0 2.93 -2.35zm-289.88 -35.74l286.95 0 0 38.1 -286.95 0 0 0 0 -38.1zm-286.95 0l286.95 0 0 38.1 -286.95 0 -2.93 -2.35 2.93 -35.74zm0 38.1l-1.56 0 -1.37 -2.35 2.93 2.35zm-140.54 -281.98l143.47 246.24 -5.86 33.39 -143.47 -246.24 0 0 5.86 -33.39zm-143.47 -246.25l143.47 246.25 -5.86 33.39 -143.47 -246.25 0 -33.39 5.86 0zm-5.86 33.39l-9.73 -16.69 9.73 -16.69 0 33.39z"/>
   </g>
   <g>
    <path class="fil0" d="M5025.14 3075.24l-143.47 246.25 -5.86 -33.39 143.47 -246.25 0 0 5.86 33.39zm143.47 -246.24l-143.47 246.24 -5.86 -33.39 143.47 -246.24 2.93 -2.35 2.93 35.74zm-5.86 -33.39l1.37 -2.35 1.56 0 -2.93 2.35zm289.88 35.74l-286.95 0 0 -38.1 286.95 0 0 0 0 38.1zm286.95 0l-286.95 0 0 -38.1 286.95 0 2.93 2.35 -2.93 35.74zm0 -38.1l1.56 0 1.37 2.35 -2.93 -2.35zm140.54 281.98l-143.47 -246.24 5.86 -33.39 143.47 246.24 0 0 -5.86 33.39zm143.47 246.25l-143.47 -246.25 5.86 -33.39 143.47 246.25 0 33.39 -5.86 0zm5.86 -33.39l9.73 16.69 -9.73 16.69 0 -33.39zm-149.34 246.25l143.47 -246.25 5.86 33.39 -143.47 246.25 0 0 -5.86 -33.39zm-143.47 246.24l143.47 -246.24 5.86 33.39 -143.47 246.24 -2.93 2.35 -2.93 -35.74zm5.86 33.39l-1.37 2.35 -1.56 0 2.93 -2.35zm-289.88 -35.74l286.95 0 0 38.1 -286.95 0 0 0 0 -38.1zm-286.95 0l286.95 0 0 38.1 -286.95 0 -2.93 -2.35 2.93 -35.74zm0 38.1l-1.56 0 -1.37 -2.35 2.93 2.35zm-140.54 -281.98l143.47 246.24 -5.86 33.39 -143.47 -246.24 0 0 5.86 -33.39zm-143.47 -246.25l143.47 246.25 -5.86 33.39 -143.47 -246.25 0 -33.39 5.86 0zm-5.86 33.39l-9.73 -16.69 9.73 -16.69 0 33.39z"/>
   </g>
   <g>
    <path class="fil0" d="M5017.6 2091.11l-143.48 246.25 -5.86 -33.39 143.48 -246.25 5.86 33.39zm143.47 -246.24l-143.47 246.24 -5.86 -33.39 143.47 -246.24 2.93 -2.35 2.93 35.74zm-5.86 -33.39l1.37 -2.35 1.56 0 -2.93 2.35zm289.88 35.74l-286.95 0 0 -38.1 286.95 0 0 0 0 38.1zm286.95 0l-286.95 0 0 -38.1 286.95 0 2.93 2.35 -2.93 35.74zm0 -38.1l1.56 0 1.37 2.35 -2.93 -2.35zm140.54 281.98l-143.47 -246.24 5.86 -33.39 143.47 246.24 0 0 -5.86 33.39zm143.47 246.25l-143.47 -246.25 5.86 -33.39 143.47 246.25 0 33.39 -5.86 0zm5.86 -33.39l9.73 16.69 -9.73 16.69 0 -33.39zm-149.34 246.25l143.47 -246.25 5.86 33.39 -143.47 246.25 0 0 -5.86 -33.39zm-143.47 246.24l143.47 -246.24 5.86 33.39 -143.47 246.24 -2.93 2.35 -2.93 -35.74zm5.86 33.39l-1.37 2.35 -1.56 0 2.93 -2.35zm-289.88 -35.74l286.95 0 0 38.1 -286.95 0 0 0 0 -38.1zm-286.95 0l286.95 0 0 38.1 -286.95 0 -2.93 -2.35 2.93 -35.74zm0 38.1l-1.56 0 -1.37 -2.35 2.93 2.35zm-140.54 -281.98l143.47 246.24 -5.86 33.39 -143.47 -246.24 5.86 -33.39zm-143.48 -246.25l143.48 246.25 -5.86 33.39 -143.48 -246.25 0 -33.39 5.86 0zm-5.86 33.39l-9.73 -16.69 9.73 -16.69 0 33.39z"/>
   </g>
   <g>
    <path class="fil0" d="M5021.7 4049.79l-143.47 246.25 -5.86 -33.39 143.47 -246.25 0 0 5.86 33.39zm143.47 -246.24l-143.47 246.24 -5.86 -33.39 143.47 -246.24 2.93 -2.35 2.93 35.74zm-5.86 -33.39l1.37 -2.35 1.56 0 -2.93 2.35zm289.88 35.74l-286.95 0 0 -38.1 286.95 0 0 0 0 38.1zm286.95 0l-286.95 0 0 -38.1 286.95 0 2.93 2.35 -2.93 35.74zm0 -38.1l1.56 0 1.37 2.35 -2.93 -2.35zm140.54 281.98l-143.47 -246.24 5.86 -33.39 143.47 246.24 0 0 -5.86 33.39zm143.47 246.25l-143.47 -246.25 5.86 -33.39 143.47 246.25 0 33.39 -5.86 0zm5.86 -33.39l9.73 16.69 -9.73 16.69 0 -33.39zm-149.34 246.25l143.47 -246.25 5.86 33.39 -143.47 246.25 0 0 -5.86 -33.39zm-143.47 246.24l143.47 -246.24 5.86 33.39 -143.47 246.24 -2.93 2.35 -2.93 -35.74zm5.86 33.39l-1.37 2.35 -1.56 0 2.93 -2.35zm-289.88 -35.74l286.95 0 0 38.1 -286.95 0 0 0 0 -38.1zm-286.95 0l286.95 0 0 38.1 -286.95 0 -2.93 -2.35 2.93 -35.74zm0 38.1l-1.56 0 -1.37 -2.35 2.93 2.35zm-140.54 -281.98l143.47 246.24 -5.86 33.39 -143.47 -246.24 0 0 5.86 -33.39zm-143.47 -246.25l143.47 246.25 -5.86 33.39 -143.47 -246.25 0 -33.39 5.86 0zm-5.86 33.39l-9.73 -16.69 9.73 -16.69 0 33.39z"/>
   </g>
   <g>
    <path class="fil0" d="M4153.77 2580.95l-143.47 246.25 -5.86 -33.39 143.47 -246.25 0 0 5.86 33.39zm143.47 -246.24l-143.47 246.24 -5.86 -33.39 143.47 -246.24 2.93 -2.35 2.93 35.74zm-5.86 -33.39l1.37 -2.35 1.56 0 -2.93 2.35zm289.88 35.74l-286.95 0 0 -38.1 286.95 0 0 0 0 38.1zm286.95 0l-286.95 0 0 -38.1 286.95 0 2.93 2.35 -2.93 35.74zm0 -38.1l1.56 0 1.37 2.35 -2.93 -2.35zm140.54 281.98l-143.47 -246.24 5.86 -33.39 143.47 246.24 0 0 -5.86 33.39zm143.47 246.25l-143.47 -246.25 5.86 -33.39 143.47 246.25 0 33.39 -5.86 0zm5.86 -33.39l9.73 16.69 -9.73 16.69 0 -33.39zm-149.34 246.25l143.47 -246.25 5.86 33.39 -143.47 246.25 0 0 -5.86 -33.39zm-143.47 246.24l143.47 -246.24 5.86 33.39 -143.47 246.24 -2.93 2.35 -2.93 -35.74zm5.86 33.39l-1.37 2.35 -1.56 0 2.93 -2.35zm-289.88 -35.74l286.95 0 0 38.1 -286.95 0 0 0 0 -38.1zm-286.95 0l286.95 0 0 38.1 -286.95 0 -2.93 -2.35 2.93 -35.74zm0 38.1l-1.56 0 -1.37 -2.35 2.93 2.35zm-140.54 -281.98l143.47 246.24 -5.86 33.39 -143.47 -246.24 0 0 5.86 -33.39zm-143.47 -246.25l143.47 246.25 -5.86 33.39 -143.47 -246.25 0 -33.39 5.86 0zm-5.86 33.39l-9.73 -16.69 9.73 -16.69 0 33.39z"/>
   </g>
   <g>
    <path class="fil0" d="M2441.98 3568.37l-143.47 246.25 -5.86 -33.39 143.47 -246.25 0 0 5.86 33.39zm143.47 -246.24l-143.47 246.24 -5.86 -33.39 143.47 -246.24 2.93 -2.35 2.93 35.74zm-5.86 -33.39l1.37 -2.35 1.56 0 -2.93 2.35zm289.88 35.74l-286.95 0 0 -38.1 286.95 0 0 0 0 38.1zm286.95 0l-286.95 0 0 -38.1 286.95 0 2.93 2.35 -2.93 35.74zm0 -38.1l1.56 0 1.37 2.35 -2.93 -2.35zm140.54 281.98l-143.47 -246.24 5.86 -33.39 143.47 246.24 0 0 -5.86 33.39zm143.47 246.25l-143.47 -246.25 5.86 -33.39 143.47 246.25 0 33.39 -5.86 0zm5.86 -33.39l9.73 16.69 -9.73 16.69 0 -33.39zm-149.34 246.25l143.47 -246.25 5.86 33.39 -143.47 246.25 0 0 -5.86 -33.39zm-143.47 246.24l143.47 -246.24 5.86 33.39 -143.47 246.24 -2.93 2.35 -2.93 -35.74zm5.86 33.39l-1.37 2.35 -1.56 0 2.93 -2.35zm-289.88 -35.74l286.95 0 0 38.1 -286.95 0 0 0 0 -38.1zm-286.95 0l286.95 0 0 38.1 -286.95 0 -2.93 -2.35 2.93 -35.74zm0 38.1l-1.56 0 -1.37 -2.35 2.93 2.35zm-140.54 -281.98l143.47 246.24 -5.86 33.39 -143.47 -246.24 0 0 5.86 -33.39zm-143.47 -246.25l143.47 246.25 -5.86 33.39 -143.47 -246.25 0 -33.39 5.86 0zm-5.86 33.39l-9.73 -16.69 9.73 -16.69 0 33.39z"/>
   </g>
   <g>
    <path class="fil0" d="M3311.98 4060.59l-143.47 246.25 -5.86 -33.39 143.47 -246.25 0 0 5.86 33.39zm143.47 -246.24l-143.47 246.24 -5.86 -33.39 143.47 -246.24 2.93 -2.35 2.93 35.74zm-5.86 -33.39l1.37 -2.35 1.56 0 -2.93 2.35zm289.88 35.74l-286.95 0 0 -38.1 286.95 0 0 0 0 38.1zm286.95 0l-286.95 0 0 -38.1 286.95 0 2.93 2.35 -2.93 35.74zm0 -38.1l1.56 0 1.37 2.35 -2.93 -2.35zm140.54 281.98l-143.47 -246.24 5.86 -33.39 143.47 246.24 0 0 -5.86 33.39zm143.47 246.25l-143.47 -246.25 5.86 -33.39 143.47 246.25 0 33.39 -5.86 0zm5.86 -33.39l9.73 16.69 -9.73 16.69 0 -33.39zm-149.34 246.25l143.47 -246.25 5.86 33.39 -143.47 246.25 0 0 -5.86 -33.39zm-143.47 246.24l143.47 -246.24 5.86 33.39 -143.47 246.24 -2.93 2.35 -2.93 -35.74zm5.86 33.39l-1.37 2.35 -1.56 0 2.93 -2.35zm-289.88 -35.74l286.95 0 0 38.1 -286.95 0 0 0 0 -38.1zm-286.95 0l286.95 0 0 38.1 -286.95 0 -2.93 -2.35 2.93 -35.74zm0 38.1l-1.56 0 -1.37 -2.35 2.93 2.35zm-140.54 -281.98l143.47 246.24 -5.86 33.39 -143.47 -246.24 0 0 5.86 -33.39zm-143.47 -246.25l143.47 246.25 -5.86 33.39 -143.47 -246.25 0 -33.39 5.86 0zm-5.86 33.39l-9.73 -16.69 9.73 -16.69 0 33.39z"/>
   </g>
   <g>
    <path class="fil0" d="M1571.17 4055.19l-143.47 246.25 -5.86 -33.39 143.47 -246.25 0 0 5.86 33.39zm143.47 -246.24l-143.47 246.24 -5.86 -33.39 143.47 -246.24 2.93 -2.35 2.93 35.74zm-5.86 -33.39l1.37 -2.35 1.56 0 -2.93 2.35zm289.88 35.74l-286.95 0 0 -38.1 286.95 0 0 0 0 38.1zm286.95 0l-286.95 0 0 -38.1 286.95 0 2.93 2.35 -2.93 35.74zm0 -38.1l1.56 0 1.37 2.35 -2.93 -2.35zm140.54 281.98l-143.47 -246.24 5.86 -33.39 143.47 246.24 0 0 -5.86 33.39zm143.47 246.25l-143.47 -246.25 5.86 -33.39 143.47 246.25 0 33.39 -5.86 0zm5.86 -33.39l9.73 16.69 -9.73 16.69 0 -33.39zm-149.34 246.25l143.47 -246.25 5.86 33.39 -143.47 246.25 0 0 -5.86 -33.39zm-143.47 246.24l143.47 -246.24 5.86 33.39 -143.47 246.24 -2.93 2.35 -2.93 -35.74zm5.86 33.39l-1.37 2.35 -1.56 0 2.93 -2.35zm-289.88 -35.74l286.95 0 0 38.1 -286.95 0 0 0 0 -38.1zm-286.95 0l286.95 0 0 38.1 -286.95 0 -2.93 -2.35 2.93 -35.74zm0 38.1l-1.56 0 -1.37 -2.35 2.93 2.35zm-140.54 -281.98l143.47 246.24 -5.86 33.39 -143.47 -246.24 0 0 5.86 -33.39zm-143.47 -246.25l143.47 246.25 -5.86 33.39 -143.47 -246.25 0 -33.39 5.86 0zm-5.86 33.39l-9.73 -16.69 9.73 -16.69 0 33.39z"/>
   </g>
   <g>
    <path class="fil0" d="M2441.02 4560.95l-143.47 246.25 -5.86 -33.39 143.47 -246.25 0 0 5.86 33.39zm143.47 -246.24l-143.47 246.24 -5.86 -33.39 143.47 -246.24 2.93 -2.35 2.93 35.74zm-5.86 -33.39l1.37 -2.35 1.56 0 -2.93 2.35zm289.88 35.74l-286.95 0 0 -38.1 286.95 0 0 0 0 38.1zm286.95 0l-286.95 0 0 -38.1 286.95 0 2.93 2.35 -2.93 35.74zm0 -38.1l1.56 0 1.37 2.35 -2.93 -2.35zm140.54 281.98l-143.47 -246.24 5.86 -33.39 143.47 246.24 0 0 -5.86 33.39zm143.47 246.25l-143.47 -246.25 5.86 -33.39 143.47 246.25 0 33.39 -5.86 0zm5.86 -33.39l9.73 16.69 -9.73 16.69 0 -33.39zm-149.34 246.25l143.47 -246.25 5.86 33.39 -143.47 246.25 0 0 -5.86 -33.39zm-143.47 246.24l143.47 -246.24 5.86 33.39 -143.47 246.24 -2.93 2.35 -2.93 -35.74zm5.86 33.39l-1.37 2.35 -1.56 0 2.93 -2.35zm-289.88 -35.74l286.95 0 0 38.1 -286.95 0 0 0 0 -38.1zm-286.95 0l286.95 0 0 38.1 -286.95 0 -2.93 -2.35 2.93 -35.74zm0 38.1l-1.56 0 -1.37 -2.35 2.93 2.35zm-140.54 -281.98l143.47 246.24 -5.86 33.39 -143.47 -246.24 0 0 5.86 -33.39zm-143.47 -246.25l143.47 246.25 -5.86 33.39 -143.47 -246.25 0 -33.39 5.86 0zm-5.86 33.39l-9.73 -16.69 9.73 -16.69 0 33.39z"/>
   </g>
   <g>
    <path class="fil0" d="M4174.38 4560.95l-143.47 246.25 -5.86 -33.39 143.47 -246.25 0 0 5.86 33.39zm143.47 -246.24l-143.47 246.24 -5.86 -33.39 143.47 -246.24 2.93 -2.35 2.93 35.74zm-5.86 -33.39l1.37 -2.35 1.56 0 -2.93 2.35zm289.88 35.74l-286.95 0 0 -38.1 286.95 0 0 0 0 38.1zm286.95 0l-286.95 0 0 -38.1 286.95 0 2.93 2.35 -2.93 35.74zm0 -38.1l1.56 0 1.37 2.35 -2.93 -2.35zm140.54 281.98l-143.47 -246.24 5.86 -33.39 143.47 246.24 0 0 -5.86 33.39zm143.47 246.25l-143.47 -246.25 5.86 -33.39 143.47 246.25 0 33.39 -5.86 0zm5.86 -33.39l9.73 16.69 -9.73 16.69 0 -33.39zm-149.34 246.25l143.47 -246.25 5.86 33.39 -143.47 246.25 0 0 -5.86 -33.39zm-143.47 246.24l143.47 -246.24 5.86 33.39 -143.47 246.24 -2.93 2.35 -2.93 -35.74zm5.86 33.39l-1.37 2.35 -1.56 0 2.93 -2.35zm-289.88 -35.74l286.95 0 0 38.1 -286.95 0 0 0 0 -38.1zm-286.95 0l286.95 0 0 38.1 -286.95 0 -2.93 -2.35 2.93 -35.74zm0 38.1l-1.56 0 -1.37 -2.35 2.93 2.35zm-140.54 -281.98l143.47 246.24 -5.86 33.39 -143.47 -246.24 0 0 5.86 -33.39zm-143.47 -246.25l143.47 246.25 -5.86 33.39 -143.47 -246.25 0 -33.39 5.86 0zm-5.86 33.39l-9.73 -16.69 9.73 -16.69 0 33.39z"/>
   </g>
   <g>
    <path class="fil0" d="M5888.7 4558.1l-143.47 246.25 -5.86 -33.39 143.47 -246.25 0 0 5.86 33.39zm143.47 -246.24l-143.47 246.24 -5.86 -33.39 143.47 -246.24 2.93 -2.35 2.93 35.74zm-5.86 -33.39l1.37 -2.35 1.56 0 -2.93 2.35zm289.88 35.74l-286.95 0 0 -38.1 286.95 0 0 0 0 38.1zm286.95 0l-286.95 0 0 -38.1 286.95 0 2.93 2.35 -2.93 35.74zm0 -38.1l1.56 0 1.37 2.35 -2.93 -2.35zm140.54 281.98l-143.47 -246.24 5.86 -33.39 143.47 246.24 0 0 -5.86 33.39zm143.47 246.25l-143.47 -246.25 5.86 -33.39 143.47 246.25 0 33.39 -5.86 0zm5.86 -33.39l9.73 16.69 -9.73 16.69 0 -33.39zm-149.34 246.25l143.47 -246.25 5.86 33.39 -143.47 246.25 0 0 -5.86 -33.39zm-143.47 246.24l143.47 -246.24 5.86 33.39 -143.47 246.24 -2.93 2.35 -2.93 -35.74zm5.86 33.39l-1.37 2.35 -1.56 0 2.93 -2.35zm-289.88 -35.74l286.95 0 0 38.1 -286.95 0 0 0 0 -38.1zm-286.95 0l286.95 0 0 38.1 -286.95 0 -2.93 -2.35 2.93 -35.74zm0 38.1l-1.56 0 -1.37 -2.35 2.93 2.35zm-140.54 -281.98l143.47 246.24 -5.86 33.39 -143.47 -246.24 0 0 5.86 -33.39zm-143.47 -246.25l143.47 246.25 -5.86 33.39 -143.47 -246.25 0 -33.39 5.86 0zm-5.86 33.39l-9.73 -16.69 9.73 -16.69 0 33.39z"/>
   </g>
   <g>
    <path class="fil0" d="M8460.83 5020.05l13.31 -22.84 5.87 33.39 -13.31 22.84 -0.01 0 -5.87 -33.39zm-143.47 246.24l143.47 -246.24 5.86 33.39 -143.47 246.24 -2.93 2.35 -2.93 -35.74zm5.86 33.39l-1.37 2.35 -1.56 0 2.93 -2.35zm-289.88 -35.74l286.95 -0.01 0 38.1 -286.95 0.01 0 0 0 -38.1zm-286.95 -0.01l286.95 0.01 0 38.1 -286.95 -0.01 -2.93 -2.35 2.93 -35.74zm0 38.1l-1.56 0 -1.37 -2.35 2.93 2.35zm-140.54 -281.98l143.47 246.24 -5.86 33.39 -143.47 -246.24 0 0 5.86 -33.39zm-143.47 -246.25l143.47 246.25 -5.86 33.39 -143.47 -246.25 0 -33.39 5.86 0zm-5.86 33.39l-9.73 -16.69 9.73 -16.69 0 33.39zm149.34 -246.25l-143.47 246.25 -5.86 -33.39 143.47 -246.25 0 0 5.86 33.39zm143.47 -246.24l-143.47 246.24 -5.86 -33.39 143.47 -246.24 2.93 -2.35 2.93 35.74zm-5.86 -33.39l1.37 -2.35 1.56 0 -2.93 2.35zm289.88 35.74l-286.95 0 0 -38.1 286.95 0 0 0 0 38.1zm286.95 0l-286.95 0 0 -38.1 286.95 0 2.93 2.35 -2.93 35.74zm0 -38.1l1.56 0 1.37 2.35 -2.93 -2.35zm115.85 239.61l-118.78 -203.87 5.86 -33.39 118.78 203.87 -5.78 33.53 -0.08 -0.14zm0.08 0.14l0.02 0.04 -0.1 -0.18 0.08 0.14zm34.83 57.65l-34.83 -57.65 5.7 -33.67 34.83 57.65 -5.7 33.67z"/>
   </g>
   <g>
    <path class="fil0" d="M1564.82 5053.35l-143.47 246.25 -5.86 -33.39 143.47 -246.25 0 0 5.86 33.39zm143.47 -246.24l-143.47 246.24 -5.86 -33.39 143.47 -246.24 2.93 -2.35 2.93 35.74zm-5.86 -33.39l1.37 -2.35 1.56 0 -2.93 2.35zm289.88 35.74l-286.95 0 0 -38.1 286.95 0 0 0 0 38.1zm286.95 0l-286.95 0 0 -38.1 286.95 0 2.93 2.35 -2.93 35.74zm0 -38.1l1.56 0 1.37 2.35 -2.93 -2.35zm140.54 281.98l-143.47 -246.24 5.86 -33.39 143.47 246.24 0 0 -5.86 33.39zm143.47 246.25l-143.47 -246.25 5.86 -33.39 143.47 246.25 0 33.39 -5.86 0zm5.86 -33.39l9.73 16.69 -9.73 16.69 0 -33.39zm-149.34 246.25l143.47 -246.25 5.86 33.39 -143.47 246.25 0 0 -5.86 -33.39zm-143.47 246.24l143.47 -246.24 5.86 33.39 -143.47 246.24 -2.93 2.35 -2.93 -35.74zm5.86 33.39l-1.37 2.35 -1.56 0 2.93 -2.35zm-289.88 -35.74l286.95 0 0 38.1 -286.95 0 0 0 0 -38.1zm-286.95 0l286.95 0 0 38.1 -286.95 0 -2.93 -2.35 2.93 -35.74zm0 38.1l-1.56 0 -1.37 -2.35 2.93 2.35zm-140.54 -281.98l143.47 246.24 -5.86 33.39 -143.47 -246.24 0 0 5.86 -33.39zm-143.47 -246.25l143.47 246.25 -5.86 33.39 -143.47 -246.25 0 -33.39 5.86 0zm-5.86 33.39l-9.73 -16.69 9.73 -16.69 0 33.39z"/>
   </g>
   <g>
    <path class="fil0" d="M5045.19 5050.8l-143.47 246.25 -5.86 -33.39 143.47 -246.25 0 0 5.86 33.39zm143.47 -246.24l-143.47 246.24 -5.86 -33.39 143.47 -246.24 2.93 -2.35 2.93 35.74zm-5.86 -33.39l1.37 -2.35 1.56 0 -2.93 2.35zm289.88 35.74l-286.95 0 0 -38.1 286.95 0 0 0 0 38.1zm286.95 0l-286.95 0 0 -38.1 286.95 0 2.93 2.35 -2.93 35.74zm0 -38.1l1.56 0 1.37 2.35 -2.93 -2.35zm140.54 281.98l-143.47 -246.24 5.86 -33.39 143.47 246.24 0 0 -5.86 33.39zm143.47 246.25l-143.47 -246.25 5.86 -33.39 143.47 246.25 0 33.39 -5.86 0zm5.86 -33.39l9.73 16.69 -9.73 16.69 0 -33.39zm-149.34 246.25l143.47 -246.25 5.86 33.39 -143.47 246.25 0 0 -5.86 -33.39zm-143.47 246.24l143.47 -246.24 5.86 33.39 -143.47 246.24 -2.93 2.35 -2.93 -35.74zm5.86 33.39l-1.37 2.35 -1.56 0 2.93 -2.35zm-289.88 -35.74l286.95 0 0 38.1 -286.95 0 0 0 0 -38.1zm-286.95 0l286.95 0 0 38.1 -286.95 0 -2.93 -2.35 2.93 -35.74zm0 38.1l-1.56 0 -1.37 -2.35 2.93 2.35zm-140.54 -281.98l143.47 246.24 -5.86 33.39 -143.47 -246.24 0 0 5.86 -33.39zm-143.47 -246.25l143.47 246.25 -5.86 33.39 -143.47 -246.25 0 -33.39 5.86 0zm-5.86 33.39l-9.73 -16.69 9.73 -16.69 0 33.39z"/>
   </g>
   <g>
    <path class="fil0" d="M3317.22 5056.2l-143.47 246.25 -5.86 -33.39 143.47 -246.25 0 0 5.86 33.39zm143.47 -246.24l-143.47 246.24 -5.86 -33.39 143.47 -246.24 2.93 -2.35 2.93 35.74zm-5.86 -33.39l1.37 -2.35 1.56 0 -2.93 2.35zm289.88 35.74l-286.95 0 0 -38.1 286.95 0 0 0 0 38.1zm286.95 0l-286.95 0 0 -38.1 286.95 0 2.93 2.35 -2.93 35.74zm0 -38.1l1.56 0 1.37 2.35 -2.93 -2.35zm140.54 281.98l-143.47 -246.24 5.86 -33.39 143.47 246.24 0 0 -5.86 33.39zm143.47 246.25l-143.47 -246.25 5.86 -33.39 143.47 246.25 0 33.39 -5.86 0zm5.86 -33.39l9.73 16.69 -9.73 16.69 0 -33.39zm-149.34 246.25l143.47 -246.25 5.86 33.39 -143.47 246.25 0 0 -5.86 -33.39zm-143.47 246.24l143.47 -246.24 5.86 33.39 -143.47 246.24 -2.93 2.35 -2.93 -35.74zm5.86 33.39l-1.37 2.35 -1.56 0 2.93 -2.35zm-289.88 -35.74l286.95 0 0 38.1 -286.95 0 0 0 0 -38.1zm-286.95 0l286.95 0 0 38.1 -286.95 0 -2.93 -2.35 2.93 -35.74zm0 38.1l-1.56 0 -1.37 -2.35 2.93 2.35zm-140.54 -281.98l143.47 246.24 -5.86 33.39 -143.47 -246.24 0 0 5.86 -33.39zm-143.47 -246.25l143.47 246.25 -5.86 33.39 -143.47 -246.25 0 -33.39 5.86 0zm-5.86 33.39l-9.73 -16.69 9.73 -16.69 0 33.39z"/>
   </g>
   <g>
    <path class="fil0" d="M8460.83 6005.45l13.31 -22.84 5.87 33.39 -13.31 22.84 -0.01 0 -5.87 -33.39zm-143.47 246.24l143.47 -246.24 5.86 33.39 -143.47 246.24 -2.93 2.35 -2.93 -35.74zm5.86 33.39l-1.37 2.35 -1.56 0 2.93 -2.35zm-289.88 -35.74l286.95 0 0 38.1 -286.95 0 0 0 0 -38.1zm-286.95 0l286.95 0 0 38.1 -286.95 0 -2.93 -2.35 2.93 -35.74zm0 38.1l-1.56 0 -1.37 -2.35 2.93 2.35zm-140.54 -281.98l143.47 246.24 -5.86 33.39 -143.47 -246.24 0 0 5.86 -33.39zm-143.47 -246.25l143.47 246.25 -5.86 33.39 -143.47 -246.25 0 -33.39 5.86 0zm-5.86 33.39l-9.73 -16.69 9.73 -16.69 0 33.39zm149.34 -246.25l-143.47 246.25 -5.86 -33.39 143.47 -246.25 0 0 5.86 33.39zm143.47 -246.24l-143.47 246.24 -5.86 -33.39 143.47 -246.24 2.93 -2.35 2.93 35.74zm-5.86 -33.39l1.37 -2.35 1.56 0 -2.93 2.35zm289.88 35.74l-286.95 0 0 -38.1 286.95 0 0 0 0 38.1zm286.95 0l-286.95 0 0 -38.1 286.95 0 2.93 2.35 -2.93 35.74zm0 -38.1l1.56 0 1.37 2.35 -2.93 -2.35zm140.54 281.98l-143.47 -246.24 5.86 -33.39 143.47 246.24 0.01 0 -5.87 33.39zm13.3 22.84l-13.31 -22.84 5.87 -33.39 13.31 22.84 -5.87 33.39z"/>
   </g>
   <g>
    <path class="fil0" d="M5915.99 5548.6l-143.47 246.25 -5.86 -33.39 143.47 -246.25 0 0 5.86 33.39zm143.47 -246.24l-143.47 246.24 -5.86 -33.39 143.47 -246.24 2.93 -2.35 2.93 35.74zm-5.86 -33.39l1.37 -2.35 1.56 0 -2.93 2.35zm289.88 35.74l-286.95 0 0 -38.1 286.95 0 0 0 0 38.1zm286.95 0l-286.95 0 0 -38.1 286.95 0 2.93 2.35 -2.93 35.74zm0 -38.1l1.56 0 1.37 2.35 -2.93 -2.35zm140.54 281.98l-143.47 -246.24 5.86 -33.39 143.47 246.24 0 0 -5.86 33.39zm143.47 246.25l-143.47 -246.25 5.86 -33.39 143.47 246.25 0 33.39 -5.86 0zm5.86 -33.39l9.73 16.69 -9.73 16.69 0 -33.39zm-149.34 246.25l143.47 -246.25 5.86 33.39 -143.47 246.25 0 0 -5.86 -33.39zm-143.47 246.24l143.47 -246.24 5.86 33.39 -143.47 246.24 -2.93 2.35 -2.93 -35.74zm5.86 33.39l-1.37 2.35 -1.56 0 2.93 -2.35zm-289.88 -35.74l286.95 0 0 38.1 -286.95 0 0 0 0 -38.1zm-286.94 0l286.94 0 0 38.1 -286.94 0 -2.93 -2.35 2.93 -35.74zm0 38.1l-1.56 0 -1.37 -2.35 2.93 2.35zm-140.55 -281.98l143.48 246.24 -5.86 33.39 -143.48 -246.24 0 0 5.86 -33.39zm-143.47 -246.25l143.47 246.25 -5.86 33.39 -143.47 -246.25 0 -33.39 5.86 0zm-5.86 33.39l-9.73 -16.69 9.73 -16.69 0 33.39z"/>
   </g>
   <g>
    <path class="fil0" d="M6754.1 6054.64l-143.47 246.25 -5.86 -33.39 143.47 -246.25 0 0 5.86 33.39zm143.47 -246.24l-143.47 246.24 -5.86 -33.39 143.47 -246.24 2.93 -2.35 2.93 35.74zm-5.86 -33.39l1.37 -2.35 1.56 0 -2.93 2.35zm289.88 35.74l-286.95 0 0 -38.1 286.95 0 0 0 0 38.1zm286.95 0l-286.95 0 0 -38.1 286.95 0 2.93 2.35 -2.93 35.74zm0 -38.1l1.56 0 1.37 2.35 -2.93 -2.35zm140.54 281.98l-143.47 -246.24 5.86 -33.39 143.47 246.24 0 0 -5.86 33.39zm143.47 246.25l-143.47 -246.25 5.86 -33.39 143.47 246.25 0 33.39 -5.86 0zm5.86 -33.39l9.73 16.69 -9.73 16.69 0 -33.39zm-149.34 246.25l143.47 -246.25 5.86 33.39 -143.47 246.25 0 0 -5.86 -33.39zm-143.47 246.24l143.47 -246.24 5.86 33.39 -143.47 246.24 -2.93 2.35 -2.93 -35.74zm5.86 33.39l-1.37 2.35 -1.56 0 2.93 -2.35zm-289.88 -35.74l286.95 0 0 38.1 -286.95 0 0 0 0 -38.1zm-286.95 0l286.95 0 0 38.1 -286.95 0 -2.93 -2.35 2.93 -35.74zm0 38.1l-1.56 0 -1.37 -2.35 2.93 2.35zm-140.54 -281.98l143.47 246.24 -5.86 33.39 -143.47 -246.24 0 0 5.86 -33.39zm-143.47 -246.25l143.47 246.25 -5.86 33.39 -143.47 -246.25 0 -33.39 5.86 0zm-5.86 33.39l-9.72 -16.69 9.72 -16.69 0 33.39z"/>
   </g>
   <g>
    <path class="fil0" d="M4174.38 5543.2l-143.47 246.25 -5.86 -33.39 143.47 -246.25 0 0 5.86 33.39zm143.47 -246.24l-143.47 246.24 -5.86 -33.39 143.47 -246.24 2.93 -2.35 2.93 35.74zm-5.86 -33.39l1.37 -2.35 1.56 0 -2.93 2.35zm289.88 35.74l-286.95 0 0 -38.1 286.95 0 0 0 0 38.1zm286.95 0l-286.95 0 0 -38.1 286.95 0 2.93 2.35 -2.93 35.74zm0 -38.1l1.56 0 1.37 2.35 -2.93 -2.35zm140.54 281.98l-143.47 -246.24 5.86 -33.39 143.47 246.24 0 0 -5.86 33.39zm143.47 246.25l-143.47 -246.25 5.86 -33.39 143.47 246.25 0 33.39 -5.86 0zm5.86 -33.39l9.73 16.69 -9.73 16.69 0 -33.39zm-149.34 246.25l143.47 -246.25 5.86 33.39 -143.47 246.25 0 0 -5.86 -33.39zm-143.47 246.24l143.47 -246.24 5.86 33.39 -143.47 246.24 -2.93 2.35 -2.93 -35.74zm5.86 33.39l-1.37 2.35 -1.56 0 2.93 -2.35zm-289.88 -35.74l286.95 0 0 38.1 -286.95 0 0 0 0 -38.1zm-286.95 0l286.95 0 0 38.1 -286.95 0 -2.93 -2.35 2.93 -35.74zm0 38.1l-1.56 0 -1.37 -2.35 2.93 2.35zm-140.54 -281.98l143.47 246.24 -5.86 33.39 -143.47 -246.24 0 0 5.86 -33.39zm-143.47 -246.25l143.47 246.25 -5.86 33.39 -143.47 -246.25 0 -33.39 5.86 0zm-5.86 33.39l-9.73 -16.69 9.73 -16.69 0 33.39z"/>
   </g>
   <g>
    <path class="fil0" d="M5907.75 6541.94l-143.47 246.25 -5.86 -33.39 143.47 -246.25 0 0 5.86 33.39zm143.47 -246.24l-143.47 246.24 -5.86 -33.39 143.47 -246.24 2.93 -2.35 2.93 35.74zm-5.86 -33.39l1.37 -2.35 1.56 0 -2.93 2.35zm289.88 35.74l-286.95 0 0 -38.1 286.95 0 0 0 0 38.1zm286.95 0l-286.95 0 0 -38.1 286.95 0 2.93 2.35 -2.93 35.74zm0 -38.1l1.56 0 1.37 2.35 -2.93 -2.35zm140.54 281.98l-143.47 -246.24 5.86 -33.39 143.47 246.24 0 0 -5.86 33.39zm143.47 246.25l-143.47 -246.25 5.86 -33.39 143.47 246.25 0 33.39 -5.86 0zm5.86 -33.39l9.73 16.69 -9.73 16.69 0 -33.39zm-149.34 246.25l143.47 -246.25 5.86 33.39 -143.47 246.25 0 0 -5.86 -33.39zm-143.47 246.24l143.47 -246.24 5.86 33.39 -143.47 246.24 -2.93 2.35 -2.93 -35.74zm5.86 33.39l-1.37 2.35 -1.56 0 2.93 -2.35zm-289.88 -35.74l286.95 0 0 38.1 -286.95 0 0 0 0 -38.1zm-286.95 0l286.95 0 0 38.1 -286.95 0 -2.93 -2.35 2.93 -35.74zm0 38.1l-1.56 0 -1.37 -2.35 2.93 2.35zm-140.54 -281.98l143.47 246.24 -5.86 33.39 -143.47 -246.24 0 0 5.86 -33.39zm-143.47 -246.25l143.47 246.25 -5.86 33.39 -143.47 -246.25 0 -33.39 5.86 0zm-5.86 33.39l-9.73 -16.69 9.73 -16.69 0 33.39z"/>
   </g>
   <g>
    <path class="fil0" d="M4186.46 6537.82l-143.47 246.25 -5.86 -33.39 143.47 -246.25 0 0 5.86 33.39zm143.47 -246.24l-143.47 246.24 -5.86 -33.39 143.47 -246.24 2.93 -2.35 2.93 35.74zm-5.86 -33.39l1.37 -2.35 1.56 0 -2.93 2.35zm289.88 35.74l-286.95 0 0 -38.1 286.95 0 0 0 0 38.1zm286.95 0l-286.95 0 0 -38.1 286.95 0 2.93 2.35 -2.93 35.74zm0 -38.1l1.56 0 1.37 2.35 -2.93 -2.35zm140.54 281.98l-143.47 -246.24 5.86 -33.39 143.47 246.24 0 0 -5.86 33.39zm143.47 246.25l-143.47 -246.25 5.86 -33.39 143.47 246.25 0 33.39 -5.86 0zm5.86 -33.39l9.73 16.69 -9.73 16.69 0 -33.39zm-149.34 246.25l143.47 -246.25 5.86 33.39 -143.47 246.25 0 0 -5.86 -33.39zm-143.47 246.24l143.47 -246.24 5.86 33.39 -143.47 246.24 -2.93 2.35 -2.93 -35.74zm5.86 33.39l-1.37 2.35 -1.56 0 2.93 -2.35zm-289.88 -35.74l286.95 0 0 38.1 -286.95 0 0 0 0 -38.1zm-286.95 0l286.95 0 0 38.1 -286.95 0 -2.93 -2.35 2.93 -35.74zm0 38.1l-1.56 0 -1.37 -2.35 2.93 2.35zm-140.54 -281.98l143.47 246.24 -5.86 33.39 -143.47 -246.24 0 0 5.86 -33.39zm-143.47 -246.25l143.47 246.25 -5.86 33.39 -143.47 -246.25 0 -33.39 5.86 0zm-5.86 33.39l-9.73 -16.69 9.73 -16.69 0 33.39z"/>
   </g>
   <g>
    <path class="fil0" d="M3307.71 6056.22l-143.47 246.25 -5.86 -33.39 143.47 -246.25 0 0 5.86 33.39zm143.47 -246.24l-143.47 246.24 -5.86 -33.39 143.47 -246.24 2.93 -2.35 2.93 35.74zm-5.86 -33.39l1.37 -2.35 1.56 0 -2.93 2.35zm289.88 35.74l-286.95 0 0 -38.1 286.95 0 0 0 0 38.1zm286.95 0l-286.95 0 0 -38.1 286.95 0 2.93 2.35 -2.93 35.74zm0 -38.1l1.56 0 1.37 2.35 -2.93 -2.35zm140.54 281.98l-143.47 -246.24 5.86 -33.39 143.47 246.24 0 0 -5.86 33.39zm143.47 246.25l-143.47 -246.25 5.86 -33.39 143.47 246.25 0 33.39 -5.86 0zm5.86 -33.39l9.73 16.69 -9.73 16.69 0 -33.39zm-149.34 246.25l143.47 -246.25 5.86 33.39 -143.47 246.25 0 0 -5.86 -33.39zm-143.47 246.24l143.47 -246.24 5.86 33.39 -143.47 246.24 -2.93 2.35 -2.93 -35.74zm5.86 33.39l-1.37 2.35 -1.56 0 2.93 -2.35zm-289.88 -35.74l286.95 0 0 38.1 -286.95 0 0 0 0 -38.1zm-286.95 0l286.95 0 0 38.1 -286.95 0 -2.93 -2.35 2.93 -35.74zm0 38.1l-1.56 0 -1.37 -2.35 2.93 2.35zm-140.54 -281.98l143.47 246.24 -5.86 33.39 -143.47 -246.24 0 0 5.86 -33.39zm-143.47 -246.25l143.47 246.25 -5.86 33.39 -143.47 -246.25 0 -33.39 5.86 0zm-5.86 33.39l-9.73 -16.69 9.73 -16.69 0 33.39z"/>
   </g>
   <g>
    <path class="fil0" d="M1575.62 6053.67l-143.47 246.25 -5.86 -33.39 143.47 -246.25 0 0 5.86 33.39zm143.47 -246.24l-143.47 246.24 -5.86 -33.39 143.47 -246.24 2.93 -2.35 2.93 35.74zm-5.86 -33.39l1.37 -2.35 1.56 0 -2.93 2.35zm289.88 35.74l-286.95 0 0 -38.1 286.95 0 0 0 0 38.1zm286.95 0l-286.95 0 0 -38.1 286.95 0 2.93 2.35 -2.93 35.74zm0 -38.1l1.56 0 1.37 2.35 -2.93 -2.35zm140.54 281.98l-143.47 -246.24 5.86 -33.39 143.47 246.24 0 0 -5.86 33.39zm143.47 246.25l-143.47 -246.25 5.86 -33.39 143.47 246.25 0 33.39 -5.86 0zm5.86 -33.39l9.73 16.69 -9.73 16.69 0 -33.39zm-149.34 246.25l143.47 -246.25 5.86 33.39 -143.47 246.25 0 0 -5.86 -33.39zm-143.47 246.24l143.47 -246.24 5.86 33.39 -143.47 246.24 -2.93 2.35 -2.93 -35.74zm5.86 33.39l-1.37 2.35 -1.56 0 2.93 -2.35zm-289.88 -35.74l286.95 0 0 38.1 -286.95 0 0 0 0 -38.1zm-286.95 0l286.95 0 0 38.1 -286.95 0 -2.93 -2.35 2.93 -35.74zm0 38.1l-1.56 0 -1.37 -2.35 2.93 2.35zm-140.54 -281.98l143.47 246.24 -5.86 33.39 -143.47 -246.24 0 0 5.86 -33.39zm-143.47 -246.25l143.47 246.25 -5.86 33.39 -143.47 -246.25 0 -33.39 5.86 0zm-5.86 33.39l-9.73 -16.69 9.73 -16.69 0 33.39z"/>
   </g>
   <g>
    <path class="fil0" d="M707.66 4560.96l-143.47 246.25 -5.86 -33.39 143.47 -246.25 0 0 5.86 33.39zm143.47 -246.24l-143.47 246.24 -5.86 -33.39 143.47 -246.24 2.93 -2.35 2.93 35.74zm-5.86 -33.39l1.37 -2.35 1.56 0 -2.93 2.35zm289.88 35.74l-286.95 0 0 -38.1 286.95 0 0 0 0 38.1zm286.95 0l-286.95 0 0 -38.1 286.95 0 2.93 2.35 -2.93 35.74zm0 -38.1l1.56 0 1.37 2.35 -2.93 -2.35zm140.54 281.98l-143.47 -246.24 5.86 -33.39 143.47 246.24 0 0 -5.86 33.39zm143.47 246.25l-143.47 -246.25 5.86 -33.39 143.47 246.25 0 33.39 -5.86 0zm5.86 -33.39l9.73 16.69 -9.73 16.69 0 -33.39zm-149.34 246.25l143.47 -246.25 5.86 33.39 -143.47 246.25 0 0 -5.86 -33.39zm-143.47 246.24l143.47 -246.24 5.86 33.39 -143.47 246.24 -2.93 2.35 -2.93 -35.74zm5.86 33.39l-1.37 2.35 -1.56 0 2.93 -2.35zm-289.88 -35.74l286.95 0 0 38.1 -286.95 0 0 0 0 -38.1zm-286.95 0l286.95 0 0 38.1 -286.95 0 -2.93 -2.35 2.93 -35.74zm0 38.1l-1.56 0 -1.37 -2.35 2.93 2.35zm-140.54 -281.98l143.47 246.24 -5.86 33.39 -143.47 -246.24 0 0 5.86 -33.39zm-143.47 -246.25l143.47 246.25 -5.86 33.39 -143.47 -246.25 0 -33.39 5.86 0zm-5.86 33.39l-9.73 -16.69 9.73 -16.69 0 33.39z"/>
   </g>
   <g>
    <path class="fil0" d="M2438.17 6551.47l-143.47 246.25 -5.86 -33.39 143.47 -246.25 0 0 5.86 33.39zm143.47 -246.24l-143.47 246.24 -5.86 -33.39 143.47 -246.24 2.93 -2.35 2.93 35.74zm-5.86 -33.39l1.37 -2.35 1.56 0 -2.93 2.35zm289.88 35.74l-286.95 0 0 -38.1 286.95 0 0 0 0 38.1zm286.94 0l-286.94 0 0 -38.1 286.94 0 2.93 2.35 -2.93 35.74zm0 -38.1l1.56 0 1.37 2.35 -2.93 -2.35zm140.55 281.98l-143.48 -246.24 5.86 -33.39 143.48 246.24 0 0 -5.86 33.39zm143.47 246.25l-143.47 -246.25 5.86 -33.39 143.47 246.25 0 33.39 -5.86 0zm5.86 -33.39l9.73 16.69 -9.73 16.69 0 -33.39zm-149.34 246.25l143.47 -246.25 5.86 33.39 -143.47 246.25 0 0 -5.86 -33.39zm-143.47 246.24l143.47 -246.24 5.86 33.39 -143.47 246.24 -2.93 2.35 -2.93 -35.74zm5.86 33.39l-1.37 2.35 -1.56 0 2.93 -2.35zm-289.88 -35.74l286.95 0 0 38.1 -286.95 0 0 0 0 -38.1zm-286.95 0l286.95 0 0 38.1 -286.95 0 -2.93 -2.35 2.93 -35.74zm0 38.1l-1.56 0 -1.37 -2.35 2.93 2.35zm-140.54 -281.98l143.47 246.24 -5.86 33.39 -143.47 -246.24 0 0 5.86 -33.39zm-143.47 -246.25l143.47 246.25 -5.86 33.39 -143.47 -246.25 0 -33.39 5.86 0zm-5.86 33.39l-9.73 -16.69 9.73 -16.69 0 33.39z"/>
   </g>
   <g>
    <path class="fil0" d="M3311.83 7041.31l-143.47 246.25 -5.86 -33.39 143.47 -246.25 0 0 5.86 33.39zm143.47 -246.24l-143.47 246.24 -5.86 -33.39 143.47 -246.24 2.93 -2.35 2.93 35.74zm-5.86 -33.39l1.37 -2.35 1.56 0 -2.93 2.35zm289.88 35.74l-286.95 0 0 -38.1 286.95 0 0 0 0 38.1zm286.95 0l-286.95 0 0 -38.1 286.95 0 2.93 2.35 -2.93 35.74zm0 -38.1l1.56 0 1.37 2.35 -2.93 -2.35zm140.54 281.98l-143.47 -246.24 5.86 -33.39 143.47 246.24 0 0 -5.86 33.39zm143.47 246.25l-143.47 -246.25 5.86 -33.39 143.47 246.25 0 33.39 -5.86 0zm5.86 -33.39l9.73 16.69 -9.73 16.69 0 -33.39zm-149.34 246.25l143.47 -246.25 5.86 33.39 -143.47 246.25 0 0 -5.86 -33.39zm-143.47 246.24l143.47 -246.24 5.86 33.39 -143.47 246.24 -2.93 2.35 -2.93 -35.74zm5.86 33.39l-1.37 2.35 -1.56 0 2.93 -2.35zm-289.88 -35.74l286.95 0 0 38.1 -286.95 0 0 0 0 -38.1zm-286.95 0l286.95 0 0 38.1 -286.95 0 -2.93 -2.35 2.93 -35.74zm0 38.1l-1.56 0 -1.37 -2.35 2.93 2.35zm-140.54 -281.98l143.47 246.24 -5.86 33.39 -143.47 -246.24 0 0 5.86 -33.39zm-143.47 -246.25l143.47 246.25 -5.86 33.39 -143.47 -246.25 0 -33.39 5.86 0zm-5.86 33.39l-9.73 -16.69 9.73 -16.69 0 33.39z"/>
   </g>
   <g>
    <path class="fil0" d="M5050.59 7037.19l-143.47 246.25 -5.86 -33.39 143.47 -246.25 0 0 5.86 33.39zm143.47 -246.24l-143.47 246.24 -5.86 -33.39 143.47 -246.24 2.93 -2.35 2.93 35.74zm-5.86 -33.39l1.37 -2.35 1.56 0 -2.93 2.35zm289.88 35.74l-286.95 0 0 -38.1 286.95 0 0 0 0 38.1zm286.95 0l-286.95 0 0 -38.1 286.95 0 2.93 2.35 -2.93 35.74zm0 -38.1l1.56 0 1.37 2.35 -2.93 -2.35zm140.54 281.98l-143.47 -246.24 5.86 -33.39 143.47 246.24 0 0 -5.86 33.39zm143.47 246.25l-143.47 -246.25 5.86 -33.39 143.47 246.25 0 33.39 -5.86 0zm5.86 -33.39l9.73 16.69 -9.73 16.69 0 -33.39zm-149.34 246.25l143.47 -246.25 5.86 33.39 -143.47 246.25 0 0 -5.86 -33.39zm-143.47 246.24l143.47 -246.24 5.86 33.39 -143.47 246.24 -2.93 2.35 -2.93 -35.74zm5.86 33.39l-1.37 2.35 -1.56 0 2.93 -2.35zm-289.88 -35.74l286.95 0 0 38.1 -286.95 0 0 0 0 -38.1zm-286.95 0l286.95 0 0 38.1 -286.95 0 -2.93 -2.35 2.93 -35.74zm0 38.1l-1.56 0 -1.37 -2.35 2.93 2.35zm-140.54 -281.98l143.47 246.24 -5.86 33.39 -143.47 -246.24 0 0 5.86 -33.39zm-143.47 -246.25l143.47 246.25 -5.86 33.39 -143.47 -246.25 0 -33.39 5.86 0zm-5.86 33.39l-9.73 -16.69 9.73 -16.69 0 33.39z"/>
   </g>
   <g>
    <path class="fil0" d="M707.66 5551.45l-143.47 246.25 -5.86 -33.39 143.47 -246.25 0 0 5.86 33.39zm143.47 -246.24l-143.47 246.24 -5.86 -33.39 143.47 -246.24 2.93 -2.35 2.93 35.74zm-5.86 -33.39l1.37 -2.35 1.56 0 -2.93 2.35zm289.88 35.74l-286.95 0 0 -38.1 286.95 0 0 38.1zm286.95 -0.01l-286.95 0.01 0 -38.1 286.95 -0.01 2.93 2.35 -2.93 35.74zm0 -38.1l1.56 0 1.37 2.35 -2.93 -2.35zm140.54 281.99l-143.47 -246.25 5.86 -33.39 143.47 246.25 0 0 -5.86 33.39zm143.47 246.25l-143.47 -246.25 5.86 -33.39 143.47 246.25 0 33.39 -5.86 0zm5.86 -33.39l9.73 16.69 -9.73 16.69 0 -33.39zm-149.34 246.25l143.47 -246.25 5.86 33.39 -143.47 246.25 0 0 -5.86 -33.39zm-143.47 246.24l143.47 -246.24 5.86 33.39 -143.47 246.24 -2.93 2.35 -2.93 -35.74zm5.86 33.39l-1.37 2.35 -1.56 0 2.93 -2.35zm-289.88 -35.74l286.95 0 0 38.1 -286.95 0 0 0 0 -38.1zm-286.95 0l286.95 0 0 38.1 -286.95 0 -2.93 -2.35 2.93 -35.74zm0 38.1l-1.56 0 -1.37 -2.35 2.93 2.35zm-140.54 -281.98l143.47 246.24 -5.86 33.39 -143.47 -246.24 0 0 5.86 -33.39zm-143.47 -246.25l143.47 246.25 -5.86 33.39 -143.47 -246.25 0 -33.39 5.86 0zm-5.86 33.39l-9.73 -16.69 9.73 -16.69 0 33.39z"/>
   </g>
   <g>
    <path class="fil0" d="M698.14 6555.59l-143.47 246.25 -5.86 -33.39 143.47 -246.25 0 0 5.86 33.39zm143.47 -246.24l-143.47 246.24 -5.86 -33.39 143.47 -246.24 2.93 -2.35 2.93 35.74zm-5.86 -33.39l1.37 -2.35 1.56 0 -2.93 2.35zm289.88 35.74l-286.95 0 0 -38.1 286.95 0 0 0 0 38.1zm286.95 0l-286.95 0 0 -38.1 286.95 0 2.93 2.35 -2.93 35.74zm0 -38.1l1.56 0 1.37 2.35 -2.93 -2.35zm140.54 281.98l-143.47 -246.24 5.86 -33.39 143.47 246.24 0 0 -5.86 33.39zm143.47 246.25l-143.47 -246.25 5.86 -33.39 143.47 246.25 0 33.39 -5.86 0zm5.86 -33.39l9.73 16.69 -9.73 16.69 0 -33.39zm-149.34 246.25l143.47 -246.25 5.86 33.39 -143.47 246.25 0 0 -5.86 -33.39zm-143.47 246.24l143.47 -246.24 5.86 33.39 -143.47 246.24 -2.93 2.35 -2.93 -35.74zm5.86 33.39l-1.37 2.35 -1.56 0 2.93 -2.35zm-289.88 -35.74l286.95 0 0 38.1 -286.95 0 0 0 0 -38.1zm-286.95 0l286.95 0 0 38.1 -286.95 0 -2.93 -2.35 2.93 -35.74zm0 38.1l-1.56 0 -1.37 -2.35 2.93 2.35zm-140.54 -281.98l143.47 246.24 -5.86 33.39 -143.47 -246.24 0 0 5.86 -33.39zm-143.47 -246.25l143.47 246.25 -5.86 33.39 -143.47 -246.25 0 -33.39 5.86 0zm-5.86 33.39l-9.73 -16.69 9.73 -16.69 0 33.39z"/>
   </g>
   <g>
    <path class="fil0" d="M1564.82 7040.04l-143.47 246.25 -5.86 -33.39 143.47 -246.25 0 0 5.86 33.39zm143.47 -246.24l-143.47 246.24 -5.86 -33.39 143.47 -246.24 2.93 -2.35 2.93 35.74zm-5.86 -33.39l1.37 -2.35 1.56 0 -2.93 2.35zm289.88 35.74l-286.95 0 0 -38.1 286.95 0 0 0 0 38.1zm286.95 0l-286.95 0 0 -38.1 286.95 0 2.93 2.35 -2.93 35.74zm0 -38.1l1.56 0 1.37 2.35 -2.93 -2.35zm140.54 281.98l-143.47 -246.24 5.86 -33.39 143.47 246.24 0 0 -5.86 33.39zm143.47 246.25l-143.47 -246.25 5.86 -33.39 143.47 246.25 0 33.39 -5.86 0zm5.86 -33.39l9.73 16.69 -9.73 16.69 0 -33.39zm-149.34 246.25l143.47 -246.25 5.86 33.39 -143.47 246.25 0 0 -5.86 -33.39zm-143.47 246.24l143.47 -246.24 5.86 33.39 -143.47 246.24 -2.93 2.35 -2.93 -35.74zm5.86 33.39l-1.37 2.35 -1.56 0 2.93 -2.35zm-289.88 -35.74l286.95 0 0 38.1 -286.95 0 0 0 0 -38.1zm-286.95 0l286.95 0 0 38.1 -286.95 0 -2.93 -2.35 2.93 -35.74zm0 38.1l-1.56 0 -1.37 -2.35 2.93 2.35zm-140.54 -281.98l143.47 246.24 -5.86 33.39 -143.47 -246.24 0 0 5.86 -33.39zm-143.47 -246.25l143.47 246.25 -5.86 33.39 -143.47 -246.25 0 -33.39 5.86 0zm-5.86 33.39l-9.73 -16.69 9.73 -16.69 0 33.39z"/>
   </g>
   <g>
    <polygon class="fil1" points="6618.6,7279.04 6762.08,7032.79 6905.55,6786.55 7192.49,6786.55 7479.44,6786.55 7622.91,7032.79 7766.39,7279.04 7622.91,7525.28 7479.44,7771.52 7192.49,7771.52 6905.55,7771.52 6762.08,7525.28 "/>
    <path id="1" class="fil0" d="M6765.01 7049.49l-143.47 246.25 -5.86 -33.39 143.47 -246.25 0 0 5.86 33.39zm143.47 -246.24l-143.47 246.24 -5.86 -33.39 143.47 -246.24 2.93 -2.35 2.93 35.74zm-5.86 -33.39l1.37 -2.35 1.56 0 -2.93 2.35zm289.88 35.74l-286.95 0 0 -38.1 286.95 0 0 0 0 38.1zm286.95 0l-286.95 0 0 -38.1 286.95 0 2.93 2.35 -2.93 35.74zm0 -38.1l1.56 0 1.37 2.35 -2.93 -2.35zm140.54 281.98l-143.47 -246.24 5.86 -33.39 143.47 246.24 0 0 -5.86 33.39zm143.47 246.25l-143.47 -246.25 5.86 -33.39 143.47 246.25 0 33.39 -5.86 0zm5.86 -33.39l9.73 16.69 -9.73 16.69 0 -33.39zm-149.34 246.25l143.47 -246.25 5.86 33.39 -143.47 246.25 0 0 -5.86 -33.39zm-143.47 246.24l143.47 -246.24 5.86 33.39 -143.47 246.24 -2.93 2.35 -2.93 -35.74zm5.86 33.39l-1.37 2.35 -1.56 0 2.93 -2.35zm-289.88 -35.74l286.95 0 0 38.1 -286.95 0 0 0 0 -38.1zm-286.95 0l286.95 0 0 38.1 -286.95 0 -2.93 -2.35 2.93 -35.74zm0 38.1l-1.56 0 -1.37 -2.35 2.93 2.35zm-140.54 -281.98l143.47 246.24 -5.86 33.39 -143.47 -246.24 0 0 5.86 -33.39zm-143.47 -246.25l143.47 246.25 -5.86 33.39 -143.47 -246.25 0 -33.39 5.86 0zm-5.86 33.39l-9.73 -16.69 9.73 -16.69 0 33.39z"/>
   </g>
   <g>
    <polygon class="fil1" points="7465.57,3789.48 7609.04,3543.23 7752.52,3296.99 8039.46,3296.99 8326.41,3296.99 8469.88,3543.23 8477.07,3555.58 8477.07,4023.38 8469.88,4035.72 8326.41,4281.96 8039.46,4281.96 7752.52,4281.96 7609.04,4035.72 "/>
    <path id="1" class="fil0" d="M7611.98 3559.93l-143.47 246.25 -5.86 -33.39 143.47 -246.25 0 0 5.86 33.39zm143.47 -246.24l-143.47 246.24 -5.86 -33.39 143.47 -246.24 2.93 -2.35 2.93 35.74zm-5.86 -33.39l1.37 -2.35 1.56 0 -2.93 2.35zm289.88 35.74l-286.95 0 0 -38.1 286.95 0 0 0 0 38.1zm286.95 0l-286.95 0 0 -38.1 286.95 0 2.93 2.35 -2.93 35.74zm0 -38.1l1.56 0 1.37 2.35 -2.93 -2.35zm140.54 281.98l-143.47 -246.24 5.86 -33.39 143.47 246.24 -5.86 33.39zm7.19 12.34l-7.19 -12.34 5.86 -33.39 7.19 12.34 3.16 16.69 -9.03 16.69zm5.86 -33.39l3.16 5.43 0 11.26 -3.16 -16.69zm-9.03 484.5l0 -467.8 12.19 0 0 467.8 -3.16 16.69 -9.03 -16.69zm12.19 0l0 11.26 -3.16 5.43 3.16 -16.69zm-16.22 -4.35l7.19 -12.34 5.86 33.39 -7.19 12.34 -5.86 -33.39zm-143.47 246.24l143.47 -246.24 5.86 33.39 -143.47 246.24 -2.93 2.35 -2.93 -35.74zm5.86 33.39l-1.37 2.35 -1.56 0 2.93 -2.35zm-289.88 -35.74l286.95 0 0 38.1 -286.95 0 0 0 0 -38.1zm-286.95 0l286.95 0 0 38.1 -286.95 0 -2.93 -2.35 2.93 -35.74zm0 38.1l-1.56 0 -1.37 -2.35 2.93 2.35zm-140.54 -281.98l143.47 246.24 -5.86 33.39 -143.47 -246.24 0 0 5.86 -33.39zm-143.47 -246.25l143.47 246.25 -5.86 33.39 -143.47 -246.25 0 -33.39 5.86 0zm-5.86 33.39l-9.73 -16.69 9.73 -16.69 0 33.39z"/>
   </g>
   <g>
    <polygon class="fil1" points="5730.65,2818.05 5874.13,2571.8 6017.6,2325.56 6304.55,2325.56 6591.5,2325.56 6734.97,2571.8 6878.44,2818.05 6734.97,3064.29 6591.49,3310.53 6304.55,3310.53 6017.6,3310.53 5874.13,3064.29 "/>
    <path id="1" class="fil0" d="M5877.06 2588.5l-143.47 246.25 -5.86 -33.39 143.47 -246.25 0 0 5.86 33.39zm143.47 -246.24l-143.47 246.24 -5.86 -33.39 143.47 -246.24 2.93 -2.35 2.93 35.74zm-5.86 -33.39l1.37 -2.35 1.56 0 -2.93 2.35zm289.88 35.74l-286.95 0 0 -38.1 286.95 0 0 0 0 38.1zm286.95 0l-286.95 0 0 -38.1 286.95 0 2.93 2.35 -2.93 35.74zm0 -38.1l1.56 0 1.37 2.35 -2.93 -2.35zm140.54 281.98l-143.47 -246.24 5.86 -33.39 143.47 246.24 -5.86 33.39zm143.47 246.25l-143.47 -246.25 5.86 -33.39 143.47 246.25 0 33.39 -5.86 0zm5.86 -33.39l9.73 16.69 -9.73 16.69 0 -33.39zm-149.34 246.25l143.47 -246.25 5.86 33.39 -143.47 246.25 0 0 -5.86 -33.39zm-143.47 246.24l143.47 -246.24 5.86 33.39 -143.47 246.24 -2.93 2.35 -2.93 -35.74zm5.86 33.39l-1.37 2.35 -1.56 0 2.93 -2.35zm-289.88 -35.74l286.95 0 0 38.1 -286.95 0 0 0 0 -38.1zm-286.95 0l286.95 0 0 38.1 -286.95 0 -2.93 -2.35 2.93 -35.74zm0 38.1l-1.56 0 -1.37 -2.35 2.93 2.35zm-140.54 -281.98l143.47 246.24 -5.86 33.39 -143.47 -246.24 0 0 5.86 -33.39zm-143.47 -246.25l143.47 246.25 -5.86 33.39 -143.47 -246.25 0 -33.39 5.86 0zm-5.86 33.39l-9.73 -16.69 9.73 -16.69 0 33.39z"/>
   </g>
   <g>
    <polygon class="fil1" points="4025.86,3808.54 4169.34,3562.3 4312.81,3316.06 4599.76,3316.06 4886.7,3316.06 5030.18,3562.3 5173.65,3808.54 5030.18,4054.79 4886.7,4301.03 4599.76,4301.03 4312.81,4301.03 4169.34,4054.78 "/>
    <path id="1" class="fil0" d="M4172.27 3578.99l-143.47 246.25 -5.86 -33.39 143.47 -246.25 0 0 5.86 33.39zm143.47 -246.24l-143.47 246.24 -5.86 -33.39 143.47 -246.24 2.93 -2.35 2.93 35.74zm-5.86 -33.39l1.37 -2.35 1.56 0 -2.93 2.35zm289.88 35.74l-286.95 0 0 -38.1 286.95 0 0 0 0 38.1zm286.95 0l-286.95 0 0 -38.1 286.95 0 2.93 2.35 -2.93 35.74zm0 -38.1l1.56 0 1.37 2.35 -2.93 -2.35zm140.54 281.98l-143.47 -246.24 5.86 -33.39 143.47 246.24 0 0 -5.86 33.39zm143.47 246.25l-143.47 -246.25 5.86 -33.39 143.47 246.25 0 33.39 -5.86 0zm5.86 -33.39l9.73 16.69 -9.73 16.69 0 -33.39zm-149.34 246.25l143.47 -246.25 5.86 33.39 -143.47 246.25 0 0 -5.86 -33.39zm-143.47 246.24l143.47 -246.24 5.86 33.39 -143.47 246.24 -2.93 2.35 -2.93 -35.74zm5.86 33.39l-1.37 2.35 -1.56 0 2.93 -2.35zm-289.88 -35.74l286.95 0 0 38.1 -286.95 0 0 0 0 -38.1zm-286.95 0l286.95 0 0 38.1 -286.95 0 -2.93 -2.35 2.93 -35.74zm0 38.1l-1.56 0 -1.37 -2.35 2.93 2.35zm-140.54 -281.99l143.47 246.25 -5.86 33.39 -143.47 -246.25 5.86 -33.39zm-143.47 -246.24l143.47 246.24 -5.86 33.39 -143.47 -246.24 0 -33.39 5.86 0zm-5.86 33.39l-9.73 -16.69 9.73 -16.69 0 33.39z"/>
   </g>
   <g>
    <polygon class="fil1" points="6608.99,5266.69 6752.46,5020.45 6895.94,4774.21 7182.88,4774.21 7469.83,4774.21 7613.3,5020.45 7756.78,5266.69 7613.3,5512.94 7469.83,5759.18 7182.88,5759.18 6895.94,5759.18 6752.46,5512.94 "/>
    <path id="1" class="fil0" d="M6755.4 5037.14l-143.47 246.25 -5.86 -33.39 143.47 -246.25 0 0 5.86 33.39zm143.47 -246.24l-143.47 246.24 -5.86 -33.39 143.47 -246.24 2.93 -2.35 2.93 35.74zm-5.86 -33.39l1.37 -2.35 1.56 0 -2.93 2.35zm289.88 35.74l-286.95 0 0 -38.1 286.95 0 0 0 0 38.1zm286.95 0l-286.95 0 0 -38.1 286.95 0 2.93 2.35 -2.93 35.74zm0 -38.1l1.56 0 1.37 2.35 -2.93 -2.35zm140.54 281.98l-143.47 -246.24 5.86 -33.39 143.47 246.24 0 0 -5.86 33.39zm143.47 246.25l-143.47 -246.25 5.86 -33.39 143.47 246.25 0 33.39 -5.86 0zm5.86 -33.39l9.73 16.69 -9.73 16.69 0 -33.39zm-149.34 246.25l143.47 -246.25 5.86 33.39 -143.47 246.25 0 0 -5.86 -33.39zm-143.47 246.24l143.47 -246.24 5.86 33.39 -143.47 246.24 -2.93 2.35 -2.93 -35.74zm5.86 33.39l-1.37 2.35 -1.56 0 2.93 -2.35zm-289.88 -35.74l286.95 0 0 38.1 -286.95 0 0 0 0 -38.1zm-286.95 0l286.95 0 0 38.1 -286.95 0 -2.93 -2.35 2.93 -35.74zm0 38.1l-1.56 0 -1.37 -2.35 2.93 2.35zm-140.54 -281.98l143.47 246.24 -5.86 33.39 -143.47 -246.24 0 0 5.86 -33.39zm-143.47 -246.25l143.47 246.25 -5.86 33.39 -143.47 -246.25 0 -33.39 5.86 0zm-5.86 33.39l-9.73 -16.69 9.73 -16.69 0 33.39z"/>
   </g>
   <g>
    <polygon class="fil1" points="4894.38,6273.08 5037.85,6026.84 5181.33,5780.6 5468.27,5780.6 5755.22,5780.6 5898.69,6026.84 6042.17,6273.08 5898.69,6519.33 5755.22,6765.57 5468.27,6765.57 5181.33,6765.57 5037.85,6519.33 "/>
    <path id="1" class="fil0" d="M5040.79 6043.53l-143.47 246.25 -5.86 -33.39 143.47 -246.25 0 0 5.86 33.39zm143.47 -246.24l-143.47 246.24 -5.86 -33.39 143.47 -246.24 2.93 -2.35 2.93 35.74zm-5.86 -33.39l1.37 -2.35 1.56 0 -2.93 2.35zm289.88 35.74l-286.95 0 0 -38.1 286.95 0 0 0 0 38.1zm286.95 0l-286.95 0 0 -38.1 286.95 0 2.93 2.35 -2.93 35.74zm0 -38.1l1.56 0 1.37 2.35 -2.93 -2.35zm140.54 281.98l-143.47 -246.24 5.86 -33.39 143.47 246.24 0 0 -5.86 33.39zm143.47 246.25l-143.47 -246.25 5.86 -33.39 143.47 246.25 0 33.39 -5.86 0zm5.86 -33.39l9.73 16.69 -9.73 16.69 0 -33.39zm-149.34 246.25l143.47 -246.25 5.86 33.39 -143.47 246.25 0 0 -5.86 -33.39zm-143.47 246.24l143.47 -246.24 5.86 33.39 -143.47 246.24 -2.93 2.35 -2.93 -35.74zm5.86 33.39l-1.37 2.35 -1.56 0 2.93 -2.35zm-289.88 -35.74l286.95 0 0 38.1 -286.95 0 0 0 0 -38.1zm-286.95 0l286.95 0 0 38.1 -286.95 0 -2.93 -2.35 2.93 -35.74zm0 38.1l-1.56 0 -1.37 -2.35 2.93 2.35zm-140.54 -281.98l143.47 246.24 -5.86 33.39 -143.47 -246.24 0 0 5.86 -33.39zm-143.47 -246.25l143.47 246.25 -5.86 33.39 -143.47 -246.25 0 -33.39 5.86 0zm-5.86 33.39l-9.73 -16.69 9.73 -16.69 0 33.39z"/>
   </g>
   <g>
    <polygon class="fil1" points="2293.06,5783.53 2436.53,5537.29 2580.01,5291.05 2866.95,5291.05 3153.9,5291.05 3297.37,5537.29 3440.84,5783.54 3297.37,6029.78 3153.9,6276.02 2866.95,6276.02 2580.01,6276.02 2436.53,6029.78 "/>
    <path id="1" class="fil0" d="M2439.46 5553.98l-143.47 246.25 -5.86 -33.39 143.47 -246.25 0 0 5.86 33.39zm143.47 -246.24l-143.47 246.24 -5.86 -33.39 143.47 -246.24 2.93 -2.35 2.93 35.74zm-5.86 -33.39l1.37 -2.35 1.56 0 -2.93 2.35zm289.88 35.74l-286.95 0 0 -38.1 286.95 0 0 0 0 38.1zm286.95 0l-286.95 0 0 -38.1 286.95 0 2.93 2.35 -2.93 35.74zm0 -38.1l1.56 0 1.37 2.35 -2.93 -2.35zm140.54 281.98l-143.47 -246.24 5.86 -33.39 143.47 246.24 0 0 -5.86 33.39zm143.47 246.25l-143.47 -246.25 5.86 -33.39 143.47 246.25 0 33.39 -5.86 0zm5.86 -33.39l9.73 16.69 -9.73 16.69 0 -33.39zm-149.34 246.24l143.47 -246.24 5.86 33.39 -143.47 246.24 0 0 -5.86 -33.39zm-143.47 246.24l143.47 -246.24 5.86 33.39 -143.47 246.24 -2.93 2.35 -2.93 -35.74zm5.86 33.39l-1.37 2.35 -1.56 0 2.93 -2.35zm-289.88 -35.74l286.95 0 0 38.1 -286.95 0 0 0 0 -38.1zm-286.95 0l286.95 0 0 38.1 -286.95 0 -2.93 -2.35 2.93 -35.74zm0 38.1l-1.56 0 -1.37 -2.35 2.93 2.35zm-140.54 -281.98l143.47 246.24 -5.86 33.39 -143.47 -246.24 0 0 5.86 -33.39zm-143.47 -246.25l143.47 246.25 -5.86 33.39 -143.47 -246.25 0 -33.39 5.86 0zm-5.86 33.39l-9.73 -16.69 9.73 -16.69 0 33.39z"/>
   </g>
   <g>
    <polygon class="fil1" points="6590.9,1334.66 6734.38,1088.42 6877.85,842.18 7164.8,842.18 7451.74,842.18 7595.22,1088.42 7738.69,1334.66 7595.22,1580.91 7451.74,1827.15 7164.8,1827.15 6877.85,1827.15 6734.38,1580.91 "/>
    <path id="1" class="fil0" d="M6737.31 1105.11l-143.47 246.25 -5.86 -33.39 143.47 -246.25 0 0 5.86 33.39zm143.47 -246.24l-143.47 246.24 -5.86 -33.39 143.47 -246.24 2.93 -2.35 2.93 35.74zm-5.86 -33.39l1.37 -2.35 1.56 0 -2.93 2.35zm289.88 35.74l-286.95 0 0 -38.1 286.95 0 0 0 0 38.1zm286.95 0l-286.95 0 0 -38.1 286.95 0 2.93 2.35 -2.93 35.74zm0 -38.1l1.56 0 1.37 2.35 -2.93 -2.35zm140.54 281.98l-143.47 -246.24 5.86 -33.39 143.47 246.24 0 0 -5.86 33.39zm143.47 246.25l-143.47 -246.25 5.86 -33.39 143.47 246.25 0 33.39 -5.86 0zm5.86 -33.39l9.73 16.69 -9.73 16.69 0 -33.39zm-149.34 246.25l143.47 -246.25 5.86 33.39 -143.47 246.25 0 0 -5.86 -33.39zm-143.47 246.24l143.47 -246.24 5.86 33.39 -143.47 246.24 -2.93 2.35 -2.93 -35.74zm5.86 33.39l-1.37 2.35 -1.56 0 2.93 -2.35zm-289.87 -35.74l286.94 0 0 38.1 -286.94 0 0 0 0 -38.1zm-286.95 0l286.95 0 0 38.1 -286.95 0 -2.93 -2.35 2.93 -35.74zm0 38.1l-1.56 0 -1.37 -2.35 2.93 2.35zm-140.54 -281.98l143.47 246.24 -5.86 33.39 -143.47 -246.24 0 0 5.86 -33.39zm-143.47 -246.25l143.47 246.25 -5.86 33.39 -143.47 -246.25 0 -33.39 5.86 0zm-5.86 33.39l-9.73 -16.69 9.73 -16.69 0 33.39z"/>
   </g>
   <g>
    <polygon class="fil1" points="551.73,6785.14 695.21,6538.89 838.68,6292.65 1125.63,6292.65 1412.57,6292.65 1556.05,6538.89 1699.52,6785.14 1556.05,7031.38 1412.57,7277.62 1125.63,7277.62 838.68,7277.62 695.21,7031.38 "/>
    <path id="1" class="fil0" d="M698.14 6555.59l-143.47 246.25 -5.86 -33.39 143.47 -246.25 0 0 5.86 33.39zm143.47 -246.24l-143.47 246.24 -5.86 -33.39 143.47 -246.24 2.93 -2.35 2.93 35.74zm-5.86 -33.39l1.37 -2.35 1.56 0 -2.93 2.35zm289.88 35.74l-286.95 0 0 -38.1 286.95 0 0 0 0 38.1zm286.95 0l-286.95 0 0 -38.1 286.95 0 2.93 2.35 -2.93 35.74zm0 -38.1l1.56 0 1.37 2.35 -2.93 -2.35zm140.54 281.98l-143.47 -246.24 5.86 -33.39 143.47 246.24 0 0 -5.86 33.39zm143.47 246.25l-143.47 -246.25 5.86 -33.39 143.47 246.25 0 33.39 -5.86 0zm5.86 -33.39l9.73 16.69 -9.73 16.69 0 -33.39zm-149.34 246.25l143.47 -246.25 5.86 33.39 -143.47 246.25 0 0 -5.86 -33.39zm-143.47 246.24l143.47 -246.24 5.86 33.39 -143.47 246.24 -2.93 2.35 -2.93 -35.74zm5.86 33.39l-1.37 2.35 -1.56 0 2.93 -2.35zm-289.88 -35.74l286.95 0 0 38.1 -286.95 0 0 0 0 -38.1zm-286.95 0l286.95 0 0 38.1 -286.95 0 -2.93 -2.35 2.93 -35.74zm0 38.1l-1.56 0 -1.37 -2.35 2.93 2.35zm-140.54 -281.98l143.47 246.24 -5.86 33.39 -143.47 -246.24 0 0 5.86 -33.39zm-143.47 -246.25l143.47 246.25 -5.86 33.39 -143.47 -246.25 0 -33.39 5.86 0zm-5.86 33.39l-9.73 -16.69 9.73 -16.69 0 33.39z"/>
   </g>
   <polygon class="fil1" points="2295.58,3787.12 2439.05,3540.88 2582.52,3294.64 2869.47,3294.64 3156.41,3294.64 3299.89,3540.88 3443.36,3787.12 3299.89,4033.37 3156.41,4279.61 2869.47,4279.61 2582.52,4279.61 2439.05,4033.37 "/>
   <g style="clip-path:url(#id0)">
   </g>
   <g>
    <path id="1" class="fil0" d="M2441.98 3557.57l-143.47 246.25 -5.86 -33.39 143.47 -246.25 0 0 5.86 33.39zm143.47 -246.24l-143.47 246.24 -5.86 -33.39 143.47 -246.24 2.93 -2.35 2.93 35.74zm-5.86 -33.39l1.37 -2.35 1.56 0 -2.93 2.35zm289.88 35.74l-286.95 0 0 -38.1 286.95 0 0 0 0 38.1zm286.95 0l-286.95 0 0 -38.1 286.95 0 2.93 2.35 -2.93 35.74zm0 -38.1l1.56 0 1.37 2.35 -2.93 -2.35zm140.54 281.98l-143.47 -246.24 5.86 -33.39 143.47 246.24 0 0 -5.86 33.39zm143.47 246.25l-143.47 -246.25 5.86 -33.39 143.47 246.25 0 33.39 -5.86 0zm5.86 -33.39l9.73 16.69 -9.73 16.69 0 -33.39zm-149.34 246.25l143.47 -246.25 5.86 33.39 -143.47 246.25 0 0 -5.86 -33.39zm-143.47 246.24l143.47 -246.24 5.86 33.39 -143.47 246.24 -2.93 2.35 -2.93 -35.74zm5.86 33.39l-1.37 2.35 -1.56 0 2.93 -2.35zm-289.88 -35.74l286.95 0 0 38.1 -286.95 0 0 0 0 -38.1zm-286.95 0l286.95 0 0 38.1 -286.95 0 -2.93 -2.35 2.93 -35.74zm0 38.1l-1.56 0 -1.37 -2.35 2.93 2.35zm-140.54 -281.98l143.47 246.24 -5.86 33.39 -143.47 -246.24 0 0 5.86 -33.39zm-143.47 -246.25l143.47 246.25 -5.86 33.39 -143.47 -246.25 0 -33.39 5.86 0zm-5.86 33.39l-9.73 -16.69 9.73 -16.69 0 33.39z"/>
   </g>
   <g style="clip-path:url(#id1)">
    <path id="2" class="fil2 str0" d="M2295.58 3294.64l1147.79 984.97m0 -984.97l-1147.79 984.97"/>
   </g>
   <g>
    <polygon class="fil1" points="6610.15,7278.25 6753.62,7032.01 6897.09,6785.77 7184.04,6785.77 7470.99,6785.77 7614.46,7032.01 7757.93,7278.25 7614.46,7524.5 7470.99,7770.74 7184.04,7770.74 6897.09,7770.74 6753.62,7524.5 "/>
    <path id="1" class="fil0" d="M6756.55 7048.7l-143.47 246.25 -5.86 -33.39 143.47 -246.25 0 0 5.86 33.39zm143.47 -246.24l-143.47 246.24 -5.86 -33.39 143.47 -246.24 2.93 -2.35 2.93 35.74zm-5.86 -33.39l1.37 -2.35 1.56 0 -2.93 2.35zm289.88 35.74l-286.95 0 0 -38.1 286.95 0 0 0 0 38.1zm286.95 0l-286.95 0 0 -38.1 286.95 0 2.93 2.35 -2.93 35.74zm0 -38.1l1.56 0 1.37 2.35 -2.93 -2.35zm140.54 281.98l-143.47 -246.24 5.86 -33.39 143.47 246.24 0 0 -5.86 33.39zm143.47 246.25l-143.47 -246.25 5.86 -33.39 143.47 246.25 0 33.39 -5.86 0zm5.86 -33.39l9.73 16.69 -9.73 16.69 0 -33.39zm-149.34 246.25l143.47 -246.25 5.86 33.39 -143.47 246.25 0 0 -5.86 -33.39zm-143.47 246.24l143.47 -246.24 5.86 33.39 -143.47 246.24 -2.93 2.35 -2.93 -35.74zm5.86 33.39l-1.37 2.35 -1.56 0 2.93 -2.35zm-289.88 -35.74l286.95 0 0 38.1 -286.95 0 0 0 0 -38.1zm-286.95 0l286.95 0 0 38.1 -286.95 0 -2.93 -2.35 2.93 -35.74zm0 38.1l-1.56 0 -1.37 -2.35 2.93 2.35zm-140.54 -281.98l143.47 246.24 -5.86 33.39 -143.47 -246.24 0 0 5.86 -33.39zm-143.47 -246.25l143.47 246.25 -5.86 33.39 -143.47 -246.25 0 -33.39 5.86 0zm-5.86 33.39l-9.73 -16.69 9.73 -16.69 0 33.39z"/>
   </g>
  </g>
 </g>
</svg>
