<?xml version="1.0" encoding="UTF-8"?>
<!DOCTYPE svg PUBLIC "-//W3C//DTD SVG 1.1//EN" "http://www.w3.org/Graphics/SVG/1.1/DTD/svg11.dtd">
<!-- Creator: CorelDRAW 2019 (64-Bit) -->
<svg xmlns="http://www.w3.org/2000/svg" xml:space="preserve" width="92.7129mm" height="250.172mm" version="1.1" style="shape-rendering:geometricPrecision; text-rendering:geometricPrecision; image-rendering:optimizeQuality; fill-rule:evenodd; clip-rule:evenodd"
viewBox="0 0 2942.7 7940.42"
 xmlns:xlink="http://www.w3.org/1999/xlink"
 xmlns:xodm="http://www.corel.com/coreldraw/odm/2003">
 <defs>
  <style type="text/css">
   <![CDATA[
    .str0 {stroke:#C9C9C9;stroke-width:22.4;stroke-miterlimit:2.61313}
    .fil5 {fill:none}
    .fil4 {fill:white}
    .fil1 {fill:#C9C9C9}
    .fil3 {fill:#A71433;fill-rule:nonzero}
    .fil0 {fill:#C9C9C9;fill-rule:nonzero}
    .fil2 {fill:#003B6F;fill-rule:nonzero}
   ]]>
  </style>
 </defs>
 <g id="Layer_x0020_1">
  <metadata id="CorelCorpID_0Corel-Layer"/>
  <g id="_1625312407520">
   <g>
    <path class="fil0" d="M648.21 46.74c0,-14.62 3.85,-26.07 11.54,-34.34 7.69,-8.27 17.6,-12.4 29.77,-12.4 7.97,0 15.14,1.95 21.54,5.83 6.38,3.88 11.26,9.3 14.61,16.26 3.36,6.94 5.04,14.82 5.04,23.63 0,8.93 -1.76,16.94 -5.3,23.98 -3.53,7.06 -8.53,12.4 -14.99,16.01 -6.48,3.63 -13.47,5.44 -20.96,5.44 -8.13,0 -15.37,-2.01 -21.78,-6.01 -6.38,-4.01 -11.24,-9.46 -14.53,-16.4 -3.29,-6.92 -4.94,-14.25 -4.94,-21.99zm11.8 0.21c0,10.61 2.79,18.97 8.37,25.07 5.58,6.1 12.58,9.15 21.01,9.15 8.59,0 15.64,-3.08 21.2,-9.24 5.54,-6.16 8.31,-14.91 8.31,-26.24 0,-7.16 -1.19,-13.43 -3.55,-18.76 -2.37,-5.34 -5.84,-9.48 -10.39,-12.42 -4.58,-2.94 -9.7,-4.42 -15.38,-4.42 -8.07,0 -15.01,2.83 -20.84,8.5 -5.82,5.67 -8.73,15.11 -8.73,28.35z"/>
    <polygon id="1" class="fil0" points="745.26,89.67 745.26,1.48 756.98,1.48 802.23,70.7 802.23,1.48 813.19,1.48 813.19,89.67 801.47,89.67 756.22,20.45 756.22,89.67 "/>
    <path class="fil0" d="M614.28 1321.07c0,-14.62 3.91,-26.07 11.71,-34.34 7.8,-8.27 17.86,-12.4 30.2,-12.4 8.09,0 15.36,1.95 21.85,5.83 6.48,3.88 11.42,9.3 14.82,16.26 3.41,6.94 5.12,14.82 5.12,23.63 0,8.93 -1.79,16.94 -5.38,23.98 -3.58,7.06 -8.65,12.4 -15.21,16.01 -6.58,3.63 -13.67,5.44 -21.26,5.44 -8.25,0 -15.6,-2.01 -22.1,-6.01 -6.47,-4.01 -11.41,-9.46 -14.74,-16.4 -3.34,-6.92 -5.01,-14.25 -5.01,-21.99zm11.97 0.21c0,10.61 2.83,18.97 8.49,25.07 5.66,6.1 12.77,9.15 21.32,9.15 8.72,0 15.87,-3.08 21.5,-9.24 5.62,-6.16 8.43,-14.91 8.43,-26.24 0,-7.16 -1.2,-13.43 -3.61,-18.76 -2.4,-5.34 -5.93,-9.48 -10.55,-12.42 -4.65,-2.94 -9.84,-4.42 -15.6,-4.42 -8.19,0 -15.23,2.83 -21.14,8.5 -5.91,5.67 -8.86,15.11 -8.86,28.35z"/>
    <polygon id="1" class="fil0" points="713.47,1363.99 713.47,1275.8 772.49,1275.8 772.49,1286.15 725.08,1286.15 725.08,1313.62 766.13,1313.62 766.13,1323.96 725.08,1323.96 725.08,1363.99 "/>
    <polygon id="2" class="fil0" points="788.11,1363.99 788.11,1275.8 847.12,1275.8 847.12,1286.15 799.72,1286.15 799.72,1313.62 840.77,1313.62 840.77,1323.96 799.72,1323.96 799.72,1363.99 "/>
   </g>
   <g>
    <g>
     <polygon class="fil1 str0" points="118.84,2940.27 203.18,2795.52 287.52,2650.77 456.2,2650.77 624.88,2650.77 709.22,2795.52 793.56,2940.27 709.22,3085.03 624.88,3229.78 456.2,3229.78 287.52,3229.77 203.18,3085.03 "/>
     <polygon class="fil1 str0" points="622.34,2651.57 706.68,2506.82 791.02,2362.07 959.7,2362.07 1128.38,2362.07 1212.72,2506.82 1297.05,2651.57 1212.72,2796.33 1128.38,2941.08 959.7,2941.08 791.02,2941.08 706.68,2796.33 "/>
     <polygon class="fil1 str0" points="115.64,2360.45 199.98,2215.7 284.32,2070.95 453,2070.95 621.67,2070.95 706.01,2215.7 790.35,2360.45 706.01,2505.2 621.67,2649.95 453,2649.95 284.32,2649.95 199.98,2505.2 "/>
     <polygon class="fil1 str0" points="1126.18,2945.5 1210.52,2800.75 1294.86,2656 1463.54,2656 1632.22,2656 1716.55,2800.75 1800.89,2945.5 1716.55,3090.25 1632.22,3235 1463.54,3235 1294.86,3235 1210.52,3090.25 "/>
     <polygon class="fil1 str0" points="622.31,2069.32 706.65,1924.57 790.99,1779.82 959.67,1779.82 1128.34,1779.82 1212.68,1924.57 1297.02,2069.32 1212.68,2214.08 1128.34,2358.83 959.67,2358.83 790.99,2358.83 706.65,2214.08 "/>
     <polygon class="fil1 str0" points="1131.78,2363.25 1216.12,2218.5 1300.46,2073.75 1469.14,2073.75 1637.81,2073.75 1722.15,2218.5 1806.49,2363.25 1722.15,2508 1637.81,2652.75 1469.14,2652.75 1300.46,2652.75 1216.12,2508 "/>
     <polygon class="fil1 str0" points="1634.25,2661.38 1718.59,2516.62 1802.93,2371.87 1971.61,2371.87 2140.29,2371.88 2224.62,2516.62 2308.96,2661.38 2224.62,2806.13 2140.29,2950.88 1971.61,2950.88 1802.93,2950.88 1718.59,2806.13 "/>
     <polygon class="fil1 str0" points="1633.55,2084.02 1717.89,1939.27 1802.23,1794.52 1970.91,1794.52 2139.59,1794.52 2223.93,1939.27 2308.27,2084.02 2223.93,2228.78 2139.59,2373.53 1970.91,2373.53 1802.23,2373.53 1717.89,2228.78 "/>
     <polygon class="fil1 str0" points="2140.22,2377.95 2224.56,2233.19 2308.9,2088.44 2477.58,2088.44 2646.26,2088.44 2730.6,2233.19 2814.94,2377.95 2730.6,2522.7 2646.26,2667.45 2477.58,2667.45 2308.9,2667.45 2224.56,2522.7 "/>
     <polygon class="fil1 str0" points="2134.62,2954.6 2218.96,2809.85 2303.3,2665.1 2471.98,2665.1 2640.66,2665.1 2725,2809.85 2809.34,2954.6 2725,3099.35 2640.66,3244.1 2471.98,3244.1 2303.3,3244.1 2218.96,3099.35 "/>
    </g>
    <g>
     <g>
      <path class="fil2" d="M419.73 2584.7c-1.23,-23.29 -2.83,-42.29 -4.82,-57 30.03,13.64 57.31,20.46 81.82,20.46 9.8,0 18.96,-1.5 27.47,-4.48 8.5,-2.99 14.78,-7.2 18.85,-12.64 4.06,-5.44 6.09,-11.53 6.09,-18.27 0,-5.21 -0.98,-9.88 -2.93,-14.02 -2.93,-5.67 -7.81,-11.57 -14.64,-17.7 -8.76,-8.43 -24.38,-22.3 -46.88,-41.6 -10.72,-9.35 -18.12,-16.01 -22.19,-20 -9.2,-8.73 -16.24,-16.59 -21.15,-23.56 -4.91,-6.97 -8.43,-13.91 -10.58,-20.8 -2.15,-6.9 -3.22,-14.25 -3.22,-22.07 0,-14.4 4.02,-27.92 12.07,-40.57 8.05,-12.64 20.07,-22.53 36.09,-29.65 16.01,-7.13 36.2,-10.69 60.56,-10.69 21.91,0 46.58,2.68 74.01,8.05 0.76,15.94 2.3,34.17 4.6,54.7 -23.86,-9.19 -45.88,-13.79 -66.07,-13.79 -14.99,0 -27.26,3.41 -36.82,10.23 -9.56,6.82 -14.34,14.75 -14.34,23.79 0,2.45 0.33,5.02 1,7.7 0.67,2.68 1.67,5.28 3,7.81 1.33,2.53 3.71,5.82 7.12,9.88 3.42,4.06 8.41,8.81 15,14.25 6.58,5.44 12.2,9.85 16.87,13.22l28.36 25.74c7.19,5.98 13.61,11.8 19.27,17.47 5.66,5.67 10.52,11.11 14.57,16.32 4.05,5.21 7.23,10.19 9.52,14.94 2.29,4.75 4.02,9.62 5.17,14.6 1.14,4.98 1.72,10.23 1.72,15.74 0,12.87 -2.99,25.01 -8.96,36.43 -5.98,11.42 -14.56,20.8 -25.74,28.16 -11.19,7.35 -23.45,12.45 -36.78,15.28 -13.33,2.84 -27.43,4.26 -42.29,4.26 -9.81,0 -21.22,-0.84 -34.25,-2.53 -13.02,-1.69 -30.19,-4.9 -51.49,-9.65z"/>
      <path class="fil2" d="M636.25 2696.86c-2.76,-22.98 -4.98,-39.53 -6.67,-49.64 14.71,6.89 28.58,10.34 41.61,10.34 3.98,0 8.04,-0.5 12.18,-1.49 4.14,-1 7.97,-2.42 11.5,-4.25 2.3,-1.23 4.63,-2.98 7.01,-5.28 2.37,-2.3 5.63,-6.51 9.77,-12.62 4.14,-6.12 7.74,-12.17 10.81,-18.14 2.44,-5.12 4.96,-11.56 7.56,-19.3l-47.8 -139.74 -34.94 -99.13c16.08,0.31 27.65,0.46 34.7,0.46 8.12,0 18.77,-0.15 31.94,-0.46 3.22,12.72 6.21,23.76 8.97,33.1l21.86 72.18c6.74,22.22 11.58,38.93 14.49,50.11 1.84,7.35 3.99,17.09 6.44,29.19 4.59,-13.94 8.57,-25.29 11.94,-34.02 5.97,-15.94 14.31,-37.24 25.02,-63.91l22.27 -54.94c3.98,-9.8 8.03,-20.38 12.17,-31.72 13.8,0.31 24.3,0.46 31.51,0.46 6.59,0 17.63,-0.15 33.12,-0.46l-88.49 198.22 -38.38 87.51c-5.36,11.33 -10.5,20.14 -15.4,26.41 -3.99,5.36 -8.35,9.96 -13.1,13.78 -4.6,3.68 -9.5,6.74 -14.71,9.19 -6.59,3.06 -13.71,5.51 -21.38,7.35 -8.73,1.84 -17.55,2.76 -26.43,2.76 -5.06,0 -12.11,-0.46 -21.15,-1.38 -9.04,-0.92 -17.85,-2.45 -26.43,-4.6z"/>
      <path class="fil2" d="M917.11 2591.37c3.5,-34.78 6.43,-73.86 8.8,-117.22 2.36,-43.36 3.69,-82.2 4,-116.53 14.11,0.31 25.39,0.46 33.83,0.46 9.97,0 20.55,-0.15 31.75,-0.46l-2.56 39.07c4.75,-6.74 8.92,-12.11 12.53,-16.09 3.6,-3.98 8.2,-7.89 13.79,-11.72 5.6,-3.83 11.57,-6.9 17.93,-9.2 6.35,-2.3 13.48,-4.14 21.37,-5.52 7.89,-1.38 16.13,-2.07 24.72,-2.07 13.64,0 26.7,1.73 39.2,5.17 12.49,3.45 22.56,8.93 30.23,16.43 7.67,7.51 12.72,15.71 15.17,24.59 2.45,8.89 3.68,18.31 3.68,28.27 0,4.14 -0.23,10.72 -0.69,19.76l-4.75 100.44c-0.6,13.94 -0.98,28.8 -1.13,44.59 -12.12,-0.31 -22.48,-0.46 -31.07,-0.46 -11.66,0 -23.4,0.15 -35.22,0.46 1.23,-13.33 2.77,-36.58 4.61,-69.76 1.85,-33.17 2.77,-55.12 2.77,-65.85 0,-12.1 -1.91,-21.83 -5.74,-29.19 -3.83,-7.36 -9.76,-12.95 -17.8,-16.78 -8.04,-3.83 -16.73,-5.74 -26.06,-5.74 -9.19,0 -17.76,1.76 -25.72,5.29 -7.96,3.52 -14.85,8.66 -20.67,15.4 -6.13,6.9 -10.87,15.4 -14.24,25.51 -3.52,10.73 -6.13,28.43 -7.8,53.09 -1.55,21.91 -2.78,51.26 -3.7,88.03 -11.82,-0.31 -22.49,-0.46 -32,-0.46 -9.67,0 -21.41,0.15 -35.22,0.46z"/>
     </g>
     <g>
      <path class="fil3" d="M1224.41 2591.37l6.19 -79.99 4.58 -99.98 2.98 -99.52c0.15,-4.29 0.23,-15.7 0.23,-34.25 17.01,0.31 33.03,0.46 48.04,0.46 11.19,0 25.94,-0.23 44.25,-0.69 18.32,-0.46 34.14,-0.69 47.47,-0.69 18.08,0 34.83,1.08 50.23,3.22 15.4,2.15 28.85,6.17 40.34,12.07 11.49,5.9 21.46,13.29 29.88,22.18 8.43,8.89 15.33,18.73 20.69,29.53 5.36,10.8 9.46,22.83 12.3,36.09 2.83,13.25 4.25,26.78 4.25,40.57 0,26.36 -4.56,51.45 -13.67,75.27 -9.12,23.83 -22.72,43.52 -40.8,59.07 -18.08,15.56 -38.11,25.55 -60.1,30 -21.99,4.44 -46.93,6.67 -74.81,6.67l-78.15 -0.46c-4.9,0 -19.54,0.15 -43.9,0.46zm70.52 -48.96l0 0c12.56,0.61 24.98,0.92 37.24,0.92 13.95,0 26.86,-0.69 38.74,-2.07 11.88,-1.38 22.11,-3.56 30.7,-6.55 8.58,-2.99 17.2,-8.23 25.86,-15.74 8.66,-7.51 15.75,-16.2 21.27,-26.09 5.52,-9.88 9.73,-20.88 12.65,-32.98 2.92,-12.11 4.37,-24.44 4.37,-37.01 0,-22.99 -3.91,-41.87 -11.72,-56.66 -7.81,-14.79 -18.12,-25.43 -30.91,-31.95 -12.79,-6.51 -32.52,-9.77 -59.19,-9.77 -17.31,0 -37.16,0.31 -59.53,0.92l-9.47 216.97z"/>
      <path class="fil3" d="M1593.07 2408.87c2.15,-11.03 3.49,-18.77 4.02,-23.21 0.53,-4.44 1.49,-11.19 2.87,-20.23 20.84,-4.9 39.22,-8.35 55.16,-10.34 15.93,-1.99 31.33,-2.99 46.2,-2.99 16.85,0 32.33,1.96 46.43,5.86 14.1,3.91 25.13,10.15 33.1,18.73 7.97,8.58 11.95,20.91 11.95,37 0,8.73 -1.22,30.99 -3.66,66.77 -2.43,35.78 -3.88,72.74 -4.34,110.9 -11.65,-0.31 -22.39,-0.46 -32.2,-0.46 -9.36,0 -20.32,0.15 -32.9,0.46 2.01,-18.54 3.64,-39.99 4.88,-64.36l3.02 -57.23c-5.83,3.83 -10.28,6.51 -13.34,8.04 -3.07,1.53 -6.52,2.95 -10.35,4.25 -3.84,1.3 -10.59,3.29 -20.24,5.97 -9.66,2.68 -17.41,5.02 -23.23,7.01 -5.83,1.99 -11.08,4.25 -15.76,6.78 -4.68,2.53 -8.63,5.36 -11.85,8.5 -3.22,3.14 -5.56,6.44 -7.02,9.88 -1.46,3.45 -2.18,7.17 -2.18,11.15 0,6.44 1.88,11.99 5.63,16.66 3.75,4.68 8.46,7.93 14.13,9.77 5.67,1.84 12.33,2.76 20,2.76 4.9,0 10.07,-0.39 15.51,-1.15 5.44,-0.76 12.76,-2.68 21.95,-5.74 -3.22,8.73 -6.97,21.76 -11.26,39.07 -10.88,1.84 -19.54,2.99 -25.97,3.45 -6.44,0.46 -12.41,0.69 -17.93,0.69 -19.3,0 -35.16,-2.61 -47.57,-7.81 -12.41,-5.21 -21.57,-13.49 -27.47,-24.82 -5.9,-11.34 -8.85,-22.75 -8.85,-34.25 0,-6.59 1.15,-13.1 3.45,-19.54 2.3,-6.44 5.68,-12.33 10.12,-17.7 4.45,-5.36 10.2,-10.53 17.25,-15.51 7.05,-4.98 17.25,-9.8 30.59,-14.48 13.34,-4.67 30.97,-9.39 52.9,-14.14 5.82,-1.23 11.88,-2.72 18.16,-4.48 6.28,-1.76 11.31,-3.49 15.07,-5.17 3.75,-1.69 7.01,-3.87 9.77,-6.55 2.76,-2.68 4.79,-5.48 6.1,-8.39 1.3,-2.91 1.96,-5.9 1.96,-8.96 0,-5.98 -1.96,-11.03 -5.87,-15.17 -3.91,-4.14 -8.97,-7.01 -15.18,-8.62 -6.21,-1.61 -13.08,-2.42 -20.59,-2.42 -27.91,0 -58.73,6.67 -92.47,20z"/>
      <path class="fil3" d="M1905.05 2591.37c-10.12,-32.33 -37.35,-110.25 -81.67,-233.75 13.5,0.31 25.16,0.46 34.97,0.46 10.43,0 21.08,-0.15 31.98,-0.46l53.77 175.51 7.37 -20.01 51.81 -131.35c2.45,-6.14 5.53,-14.18 9.21,-24.15 12.53,0.31 23.68,0.46 33.47,0.46 9.93,0 21.24,-0.15 33.92,-0.46l-37.43 81.13 -54.2 122.97 -12.17 29.65c-13.79,-0.31 -25.36,-0.46 -34.71,-0.46 -9.81,0 -21.91,0.15 -36.32,0.46z"/>
      <path class="fil3" d="M2304.67 2539.19c-1.99,9.04 -4.83,25.28 -8.5,48.73 -16.55,3.52 -30.5,5.89 -41.83,7.13 -11.34,1.22 -22.75,1.84 -34.24,1.84 -20.08,0 -38.04,-1.99 -53.9,-5.97 -15.86,-3.98 -29.77,-11.29 -41.72,-21.93 -11.95,-10.64 -20.76,-23.69 -26.43,-39.15 -5.67,-15.46 -8.5,-31.69 -8.5,-48.68 0,-18.83 3.29,-37.08 9.88,-54.76 6.59,-17.68 15.82,-32.15 27.7,-43.4 11.87,-11.25 25.4,-19.21 40.57,-23.88 15.17,-4.67 31.03,-7 47.58,-7 15.63,0 30.49,1.95 44.59,5.85 14.1,3.9 25.93,10.29 35.51,19.16 9.58,8.87 16.93,19.54 22.07,32 5.13,12.47 7.7,26.35 7.7,41.64 0,7.19 -0.77,14.6 -2.3,22.25l-168.48 0.23c-0.31,5.67 -0.46,10.19 -0.46,13.56 0,10.27 1.76,19.69 5.29,28.27 3.52,8.58 8.66,15.86 15.4,21.83 6.74,5.98 14.78,10.38 24.13,13.21 9.34,2.84 18.54,4.26 27.58,4.26 10.57,0 22.02,-1.15 34.36,-3.45 12.33,-2.3 27.01,-6.21 44.01,-11.72zm-148.48 -92.86l0 0 107.56 0.23c0,-7.33 -0.23,-12.74 -0.69,-16.25 -0.46,-3.51 -1.49,-7.52 -3.1,-12.02 -1.61,-4.5 -3.79,-8.47 -6.55,-11.9 -2.76,-3.43 -5.98,-6.29 -9.66,-8.58 -3.68,-2.29 -7.93,-4.04 -12.76,-5.27 -4.82,-1.22 -10,-1.83 -15.51,-1.83 -6.44,0 -12.68,0.99 -18.73,2.98 -6.06,1.98 -11.61,4.88 -16.66,8.7 -5.06,3.81 -9.16,8.08 -12.3,12.81 -3.14,4.74 -5.48,9.27 -7.01,13.63 -1.54,4.35 -3.07,10.18 -4.6,17.5z"/>
      <path class="fil3" d="M2359.6 2591.37l6.66 -109.18 1.83 -63.44c0.3,-13.02 0.46,-26.13 0.46,-39.3 0,-2.3 -0.16,-9.58 -0.46,-21.84 14.25,0.31 24.75,0.46 31.49,0.46 7.81,0 18.16,-0.15 31.04,-0.46l-1.15 32.41c5.82,-8.27 10.8,-14.44 14.94,-18.5 4.14,-4.06 8.77,-7.54 13.91,-10.46 5.13,-2.91 10.84,-5.13 17.12,-6.67 6.28,-1.53 12.72,-2.3 19.31,-2.3 6.13,0 12.41,0.77 18.85,2.3 0,14.25 0.69,32.33 2.07,54.24 -9.04,-2.45 -17.24,-3.68 -24.6,-3.68 -8.89,0 -16.74,1.34 -23.56,4.02 -6.82,2.68 -12.95,6.74 -18.39,12.18 -5.44,5.44 -9.93,12.14 -13.45,20.11 -2.91,6.44 -5.06,14.79 -6.43,25.05 -1.2,7.97 -2.2,21.61 -3.02,40.91 -0.83,19.31 -1.24,38.31 -1.24,57 0,7.2 0.23,16.24 0.69,27.12 -11.66,-0.31 -22.33,-0.46 -31.99,-0.46 -9.51,0 -20.87,0.15 -34.07,0.46z"/>
     </g>
     <g>
      <path class="fil2" d="M1284.49 2704.36c-0.93,-1.83 -2.08,-3.51 -3.42,-4.99 -1.34,-1.47 -2.87,-2.77 -4.57,-3.87 -1.66,-1.07 -3.34,-1.97 -4.99,-2.67 -0.98,-0.42 -2.16,-0.87 -3.52,-1.33 1.43,-0.65 2.68,-1.28 3.72,-1.88 1.71,-0.98 3.49,-2.34 5.3,-4.03 1.83,-1.72 3.43,-3.71 4.77,-5.91 1.36,-2.23 2.36,-4.61 2.99,-7.08 0.62,-2.45 0.93,-5.03 0.93,-7.67 0,-3.18 -0.48,-6.27 -1.42,-9.19 -0.96,-2.95 -2.39,-5.54 -4.26,-7.68 -1.85,-2.13 -4,-3.85 -6.39,-5.11 -2.36,-1.25 -5.01,-2.13 -7.85,-2.62 -2.79,-0.48 -6.94,-0.72 -12.36,-0.72l-16.94 0.08 -17.37 -0.08 0.09 7.59c0,2.44 -0.03,4.94 -0.08,7.46l-2.27 67.02 -1.72 26.97 13.59 -0.09 18.92 0.08c5.36,0 10.33,-0.4 14.78,-1.19 4.55,-0.81 8.88,-2.63 12.89,-5.43 4.03,-2.81 7.1,-6.34 9.14,-10.49 2.03,-4.13 3.05,-8.76 3.05,-13.77 0,-2.47 -0.27,-4.89 -0.81,-7.18 -0.54,-2.3 -1.28,-4.39 -2.21,-6.21zm-58 -15.84l0 0 1.51 -41.8 25.82 0c5.34,0 9.29,0.35 11.75,1.05 2.4,0.68 4.54,1.81 6.36,3.36 1.81,1.56 3.2,3.42 4.14,5.57 0.95,2.15 1.43,4.69 1.43,7.55 0,2.98 -0.5,5.89 -1.49,8.64 -0.99,2.75 -2.37,5.17 -4.09,7.2 -1.72,2.02 -3.6,3.59 -5.58,4.64 -3.05,1.55 -6.3,2.62 -9.65,3.17 -2.63,0.41 -8.02,0.61 -16.01,0.61l-14.18 0zm52.8 28.68l0 0c0,3.87 -0.84,7.6 -2.5,11.1 -1.65,3.46 -3.86,6.11 -6.58,7.88 -2.8,1.83 -5.79,3.15 -8.88,3.95 -3.13,0.81 -8.26,1.22 -15.27,1.22l-21.47 0 1.56 -45.55 24.28 0c4.41,0 8.26,0.29 11.45,0.84 3.11,0.55 6.06,1.76 8.77,3.61 2.7,1.83 4.83,4.21 6.35,7.08 1.52,2.86 2.29,6.18 2.29,9.88z"/>
      <path class="fil2" d="M1370.58 2669.04c-4.87,-2.22 -10.37,-3.35 -16.35,-3.35 -8.71,0 -16.11,2.18 -22.03,6.47 -5.88,4.27 -10.18,9.74 -12.75,16.25 -2.54,6.43 -3.83,13.42 -3.83,20.77 0,5.61 0.75,10.97 2.23,15.95 1.5,5.03 4.05,9.63 7.59,13.67 3.56,4.07 7.89,7.01 12.88,8.77 4.92,1.72 10.64,2.6 16.99,2.6 3.63,0 7.24,-0.25 10.72,-0.76 3.46,-0.49 7.43,-1.38 11.8,-2.65l0.76 -0.22 0.08 -0.79c0.2,-1.95 0.51,-3.91 0.92,-5.81l0.45 -2.13 -2.03 0.78c-13.84,5.3 -25.49,6.34 -35.56,2.66 -3.93,-1.44 -7.35,-3.68 -10.15,-6.65 -2.82,-2.98 -4.95,-6.74 -6.34,-11.17 -1.42,-4.49 -2.14,-9.2 -2.14,-14 0,-1.51 0.1,-3.68 0.3,-6.47l61.87 -0.08 0.1 -1.07c0.11,-1.18 0.16,-2.42 0.16,-3.7 0,-6.89 -1.38,-12.94 -4.09,-17.98 -2.74,-5.1 -6.65,-8.84 -11.61,-11.11zm-45.33 27.29l0 0c0.59,-2.4 1.16,-4.35 1.69,-5.81 0.63,-1.72 1.54,-3.55 2.71,-5.45 1.16,-1.88 2.67,-3.64 4.47,-5.25 1.83,-1.62 3.81,-2.96 5.89,-4.01 2.09,-1.05 4.46,-1.89 7.02,-2.49 4.87,-1.14 10.15,-1.2 14.81,-0.15 2.16,0.49 4.15,1.22 5.91,2.18 1.74,0.96 3.27,2.14 4.55,3.52 1.31,1.41 2.44,3.09 3.37,4.99 0.94,1.92 1.59,3.82 1.94,5.64 0.31,1.65 0.5,3.96 0.58,6.89l-52.95 -0.08z"/>
      <path class="fil2" d="M1476.19 2667.42c-0.83,0 -1.99,-0.03 -3.49,-0.08l-0.88 -0.03 -0.28 0.83c-1.29,3.8 -2.33,6.7 -3.18,8.85 -0.86,2.18 -2.38,5.74 -4.66,10.88l-23.45 52.29 -16.8 -47.91c-1.85,-5.11 -3.2,-9.06 -4.14,-12.08 -0.72,-2.15 -1.37,-4.31 -1.93,-6.4l-1.64 -6.46 -0.95 0.03c-2.87,0.1 -4.33,0.1 -7.32,0l-1.75 -0.06 12.97 35.1 17.06 47.49c-3.44,7.82 -6.49,14.07 -9.06,18.56 -2.54,4.43 -5.06,7.39 -7.47,8.79 -3.47,2.01 -7.1,2.51 -11.71,1.77 -1.39,-0.22 -2.61,-0.49 -3.61,-0.81 -1,-0.33 -2.31,-0.85 -3.87,-1.56l-1.93 -0.87 0.28 2.1c0.3,2.28 0.46,4.28 0.46,5.94l0 0.89 0.85 0.25c3.69,1.07 7.27,1.61 10.65,1.61 2.22,0 4.42,-0.28 6.51,-0.81 1.97,-0.44 3.83,-1.1 5.52,-1.97 1.43,-0.72 2.75,-1.58 3.93,-2.6 1.51,-1.34 2.99,-2.98 4.4,-4.88 1.71,-2.4 3.74,-6.14 6.06,-11.13l14.6 -32.19 15.22 -32.9c7.05,-15.11 11.72,-25.26 14.3,-31.04l0.77 -1.71 -1.89 0.06c-1.5,0.05 -2.69,0.08 -3.56,0.08z"/>
      <path class="fil2" d="M1566.35 2674.97c-3.57,-3.36 -7.76,-5.79 -12.46,-7.19 -4.61,-1.38 -9.46,-2.08 -14.4,-2.08 -7.29,0 -14.22,1.7 -20.59,5.06 -6.43,3.39 -11.32,8.74 -14.55,15.91 -3.18,7.08 -4.79,14.98 -4.79,23.5 0,4.88 0.63,9.64 1.87,14.15 1.27,4.55 3.14,8.54 5.58,11.87 2.44,3.33 5.33,6.09 8.6,8.19 3.24,2.09 6.78,3.6 10.53,4.49 3.7,0.87 7.51,1.32 11.32,1.32 5.46,0 10.7,-0.84 15.58,-2.49 4.93,-1.67 9.29,-4.58 12.96,-8.65 3.64,-4.03 6.48,-9.1 8.45,-15.07 1.96,-5.93 2.95,-12.2 2.95,-18.65 0,-6 -0.94,-11.75 -2.8,-17.11 -1.88,-5.42 -4.65,-9.88 -8.24,-13.25zm-27.02 -2.54l0 0c3.93,0 7.81,0.56 11.54,1.67 3.66,1.09 6.97,3.01 9.85,5.7 2.85,2.68 5,6.32 6.36,10.8 1.39,4.58 2.1,9.54 2.1,14.76 0,5.64 -0.72,11.05 -2.14,16.07 -1.41,4.97 -3.62,9.2 -6.6,12.58 -2.95,3.37 -6.41,5.81 -10.26,7.25 -7.35,2.72 -16.32,2.93 -23.87,0.42 -3.49,-1.16 -6.79,-3.27 -9.82,-6.28 -3.02,-3 -5.26,-6.73 -6.62,-11.1 -1.39,-4.45 -2.09,-9.27 -2.09,-14.33 0,-7.2 1.23,-13.91 3.66,-19.93 2.39,-5.91 6.16,-10.36 11.21,-13.23 5.1,-2.9 10.72,-4.38 16.69,-4.38z"/>
      <path class="fil2" d="M1673.88 2672.6c-2.84,-2.54 -6.46,-4.36 -10.75,-5.39 -6.67,-1.6 -13.76,-1.98 -21.09,-0.92 -2.71,0.4 -5.4,1.05 -7.99,1.93 -2.63,0.9 -4.92,2.03 -6.79,3.36 -1.86,1.32 -3.49,2.76 -4.85,4.28 -1.34,1.5 -2.43,2.95 -3.22,4.28 -0.11,0.18 -0.22,0.37 -0.33,0.57l0.79 -13.42 -1.3 0.05c-1.33,0.05 -2.31,0.08 -2.93,0.08 -0.67,0 -1.67,-0.03 -3,-0.08l-1.22 -0.05 0 1.22c0,1.82 -0.05,4.72 -0.16,8.72l-0.7 22.4 -2.72 49.03 1.29 -0.05c1.33,-0.05 2.36,-0.08 3.09,-0.08 0.72,0 1.75,0.03 3.08,0.08l1.22 0.05 0 -1.22c0,-6.87 0.2,-15.34 0.58,-25.15 0.38,-9.82 0.89,-17 1.5,-21.35 0.66,-4.92 1.63,-8.78 2.88,-11.48 1.64,-3.69 3.78,-6.78 6.37,-9.19 2.58,-2.41 5.62,-4.26 9.04,-5.5 3.65,-1.3 7.93,-1.96 12.73,-1.96 3.43,0 6.81,0.4 10.04,1.18 3.16,0.76 5.92,2.01 8.21,3.71 2.22,1.64 3.8,3.73 4.71,6.21 0.94,2.57 1.41,5.54 1.41,8.82 0,3.25 -0.21,8.61 -0.62,15.96l-1.08 20.01c-0.3,5.84 -0.72,12.12 -1.23,18.65l-0.1 1.34 1.34 -0.07c1.95,-0.1 3.86,-0.1 5.91,0l1.2 0.06 0.35 -13.91 1.63 -35.55c0.16,-3.21 0.23,-5.62 0.23,-7.25 0,-3.7 -0.53,-7.22 -1.58,-10.49 -1.08,-3.34 -3.08,-6.33 -5.93,-8.87z"/>
      <path class="fil2" d="M1787.05 2639.6c-2.59,0.1 -3.74,0.1 -6.4,0l-1.26 -0.05 0.04 1.26c0.16,5.01 0.23,9.58 0.23,13.56 0,4.08 -0.11,8.4 -0.33,12.84 -5.9,-1 -11.44,-1.51 -16.47,-1.51 -6.64,0 -13.05,0.88 -19.04,2.62 -6.06,1.76 -11.54,4.83 -16.32,9.12 -4.78,4.3 -8.47,9.66 -10.97,15.93 -2.49,6.25 -3.75,12.84 -3.75,19.57 0,4.99 0.69,9.79 2.04,14.28 1.37,4.54 3.66,8.6 6.81,12.08 3.15,3.47 7.05,6.18 11.59,8.07 4.52,1.87 9.44,2.82 14.63,2.82 3.36,0 6.67,-0.44 9.84,-1.29 3.15,-0.85 5.97,-2 8.4,-3.39 2.44,-1.41 4.53,-3.02 6.23,-4.77 1.7,-1.75 3.12,-3.57 4.23,-5.4 0.3,-0.5 0.62,-1.06 0.94,-1.67l-0.85 14.97 4.41 0c0.68,0 1.69,0.03 3.05,0.08l1.22 0.04 0 -10.84c0,-4.55 0.17,-14.18 0.51,-28.59l1.11 -37.85c0.31,-10.58 0.77,-20.88 1.35,-30.62l0.08 -1.29 -1.3 0.05zm-39.04 103.86l0 0c-5.14,0 -9.85,-1.17 -13.99,-3.49 -4.11,-2.29 -7.33,-5.88 -9.58,-10.67 -2.29,-4.87 -3.44,-10.35 -3.44,-16.28 0,-5.4 1.07,-10.96 3.17,-16.53 2.08,-5.53 5.08,-10.15 8.89,-13.76 3.81,-3.6 8.34,-6.25 13.46,-7.86 5.17,-1.62 10.68,-2.44 16.37,-2.44 2.39,0 4.94,0.17 7.59,0.5 2.4,0.3 5.27,0.94 8.55,1.92l-0.8 25.17c-0.26,7.45 -0.72,13.04 -1.39,16.61 -0.65,3.52 -1.69,6.81 -3.07,9.79 -1.39,2.96 -3.01,5.57 -4.84,7.74 -1.82,2.17 -3.75,3.92 -5.74,5.19 -2.01,1.29 -4.29,2.3 -6.8,3.02 -2.51,0.72 -5.33,1.09 -8.38,1.09z"/>
     </g>
     <g>
      <path class="fil2" d="M1963.4 2639.6l-1.22 -0.05 0 1.22c0,5.01 -0.05,8.49 -0.16,10.66l-1.43 38.1 -70.24 0 2.1 -49.98 -1.27 0.05c-2.6,0.1 -4.08,0.1 -6.8,0l-1.22 -0.05 0 1.22c0,9.68 -0.31,24.39 -0.91,43.72 -0.61,19.31 -1.53,40.47 -2.75,62.88l-0.07 1.29 1.29 -0.05c2.49,-0.1 4.03,-0.1 6.79,0l1.21 0.05 0.17 -14.78 1.2 -37.23 70.26 0c-0.32,16.06 -1.1,33.12 -2.3,50.71l-0.09 1.31 1.31 -0.05c2.48,-0.09 4.19,-0.1 6.79,0l1.2 0.05 0.02 -1.2c0.77,-38.61 2.16,-74.49 4.14,-106.62l0.08 -1.3 -1.3 0.05c-2.61,0.1 -4.08,0.1 -6.79,0z"/>
      <path class="fil2" d="M2075.8 2667.42c-0.67,0 -1.7,-0.03 -3.09,-0.08l-1.21 -0.04 -0.01 1.21c-0.05,8.19 -0.25,17.32 -0.61,27.16 -0.4,10.24 -0.89,17.39 -1.45,21.25 -0.56,3.82 -1.42,7.03 -2.57,9.57 -1.31,2.91 -2.9,5.5 -4.75,7.69 -1.57,1.88 -3.43,3.48 -5.51,4.76 -2.07,1.29 -4.74,2.39 -7.94,3.27 -6.27,1.72 -13.42,1.7 -19.84,0.26 -3.1,-0.69 -5.91,-1.91 -8.34,-3.61 -2.37,-1.64 -4.05,-3.75 -5.01,-6.28 -0.99,-2.62 -1.49,-5.87 -1.49,-9.66 0,-3.51 0.41,-12.4 1.22,-26.42 0.82,-14.28 1.42,-23.39 1.83,-27.86l0.13 -1.34 -1.34 0.05c-1.33,0.05 -2.34,0.08 -3.01,0.08 -0.67,0 -1.67,-0.03 -3.01,-0.08l-1.22 -0.05 0 1.22c0,7.89 -0.35,18.19 -1.05,30.61 -0.69,12.5 -1.05,20.44 -1.05,23.63 0,4.22 0.57,8.07 1.7,11.44 1.16,3.45 3.35,6.51 6.51,9.09 3.12,2.55 6.74,4.36 10.77,5.39 3.96,1.01 8.28,1.52 12.84,1.52 2.64,0 5.31,-0.19 7.94,-0.56 2.62,-0.37 5.23,-0.99 7.76,-1.85 2.52,-0.85 4.75,-1.91 6.63,-3.14 1.87,-1.23 3.46,-2.54 4.72,-3.9 1.23,-1.34 2.26,-2.64 3.06,-3.88 0.17,-0.27 0.36,-0.58 0.56,-0.92l-0.47 12.74 1.28 -0.06c2.05,-0.1 3.62,-0.1 5.68,0l1.23 0.06 0 -1.23c0,-3.43 0.05,-7.57 0.16,-12.39l0.31 -11.77 2.95 -55.99 -1.29 0.05c-1.33,0.05 -2.34,0.08 -3.01,0.08z"/>
      <path class="fil2" d="M2214.52 2668.01c-6.54,-2.52 -14.18,-3.03 -21.23,-1.25 -2.77,0.69 -5.32,1.66 -7.58,2.88 -2.27,1.2 -4.27,2.65 -5.94,4.3 -1.65,1.62 -2.98,3.22 -3.97,4.79 -0.52,0.83 -1.07,1.75 -1.62,2.74 -0.39,-1.31 -0.79,-2.42 -1.2,-3.33 -0.7,-1.56 -1.7,-3.08 -2.97,-4.51 -1.26,-1.44 -2.87,-2.75 -4.76,-3.9 -1.88,-1.14 -4.17,-2.1 -6.81,-2.86 -5.71,-1.64 -12.36,-1.48 -18.21,0.32 -3.15,0.97 -6,2.34 -8.46,4.07 -2.46,1.73 -4.45,3.57 -5.92,5.48 -0.72,0.93 -1.48,2.04 -2.26,3.32l0.63 -12.75 -1.3 0.07c-1.95,0.1 -3.85,0.1 -5.91,0l-1.23 -0.06 0 1.23c0,2.7 -0.03,5.96 -0.08,9.73l-2.03 52.11c-0.1,2.13 -0.23,4.25 -0.38,6.37l-0.97 11.95 1.32 -0.05c1.34,-0.05 2.36,-0.08 3.09,-0.08 0.72,0 1.75,0.03 3.08,0.08l1.22 0.05 0 -1.22c0,-8.02 0.26,-17.89 0.77,-29.33 0.46,-10.32 1.11,-17.57 1.93,-21.55 0.96,-4.56 2.22,-8.26 3.74,-10.99 1.52,-2.72 3.39,-5.03 5.56,-6.88 2.18,-1.86 4.7,-3.32 7.5,-4.33 5.38,-1.96 11.75,-2.05 16.63,-0.24 2.31,0.85 4.25,2.04 5.76,3.54 1.51,1.49 2.61,3.2 3.28,5.08 0.68,1.93 1.03,4.79 1.03,8.51 0,4.11 -0.16,9.32 -0.48,15.5l-0.95 19.7c-0.26,6.78 -0.66,13.81 -1.18,20.9l-0.1 1.31 1.31 -0.05c1.33,-0.05 2.36,-0.08 3.09,-0.08 0.72,0 1.75,0.03 3.08,0.08l1.19 0.04 0.9 -32.44c0.31,-9.95 0.88,-16.93 1.68,-20.75 0.91,-4.45 2.09,-7.98 3.51,-10.48 1.4,-2.49 3.21,-4.67 5.39,-6.47 2.18,-1.8 4.67,-3.22 7.39,-4.21 2.72,-0.99 5.74,-1.49 8.98,-1.49 2.24,0 4.38,0.24 6.37,0.71 1.96,0.46 3.66,1.1 5.03,1.91 1.37,0.78 2.55,1.72 3.51,2.78 0.95,1.04 1.68,2.15 2.17,3.3 0.5,1.16 0.82,2.37 0.96,3.58 0.15,1.28 0.23,2.83 0.23,4.59 0,3.45 -0.16,7.9 -0.47,13.22l-1.17 21.49c-0.47,8.93 -0.95,16.66 -1.41,22.95l-0.1 1.31 1.31 -0.05c1.33,-0.05 2.36,-0.08 3.08,-0.08 0.72,0 1.75,0.03 3.09,0.08l1.22 0.05 0.01 -1.21c0.05,-7.47 0.3,-16.09 0.74,-25.62 0.44,-9.71 0.84,-16.94 1.2,-22.09 0.37,-5.28 0.55,-9.1 0.55,-11.68 0,-4.79 -1.12,-8.97 -3.35,-12.44 -2.24,-3.49 -5.44,-6.05 -9.52,-7.61z"/>
      <path class="fil2" d="M2316.58 2671.21c-2.65,-2 -6.1,-3.43 -10.24,-4.28 -7.59,-1.53 -16.79,-1.59 -25.21,-0.4 -3.91,0.54 -8.61,1.57 -13.98,3.04l-0.79 0.22 -0.07 0.82c-0.2,2.21 -0.48,4.22 -0.84,5.97l-0.44 2.15 2.03 -0.82c3.44,-1.38 6.32,-2.42 8.55,-3.05 2.24,-0.63 5.03,-1.2 8.28,-1.69 6.1,-0.9 13.48,-1.09 19.68,0.11 2.78,0.54 5.14,1.5 6.99,2.84 1.83,1.33 3.11,2.75 3.81,4.2 0.7,1.48 1.06,3.03 1.06,4.61 0,2.19 -0.77,4.39 -2.28,6.54 -1.54,2.18 -3.74,3.91 -6.54,5.14 -2.93,1.29 -6.11,2.39 -9.42,3.26 -7.52,1.93 -11.82,3.05 -12.92,3.36 -3.96,1.15 -7.73,2.42 -11.19,3.78 -3.03,1.17 -5.85,2.63 -8.34,4.32 -2.18,1.42 -3.96,2.97 -5.28,4.62 -1.59,1.98 -2.78,4.08 -3.54,6.23 -0.77,2.17 -1.16,4.44 -1.16,6.76 0,3.02 0.64,5.95 1.91,8.69 1.27,2.76 3.25,5.22 5.88,7.3 2.64,2.09 5.94,3.51 9.82,4.22 3.76,0.69 7.91,1.03 12.32,1.03 2.33,0 4.88,-0.12 7.57,-0.36 2.68,-0.24 6.17,-0.79 10.4,-1.62l0.8 -0.16 0.13 -0.81c0.3,-1.94 0.7,-3.9 1.16,-5.85l0.48 -2.03 -1.99 0.64c-3.3,1.07 -5.88,1.81 -7.66,2.2 -1.76,0.38 -3.66,0.69 -5.63,0.92 -2.01,0.23 -4.09,0.34 -6.2,0.34 -4.23,0 -7.88,-0.49 -10.85,-1.46 -2.86,-0.94 -5.27,-2.58 -7.15,-4.9 -1.88,-2.3 -2.78,-4.94 -2.78,-8.07 0,-2.07 0.39,-4.04 1.15,-5.85 0.67,-1.52 1.74,-2.99 3.18,-4.39 1.68,-1.63 3.82,-3.14 6.38,-4.49 2.37,-1.26 5.81,-2.62 10.19,-4.05 2.01,-0.63 5.32,-1.57 9.84,-2.79 4.71,-1.28 7.58,-2.09 8.77,-2.48 1.22,-0.4 2.55,-0.87 4.01,-1.43 1.48,-0.56 2.75,-1.12 3.79,-1.65 1.07,-0.55 2.08,-1.18 2.98,-1.87 0.45,-0.34 1.01,-0.78 1.67,-1.31 -0.24,4.22 -0.43,8.68 -0.58,13.32 -0.18,5.67 -0.42,11.03 -0.7,15.95 -0.28,4.89 -0.78,11.22 -1.52,19.34l-0.12 1.33 1.34 -0.05c2.51,-0.1 3.74,-0.1 6.48,0l1.23 0.05 0 -7.79c0,-3.03 0.13,-8 0.39,-14.77 0.25,-6.81 0.54,-12.57 0.85,-17.12 0.32,-4.59 0.56,-8.88 0.75,-12.88 0.18,-4.07 0.27,-7.32 0.27,-9.94 0,-2.67 -0.43,-5.31 -1.27,-7.87 -0.88,-2.67 -2.69,-5.06 -5.41,-7.1z"/>
      <path class="fil2" d="M2428.5 2681.47c-1.08,-3.34 -3.08,-6.33 -5.93,-8.87 -2.84,-2.54 -6.46,-4.36 -10.75,-5.39 -6.68,-1.6 -13.76,-1.98 -21.09,-0.92 -2.71,0.4 -5.4,1.05 -7.99,1.93 -2.63,0.9 -4.92,2.03 -6.79,3.36 -1.86,1.32 -3.49,2.76 -4.85,4.28 -1.34,1.5 -2.43,2.95 -3.22,4.28 -0.11,0.18 -0.22,0.37 -0.33,0.57l0.79 -13.42 -1.29 0.05c-1.33,0.05 -2.31,0.08 -2.93,0.08 -0.67,0 -1.67,-0.03 -3,-0.08l-1.22 -0.05 0 1.22c0,1.82 -0.05,4.72 -0.16,8.72l-0.7 22.4 -2.72 49.03 1.29 -0.05c1.33,-0.05 2.36,-0.08 3.09,-0.08 0.72,0 1.75,0.03 3.08,0.08l1.23 0.05 0 -1.22c0,-6.87 0.2,-15.34 0.58,-25.15 0.38,-9.82 0.89,-17 1.5,-21.35 0.66,-4.92 1.62,-8.78 2.88,-11.48 1.64,-3.69 3.78,-6.78 6.37,-9.19 2.58,-2.41 5.62,-4.26 9.04,-5.5 3.66,-1.3 7.93,-1.96 12.73,-1.96 3.43,0 6.81,0.4 10.03,1.18 3.17,0.76 5.93,2.01 8.21,3.71 2.22,1.64 3.8,3.73 4.71,6.21 0.94,2.57 1.41,5.54 1.41,8.82 0,3.25 -0.21,8.61 -0.62,15.96l-1.08 20.01c-0.3,5.84 -0.72,12.12 -1.23,18.65l-0.1 1.34 1.34 -0.07c1.95,-0.1 3.86,-0.1 5.91,0l1.2 0.06 0.34 -13.91 1.63 -35.55c0.16,-3.21 0.23,-5.62 0.23,-7.25 0,-3.7 -0.53,-7.22 -1.58,-10.49z"/>
     </g>
    </g>
   </g>
   <g>
    <g>
     <path class="fil0" d="M100.09 7361.41l-100.09 0 0 -22.4 100.09 0 1.72 1.38 -1.72 21.01zm0 -22.4l0.92 0 0.81 1.38 -1.72 -1.38zm82.62 165.76l-84.34 -144.75 3.45 -19.63 84.34 144.75 0 0 -3.45 19.63zm84.34 144.75l-84.34 -144.75 3.45 -19.63 84.34 144.75 0 19.63 -3.45 0zm3.45 -19.63l5.72 9.81 -5.72 9.81 0 -19.63zm-87.79 144.75l84.34 -144.75 3.45 19.63 -84.34 144.75 0 0 -3.45 -19.63zm-84.34 144.75l84.34 -144.75 3.45 19.63 -84.34 144.75 -1.72 1.38 -1.72 -21.01zm3.45 19.63l-0.81 1.38 -0.92 0 1.72 -1.38zm-101.81 -21.01l100.09 0 0 22.4 -100.09 0 0 -22.4z"/>
    </g>
    <g>
     <polygon class="fil4" points="2117.28,4450.38 2201.62,4305.63 2285.96,4160.88 2454.64,4160.88 2623.32,4160.88 2707.66,4305.63 2792,4450.38 2707.66,4595.14 2623.32,4739.89 2454.64,4739.89 2285.96,4739.89 2201.62,4595.14 "/>
     <path id="1" class="fil0" d="M2203.35 4315.44l-84.34 144.75 -3.45 -19.63 84.34 -144.75 0 0 3.45 19.63zm84.34 -144.75l-84.34 144.75 -3.45 -19.63 84.34 -144.75 1.72 -1.38 1.72 21.01zm-3.45 -19.63l0.81 -1.38 0.92 0 -1.72 1.38zm170.4 21.01l-168.68 0 0 -22.4 168.68 0 0 0 0 22.4zm168.68 0l-168.68 0 0 -22.4 168.68 0 1.72 1.38 -1.72 21.01zm0 -22.4l0.92 0 0.81 1.38 -1.72 -1.38zm82.62 165.76l-84.34 -144.75 3.45 -19.63 84.34 144.75 0 0 -3.45 19.63zm84.34 144.75l-84.34 -144.75 3.45 -19.63 84.34 144.75 0 19.63 -3.45 0zm3.45 -19.63l5.72 9.81 -5.72 9.81 0 -19.63zm-87.79 144.75l84.34 -144.75 3.45 19.63 -84.34 144.75 0 0 -3.45 -19.63zm-84.34 144.75l84.34 -144.75 3.45 19.63 -84.34 144.75 -1.72 1.38 -1.72 -21.01zm3.45 19.63l-0.81 1.38 -0.92 0 1.72 -1.38zm-170.4 -21.01l168.68 0 0 22.4 -168.68 0 0 0 0 -22.4zm-168.68 0l168.68 0 0 22.4 -168.68 0 -1.72 -1.38 1.72 -21.01zm0 22.4l-0.92 0 -0.81 -1.38 1.72 1.38zm-82.62 -165.76l84.34 144.75 -3.45 19.63 -84.34 -144.75 0 0 3.45 -19.63zm-84.34 -144.75l84.34 144.75 -3.45 19.63 -84.34 -144.75 0 -19.63 3.45 0zm-3.45 19.63l-5.72 -9.81 5.72 -9.81 0 19.63z"/>
    </g>
    <g>
     <polygon class="fil4" points="602.3,7639.72 686.64,7494.97 770.98,7350.22 939.66,7350.22 1108.34,7350.22 1192.67,7494.97 1277.01,7639.72 1192.67,7784.47 1108.34,7929.22 939.66,7929.22 770.98,7929.22 686.64,7784.47 "/>
     <path id="1" class="fil0" d="M688.36 7504.78l-84.34 144.75 -3.45 -19.63 84.34 -144.75 0 0 3.45 19.63zm84.34 -144.75l-84.34 144.75 -3.45 -19.63 84.34 -144.75 1.72 -1.38 1.72 21.01zm-3.45 -19.63l0.81 -1.38 0.92 0 -1.72 1.38zm170.4 21.01l-168.68 0 0 -22.4 168.68 0 0 0 0 22.4zm168.68 0l-168.68 0 0 -22.4 168.68 0 1.72 1.38 -1.72 21.01zm0 -22.4l0.92 0 0.81 1.38 -1.72 -1.38zm82.62 165.76l-84.34 -144.75 3.45 -19.63 84.34 144.75 0 0 -3.45 19.63zm84.34 144.75l-84.34 -144.75 3.45 -19.63 84.34 144.75 0 19.63 -3.45 0zm3.45 -19.63l5.72 9.81 -5.72 9.81 0 -19.63zm-87.79 144.75l84.34 -144.75 3.45 19.63 -84.34 144.75 0 0 -3.45 -19.63zm-84.34 144.75l84.34 -144.75 3.45 19.63 -84.34 144.75 -1.72 1.38 -1.72 -21.01zm3.45 19.63l-0.81 1.38 -0.92 0 1.72 -1.38zm-170.4 -21.01l168.68 0 0 22.4 -168.68 0 0 0 0 -22.4zm-168.68 -0l168.68 0 0 22.4 -168.68 -0 -1.72 -1.38 1.72 -21.01zm0 22.4l-0.92 0 -0.81 -1.38 1.72 1.38zm-82.62 -165.76l84.34 144.75 -3.45 19.63 -84.34 -144.75 0 0 3.45 -19.63zm-84.34 -144.75l84.34 144.75 -3.45 19.63 -84.34 -144.75 0 -19.63 3.45 0zm-3.45 19.63l-5.72 -9.81 5.72 -9.81 0 19.63z"/>
    </g>
    <g>
     <polygon class="fil4" points="1098.58,6180.33 1182.92,6035.58 1267.26,5890.83 1435.94,5890.83 1604.62,5890.83 1688.96,6035.58 1773.3,6180.33 1688.96,6325.09 1604.62,6469.84 1435.94,6469.84 1267.26,6469.84 1182.92,6325.09 "/>
     <path id="1" class="fil0" d="M1184.64 6045.4l-84.34 144.75 -3.45 -19.63 84.34 -144.75 0 0 3.45 19.63zm84.34 -144.75l-84.34 144.75 -3.45 -19.63 84.34 -144.75 1.72 -1.38 1.72 21.01zm-3.45 -19.63l0.81 -1.38 0.92 0 -1.72 1.38zm170.4 21.01l-168.68 0 0 -22.4 168.68 0 0 0 0 22.4zm168.68 0l-168.68 0 0 -22.4 168.68 0 1.72 1.38 -1.72 21.01zm0 -22.4l0.92 0 0.81 1.38 -1.72 -1.38zm82.62 165.76l-84.34 -144.75 3.45 -19.63 84.34 144.75 0 0 -3.45 19.63zm84.34 144.75l-84.34 -144.75 3.45 -19.63 84.34 144.75 0 19.63 -3.45 0zm3.45 -19.63l5.72 9.81 -5.72 9.81 0 -19.63zm-87.79 144.75l84.34 -144.75 3.45 19.63 -84.34 144.75 0 0 -3.45 -19.63zm-84.34 144.75l84.34 -144.75 3.45 19.63 -84.34 144.75 -1.72 1.38 -1.72 -21.01zm3.45 19.63l-0.81 1.38 -0.92 0 1.72 -1.38zm-170.4 -21.01l168.68 0 0 22.4 -168.68 0 0 0 0 -22.4zm-168.68 0l168.68 0 0 22.4 -168.68 0 -1.72 -1.38 1.72 -21.01zm0 22.4l-0.92 0 -0.81 -1.38 1.72 1.38zm-82.62 -165.76l84.34 144.75 -3.45 19.63 -84.34 -144.75 0 0 3.45 -19.63zm-84.34 -144.75l84.34 144.75 -3.45 19.63 -84.34 -144.75 0 -19.63 3.45 0zm-3.45 19.63l-5.72 -9.81 5.72 -9.81 0 19.63z"/>
    </g>
    <g>
     <polygon class="fil4" points="1609.18,5321.51 1693.52,5176.76 1777.86,5032.01 1946.54,5032.01 2115.22,5032.01 2199.56,5176.76 2283.9,5321.51 2199.56,5466.26 2115.22,5611.01 1946.54,5611.01 1777.86,5611.01 1693.52,5466.26 "/>
     <path id="1" class="fil0" d="M1695.24 5186.57l-84.34 144.75 -3.45 -19.63 84.34 -144.75 0 0 3.45 19.63zm84.34 -144.75l-84.34 144.75 -3.45 -19.63 84.34 -144.75 1.72 -1.38 1.72 21.01zm-3.45 -19.63l0.81 -1.38 0.92 0 -1.72 1.38zm170.4 21.01l-168.68 0 0 -22.4 168.68 0 0 0 0 22.4zm168.68 0l-168.68 0 0 -22.4 168.68 0 1.72 1.38 -1.72 21.01zm0 -22.4l0.92 0 0.81 1.38 -1.72 -1.38zm82.62 165.76l-84.34 -144.75 3.45 -19.63 84.34 144.75 0 0 -3.45 19.63zm84.34 144.75l-84.34 -144.75 3.45 -19.63 84.34 144.75 0 19.63 -3.45 0zm3.45 -19.63l5.72 9.81 -5.72 9.81 0 -19.63zm-87.79 144.75l84.34 -144.75 3.45 19.63 -84.34 144.75 0 0 -3.45 -19.63zm-84.34 144.75l84.34 -144.75 3.45 19.63 -84.34 144.75 -1.72 1.38 -1.72 -21.01zm3.45 19.63l-0.81 1.38 -0.92 0 1.72 -1.38zm-170.4 -21.01l168.68 0 0 22.4 -168.68 0 0 0 0 -22.4zm-168.68 0l168.68 0 0 22.4 -168.68 0 -1.72 -1.38 1.72 -21.01zm0 22.4l-0.92 0 -0.81 -1.38 1.72 1.38zm-82.62 -165.76l84.34 144.75 -3.45 19.63 -84.34 -144.75 0 0 3.45 -19.63zm-84.34 -144.75l84.34 144.75 -3.45 19.63 -84.34 -144.75 0 -19.63 3.45 0zm-3.45 19.63l-5.72 -9.81 5.72 -9.81 0 19.63z"/>
    </g>
    <g>
     <polygon class="fil4" points="2114.55,6203.48 2198.89,6058.73 2283.23,5913.98 2451.9,5913.98 2620.58,5913.98 2704.92,6058.73 2789.26,6203.48 2704.92,6348.24 2620.58,6492.98 2451.9,6492.98 2283.23,6492.98 2198.89,6348.24 "/>
     <path id="1" class="fil0" d="M2200.61 6068.54l-84.34 144.75 -3.45 -19.63 84.34 -144.75 0 0 3.45 19.63zm84.34 -144.75l-84.34 144.75 -3.45 -19.63 84.34 -144.75 1.72 -1.38 1.72 21.01zm-3.45 -19.63l0.81 -1.38 0.92 0 -1.72 1.38zm170.4 21.01l-168.68 0 0 -22.4 168.68 0 0 0 0 22.4zm168.68 0l-168.68 0 0 -22.4 168.68 0 1.72 1.38 -1.72 21.01zm0 -22.4l0.92 0 0.81 1.38 -1.72 -1.38zm82.62 165.76l-84.34 -144.75 3.45 -19.63 84.34 144.75 0 0 -3.45 19.63zm84.34 144.75l-84.34 -144.75 3.45 -19.63 84.34 144.75 0 19.63 -3.45 0zm3.45 -19.63l5.72 9.81 -5.72 9.81 0 -19.63zm-87.79 144.75l84.34 -144.75 3.45 19.63 -84.34 144.75 0 0 -3.45 -19.63zm-84.34 144.75l84.34 -144.75 3.45 19.63 -84.34 144.75 -1.72 1.38 -1.72 -21.01zm3.45 19.63l-0.81 1.38 -0.92 0 1.72 -1.38zm-170.4 -21.01l168.68 0 0 22.4 -168.68 0 0 0 0 -22.4zm-168.68 0l168.68 0 0 22.4 -168.68 0 -1.72 -1.38 1.72 -21.01zm0 22.4l-0.92 0 -0.81 -1.38 1.72 1.38zm-82.62 -165.76l84.34 144.75 -3.45 19.63 -84.34 -144.75 0 0 3.45 -19.63zm-84.34 -144.75l84.34 144.75 -3.45 19.63 -84.34 -144.75 0 -19.63 3.45 0zm-3.45 19.63l-5.72 -9.81 5.72 -9.81 0 19.63z"/>
    </g>
    <g>
     <polygon class="fil4" points="599.78,5889.41 684.12,5744.66 768.45,5599.91 937.13,5599.91 1105.81,5599.91 1190.15,5744.66 1274.49,5889.41 1190.15,6034.16 1105.81,6178.91 937.13,6178.91 768.45,6178.91 684.12,6034.16 "/>
     <path id="1" class="fil0" d="M685.84 5754.47l-84.34 144.75 -3.45 -19.63 84.34 -144.75 0 0 3.45 19.63zm84.34 -144.75l-84.34 144.75 -3.45 -19.63 84.34 -144.75 1.72 -1.38 1.72 21.01zm-3.45 -19.63l0.81 -1.38 0.92 0 -1.72 1.38zm170.4 21.01l-168.68 0 0 -22.4 168.68 0 0 0 0 22.4zm168.68 0l-168.68 0 0 -22.4 168.68 0 1.72 1.38 -1.72 21.01zm0 -22.4l0.92 0 0.81 1.38 -1.72 -1.38zm82.62 165.76l-84.34 -144.75 3.45 -19.63 84.34 144.75 0 0 -3.45 19.63zm84.34 144.75l-84.34 -144.75 3.45 -19.63 84.34 144.75 0 19.63 -3.45 0zm3.45 -19.63l5.72 9.81 -5.72 9.81 0 -19.63zm-87.79 144.75l84.34 -144.75 3.45 19.63 -84.34 144.75 0 0 -3.45 -19.63zm-84.34 144.75l84.34 -144.75 3.45 19.63 -84.34 144.75 -1.72 1.38 -1.72 -21.01zm3.45 19.63l-0.81 1.38 -0.92 0 1.72 -1.38zm-170.4 -21.01l168.68 0 0 22.4 -168.68 0 0 0 0 -22.4zm-168.68 0l168.68 0 0 22.4 -168.68 0 -1.72 -1.38 1.72 -21.01zm0 22.4l-0.92 0 -0.81 -1.38 1.72 1.38zm-82.62 -165.76l84.34 144.75 -3.45 19.63 -84.34 -144.75 0 0 3.45 -19.63zm-84.34 -144.75l84.34 144.75 -3.45 19.63 -84.34 -144.75 0 -19.63 3.45 0zm-3.45 19.63l-5.72 -9.81 5.72 -9.81 0 19.63z"/>
    </g>
    <g>
     <polygon class="fil4" points="2116.04,5624.2 2200.38,5479.45 2284.72,5334.7 2453.4,5334.7 2622.07,5334.7 2706.41,5479.45 2790.75,5624.2 2706.41,5768.96 2622.07,5913.71 2453.4,5913.71 2284.72,5913.71 2200.38,5768.96 "/>
     <path id="1" class="fil0" d="M2202.1 5489.26l-84.34 144.75 -3.45 -19.63 84.34 -144.75 0 0 3.45 19.63zm84.34 -144.75l-84.34 144.75 -3.45 -19.63 84.34 -144.75 1.72 -1.38 1.72 21.01zm-3.45 -19.63l0.81 -1.38 0.92 0 -1.72 1.38zm170.4 21.01l-168.68 0 0 -22.4 168.68 0 0 0 0 22.4zm168.68 0l-168.68 0 0 -22.4 168.68 0 1.72 1.38 -1.72 21.01zm0 -22.4l0.92 0 0.81 1.38 -1.72 -1.38zm82.62 165.76l-84.34 -144.75 3.45 -19.63 84.34 144.75 0 0 -3.45 19.63zm84.34 144.75l-84.34 -144.75 3.45 -19.63 84.34 144.75 0 19.63 -3.45 0zm3.45 -19.63l5.72 9.81 -5.72 9.81 0 -19.63zm-87.79 144.75l84.34 -144.75 3.45 19.63 -84.34 144.75 0 0 -3.45 -19.63zm-84.34 144.75l84.34 -144.75 3.45 19.63 -84.34 144.75 -1.72 1.38 -1.72 -21.01zm3.45 19.63l-0.81 1.38 -0.92 0 1.72 -1.38zm-170.4 -21.01l168.68 0 0 22.4 -168.68 0 0 0 0 -22.4zm-168.68 0l168.68 0 0 22.4 -168.68 0 -1.72 -1.38 1.72 -21.01zm0 22.4l-0.92 0 -0.81 -1.38 1.72 1.38zm-82.62 -165.76l84.34 144.75 -3.45 19.63 -84.34 -144.75 0 0 3.45 -19.63zm-84.34 -144.75l84.34 144.75 -3.45 19.63 -84.34 -144.75 0 -19.63 3.45 0zm-3.45 19.63l-5.72 -9.81 5.72 -9.81 0 19.63z"/>
    </g>
    <g>
     <path class="fil0" d="M2789.28 6766.55l149.84 0 0 22.4 -149.84 0 -1.72 -1.38 1.72 -21.01zm0 22.4l-0.92 0 -0.81 -1.38 1.72 1.38zm-82.62 -165.76l84.34 144.75 -3.45 19.63 -84.34 -144.75 0 0 3.45 -19.63zm-84.34 -144.75l84.34 144.75 -3.45 19.63 -84.34 -144.75 0 -19.63 3.45 0zm-3.45 19.63l-5.72 -9.81 5.72 -9.81 0 19.63zm87.79 -144.75l-84.34 144.75 -3.45 -19.63 84.34 -144.75 0 0 3.45 19.63zm84.34 -144.75l-84.34 144.75 -3.45 -19.63 84.34 -144.75 1.72 -1.38 1.72 21.01zm-3.45 -19.63l0.81 -1.38 0.92 0 -1.72 1.38zm151.56 21.01l-149.84 0 0 -22.4 149.84 0 0 22.4z"/>
    </g>
    <g>
     <path class="fil0" d="M2789.28 6188.59l149.84 0 0 22.4 -149.84 0 -1.72 -1.38 1.72 -21.01zm0 22.4l-0.92 0 -0.81 -1.38 1.72 1.38zm-82.62 -165.76l84.34 144.75 -3.45 19.63 -84.34 -144.75 0 0 3.45 -19.63zm-84.34 -144.75l84.34 144.75 -3.45 19.63 -84.34 -144.75 0 -19.63 3.45 0zm-3.45 19.63l-5.72 -9.81 5.72 -9.81 0 19.63zm87.79 -144.75l-84.34 144.75 -3.45 -19.63 84.34 -144.75 0 0 3.45 19.63zm84.34 -144.75l-84.34 144.75 -3.45 -19.63 84.34 -144.75 1.72 -1.38 1.72 21.01zm-3.45 -19.63l0.81 -1.38 0.92 0 -1.72 1.38zm151.56 21.01l-149.84 0 0 -22.4 149.84 0 0 22.4z"/>
    </g>
    <g>
     <polygon class="fil4" points="1106.18,5024.43 1190.52,4879.67 1274.86,4734.92 1443.54,4734.92 1612.22,4734.92 1696.56,4879.67 1780.9,5024.43 1696.56,5169.18 1612.22,5313.93 1443.54,5313.93 1274.86,5313.93 1190.52,5169.18 "/>
     <path id="1" class="fil0" d="M1192.25 4889.49l-84.34 144.75 -3.45 -19.63 84.34 -144.75 0 0 3.45 19.63zm84.34 -144.75l-84.34 144.75 -3.45 -19.63 84.34 -144.75 1.72 -1.38 1.72 21.01zm-3.45 -19.63l0.81 -1.38 0.92 0 -1.72 1.38zm170.4 21.01l-168.68 0 0 -22.4 168.68 0 0 0 0 22.4zm168.68 0l-168.68 0 0 -22.4 168.68 0 1.72 1.38 -1.72 21.01zm0 -22.4l0.92 0 0.81 1.38 -1.72 -1.38zm82.62 165.76l-84.34 -144.75 3.45 -19.63 84.34 144.75 0 0 -3.45 19.63zm84.34 144.75l-84.34 -144.75 3.45 -19.63 84.34 144.75 0 19.63 -3.45 0zm3.45 -19.63l5.72 9.81 -5.72 9.81 0 -19.63zm-87.79 144.75l84.34 -144.75 3.45 19.63 -84.34 144.75 0 0 -3.45 -19.63zm-84.34 144.75l84.34 -144.75 3.45 19.63 -84.34 144.75 -1.72 1.38 -1.72 -21.01zm3.45 19.63l-0.81 1.38 -0.92 0 1.72 -1.38zm-170.4 -21.01l168.68 0 0 22.4 -168.68 0 0 0 0 -22.4zm-168.68 0l168.68 0 0 22.4 -168.68 0 -1.72 -1.38 1.72 -21.01zm0 22.4l-0.92 0 -0.81 -1.38 1.72 1.38zm-82.62 -165.76l84.34 144.75 -3.45 19.63 -84.34 -144.75 0 0 3.45 -19.63zm-84.34 -144.75l84.34 144.75 -3.45 19.63 -84.34 -144.75 0 -19.63 3.45 0zm-3.45 19.63l-5.72 -9.81 5.72 -9.81 0 19.63z"/>
    </g>
    <g>
     <path class="fil0" d="M2706.66 4612.34l-84.34 144.75 -3.45 -19.63 84.34 -144.75 0 0 3.45 19.63zm84.34 -144.75l-84.34 144.75 -3.45 -19.63 84.34 -144.75 1.72 -1.38 1.72 21.01zm-3.45 -19.63l0.81 -1.38 0.92 0 -1.72 1.38zm151.56 21.01l-149.84 0 0 -22.4 149.84 0 0 22.4zm-149.84 556.61l149.84 0 0 22.4 -149.84 0 -1.72 -1.38 1.72 -21.01zm0 22.4l-0.92 0 -0.81 -1.38 1.72 1.38zm-82.62 -165.76l84.34 144.75 -3.45 19.63 -84.34 -144.75 0 0 3.45 -19.63zm-84.34 -144.75l84.34 144.75 -3.45 19.63 -84.34 -144.75 3.45 -19.63z"/>
    </g>
    <g>
     <polygon class="fil4" points="97.21,6181.25 181.55,6036.5 265.89,5891.75 434.57,5891.75 603.25,5891.75 687.58,6036.5 771.92,6181.25 687.58,6326 603.25,6470.75 434.57,6470.75 265.89,6470.75 181.55,6326 "/>
     <path id="1" class="fil0" d="M183.27 6046.31l-84.34 144.75 -3.45 -19.63 84.34 -144.75 0 0 3.45 19.63zm84.34 -144.75l-84.34 144.75 -3.45 -19.63 84.34 -144.75 1.72 -1.38 1.72 21.01zm-3.45 -19.63l0.81 -1.38 0.92 0 -1.72 1.38zm170.4 21.01l-168.68 0 0 -22.4 168.68 0 0 0 0 22.4zm168.68 0l-168.68 0 0 -22.4 168.68 0 1.72 1.38 -1.72 21.01zm0 -22.4l0.92 0 0.81 1.38 -1.72 -1.38zm82.62 165.76l-84.34 -144.75 3.45 -19.63 84.34 144.75 0 0 -3.45 19.63zm84.34 144.75l-84.34 -144.75 3.45 -19.63 84.34 144.75 0 19.63 -3.45 0zm3.45 -19.63l5.72 9.81 -5.72 9.81 0 -19.63zm-87.79 144.75l84.34 -144.75 3.45 19.63 -84.34 144.75 0 0 -3.45 -19.63zm-84.34 144.75l84.34 -144.75 3.45 19.63 -84.34 144.75 -1.72 1.38 -1.72 -21.01zm3.45 19.63l-0.81 1.38 -0.92 0 1.72 -1.38zm-170.4 -21.01l168.68 0 0 22.4 -168.68 0 0 0 0 -22.4zm-168.68 0l168.68 0 0 22.4 -168.68 0 -1.72 -1.38 1.72 -21.01zm0 22.4l-0.92 0 -0.81 -1.38 1.72 1.38zm-82.62 -165.76l84.34 144.75 -3.45 19.63 -84.34 -144.75 0 0 3.45 -19.63zm-84.34 -144.75l84.34 144.75 -3.45 19.63 -84.34 -144.75 0 -19.63 3.45 0zm-3.45 19.63l-5.72 -9.81 5.72 -9.81 0 19.63z"/>
    </g>
    <g>
     <path class="fil0" d="M103.26 6783.04l-103.26 0 0 -22.4 103.26 0 1.72 1.38 -1.72 21.01zm0 -22.4l0.92 0 0.81 1.38 -1.72 -1.38zm82.62 165.76l-84.34 -144.75 3.45 -19.63 84.34 144.75 0 0 -3.45 19.63zm84.34 144.75l-84.34 -144.75 3.45 -19.63 84.34 144.75 0 19.63 -3.45 0zm3.45 -19.63l5.72 9.81 -5.72 9.81 0 -19.63zm-87.79 144.75l84.34 -144.75 3.45 19.63 -84.34 144.75 0 0 -3.45 -19.63zm-84.34 144.75l84.34 -144.75 3.45 19.63 -84.34 144.75 -1.72 1.38 -1.72 -21.01zm3.45 19.63l-0.81 1.38 -0.92 0 1.72 -1.38zm-104.99 -21.01l103.26 0 0 22.4 -103.26 0 0 -22.4z"/>
    </g>
    <g>
     <path class="fil0" d="M101.15 6201.72l-101.15 0 0 -22.4 101.15 0 1.72 1.38 -1.72 21.01zm0 -22.4l0.92 0 0.81 1.38 -1.72 -1.38zm82.62 165.76l-84.34 -144.75 3.45 -19.63 84.34 144.75 0 0 -3.45 19.63zm84.34 144.75l-84.34 -144.75 3.45 -19.63 84.34 144.75 0 19.63 -3.45 0zm3.45 -19.63l5.72 9.81 -5.72 9.81 0 -19.63zm-87.79 144.75l84.34 -144.75 3.45 19.63 -84.34 144.75 0 0 -3.45 -19.63zm-84.34 144.75l84.34 -144.75 3.45 19.63 -84.34 144.75 -1.72 1.38 -1.72 -21.01zm3.45 19.63l-0.81 1.38 -0.92 0 1.72 -1.38zm-102.87 -21.01l101.15 0 0 22.4 -101.15 0 0 -22.4z"/>
    </g>
    <g>
     <polygon class="fil4" points="1607.88,5906.01 1692.22,5761.25 1776.56,5616.5 1945.23,5616.5 2113.91,5616.5 2198.25,5761.25 2282.59,5906.01 2198.25,6050.76 2113.91,6195.51 1945.23,6195.51 1776.56,6195.51 1692.22,6050.76 "/>
     <path id="1" class="fil0" d="M1693.94 5771.07l-84.34 144.75 -3.45 -19.63 84.34 -144.75 0 0 3.45 19.63zm84.34 -144.75l-84.34 144.75 -3.45 -19.63 84.34 -144.75 1.72 -1.38 1.72 21.01zm-3.45 -19.63l0.81 -1.38 0.92 0 -1.72 1.38zm170.4 21.01l-168.68 0 0 -22.4 168.68 0 0 0 0 22.4zm168.68 0l-168.68 0 0 -22.4 168.68 0 1.72 1.38 -1.72 21.01zm0 -22.4l0.92 0 0.81 1.38 -1.72 -1.38zm82.62 165.76l-84.34 -144.75 3.45 -19.63 84.34 144.75 0 0 -3.45 19.63zm84.34 144.75l-84.34 -144.75 3.45 -19.63 84.34 144.75 0 19.63 -3.45 0zm3.45 -19.63l5.72 9.81 -5.72 9.81 0 -19.63zm-87.79 144.75l84.34 -144.75 3.45 19.63 -84.34 144.75 0 0 -3.45 -19.63zm-84.34 144.75l84.34 -144.75 3.45 19.63 -84.34 144.75 -1.72 1.38 -1.72 -21.01zm3.45 19.63l-0.81 1.38 -0.92 0 1.72 -1.38zm-170.4 -21.01l168.68 0 0 22.4 -168.68 0 0 0 0 -22.4zm-168.68 0l168.68 0 0 22.4 -168.68 0 -1.72 -1.38 1.72 -21.01zm0 22.4l-0.92 0 -0.81 -1.38 1.72 1.38zm-82.62 -165.76l84.34 144.75 -3.45 19.63 -84.34 -144.75 0 0 3.45 -19.63zm-84.34 -144.75l84.34 144.75 -3.45 19.63 -84.34 -144.75 0 -19.63 3.45 0zm-3.45 19.63l-5.72 -9.81 5.72 -9.81 0 19.63z"/>
    </g>
    <g>
     <path class="fil0" d="M2789.28 7918.02l149.84 0 0 22.4 -149.84 0 -1.72 -1.38 1.72 -21.01zm0 22.4l-0.92 0 -0.81 -1.38 1.72 1.38zm-82.62 -165.76l84.34 144.75 -3.45 19.63 -84.34 -144.75 0 0 3.45 -19.63zm-84.34 -144.75l84.34 144.75 -3.45 19.63 -84.34 -144.75 0 -19.63 3.45 0zm-3.45 19.63l-5.72 -9.81 5.72 -9.81 0 19.63zm87.79 -144.75l-84.34 144.75 -3.45 -19.63 84.34 -144.75 0 0 3.45 19.63zm84.34 -144.75l-84.34 144.75 -3.45 -19.63 84.34 -144.75 1.72 -1.38 1.72 21.01zm-3.45 -19.63l0.81 -1.38 0.92 0 -1.72 1.38zm151.56 21.01l-149.84 0 0 -22.4 149.84 0 0 22.4z"/>
    </g>
    <g>
     <polygon class="fil4" points="598.95,5306.59 683.29,5161.84 767.63,5017.09 936.31,5017.09 1104.99,5017.09 1189.33,5161.84 1273.67,5306.59 1189.33,5451.35 1104.99,5596.1 936.31,5596.1 767.63,5596.1 683.29,5451.35 "/>
     <path id="1" class="fil0" d="M685.01 5171.66l-84.34 144.75 -3.45 -19.63 84.34 -144.75 0 0 3.45 19.63zm84.34 -144.75l-84.34 144.75 -3.45 -19.63 84.34 -144.75 1.72 -1.38 1.72 21.01zm-3.45 -19.63l0.81 -1.38 0.92 0 -1.72 1.38zm170.4 21.01l-168.68 0 0 -22.4 168.68 0 0 0 0 22.4zm168.68 0l-168.68 0 0 -22.4 168.68 0 1.72 1.38 -1.72 21.01zm0 -22.4l0.92 0 0.81 1.38 -1.72 -1.38zm82.62 165.76l-84.34 -144.75 3.45 -19.63 84.34 144.75 0 0 -3.45 19.63zm84.34 144.75l-84.34 -144.75 3.45 -19.63 84.34 144.75 0 19.63 -3.45 0zm3.45 -19.63l5.72 9.81 -5.72 9.81 0 -19.63zm-87.79 144.75l84.34 -144.75 3.45 19.63 -84.34 144.75 0 0 -3.45 -19.63zm-84.34 144.75l84.34 -144.75 3.45 19.63 -84.34 144.75 -1.72 1.38 -1.72 -21.01zm3.45 19.63l-0.81 1.38 -0.92 0 1.72 -1.38zm-170.4 -21.01l168.68 0 0 22.4 -168.68 0 0 0 0 -22.4zm-168.68 0l168.68 0 0 22.4 -168.68 0 -1.72 -1.38 1.72 -21.01zm0 22.4l-0.92 0 -0.81 -1.38 1.72 1.38zm-82.62 -165.76l84.34 144.75 -3.45 19.63 -84.34 -144.75 0 0 3.45 -19.63zm-84.34 -144.75l84.34 144.75 -3.45 19.63 -84.34 -144.75 0 -19.63 3.45 0zm-3.45 19.63l-5.72 -9.81 5.72 -9.81 0 19.63z"/>
    </g>
    <g>
     <path class="fil0" d="M100.09 5619.13l-100.09 0 0 -22.4 100.09 0 1.72 1.38 -1.72 21.01zm0 -22.4l0.92 0 0.81 1.38 -1.72 -1.38zm82.62 165.76l-84.34 -144.75 3.45 -19.63 84.34 144.75 0 0 -3.45 19.63zm84.34 144.75l-84.34 -144.75 3.45 -19.63 84.34 144.75 0 19.63 -3.45 0zm3.45 -19.63l5.72 9.81 -5.72 9.81 0 -19.63zm-87.79 144.75l84.34 -144.75 3.45 19.63 -84.34 144.75 0 0 -3.45 -19.63zm-84.34 144.75l84.34 -144.75 3.45 19.63 -84.34 144.75 -1.72 1.38 -1.72 -21.01zm3.45 19.63l-0.81 1.38 -0.92 0 1.72 -1.38zm-101.81 -21.01l100.09 0 0 22.4 -100.09 0 0 -22.4z"/>
    </g>
    <g>
     <polygon class="fil4" points="2116.73,3869.43 2201.07,3724.68 2285.41,3579.93 2454.09,3579.93 2622.77,3579.93 2707.11,3724.68 2791.45,3869.43 2707.11,4014.18 2622.77,4158.93 2454.09,4158.93 2285.41,4158.93 2201.07,4014.18 "/>
     <path id="1" class="fil0" d="M2202.79 3734.49l-84.34 144.75 -3.45 -19.63 84.34 -144.75 0 0 3.45 19.63zm84.34 -144.75l-84.34 144.75 -3.45 -19.63 84.34 -144.75 1.72 -1.38 1.72 21.01zm-3.45 -19.63l0.81 -1.38 0.92 0 -1.72 1.38zm170.4 21.01l-168.68 0 0 -22.4 168.68 0 0 0 0 22.4zm168.68 0l-168.68 0 0 -22.4 168.68 0 1.72 1.38 -1.72 21.01zm0 -22.4l0.92 0 0.81 1.38 -1.72 -1.38zm82.62 165.76l-84.34 -144.75 3.45 -19.63 84.34 144.75 0 0 -3.45 19.63zm84.34 144.75l-84.34 -144.75 3.45 -19.63 84.34 144.75 0 19.63 -3.45 0zm3.45 -19.63l5.72 9.81 -5.72 9.81 0 -19.63zm-87.79 144.75l84.34 -144.75 3.45 19.63 -84.34 144.75 0 0 -3.45 -19.63zm-84.34 144.75l84.34 -144.75 3.45 19.63 -84.34 144.75 -1.72 1.38 -1.72 -21.01zm3.45 19.63l-0.81 1.38 -0.92 0 1.72 -1.38zm-170.4 -21.01l168.68 0 0 22.4 -168.68 0 0 0 0 -22.4zm-168.68 0l168.68 0 0 22.4 -168.68 0 -1.72 -1.38 1.72 -21.01zm0 22.4l-0.92 0 -0.81 -1.38 1.72 1.38zm-82.62 -165.76l84.34 144.75 -3.45 19.63 -84.34 -144.75 0 0 3.45 -19.63zm-84.34 -144.75l84.34 144.75 -3.45 19.63 -84.34 -144.75 0 -19.63 3.45 0zm-3.45 19.63l-5.72 -9.81 5.72 -9.81 0 19.63z"/>
    </g>
    <g>
     <polygon class="fil4" points="1104.14,4442.16 1188.48,4297.41 1272.82,4152.66 1441.5,4152.66 1610.17,4152.66 1694.51,4297.41 1778.85,4442.16 1694.51,4586.91 1610.17,4731.66 1441.5,4731.66 1272.82,4731.66 1188.48,4586.91 "/>
     <path id="1" class="fil0" d="M1190.2 4307.22l-84.34 144.75 -3.45 -19.63 84.34 -144.75 0 0 3.45 19.63zm84.34 -144.75l-84.34 144.75 -3.45 -19.63 84.34 -144.75 1.72 -1.38 1.72 21.01zm-3.45 -19.63l0.81 -1.38 0.92 0 -1.72 1.38zm170.4 21.01l-168.68 0 0 -22.4 168.68 0 0 0 0 22.4zm168.68 0l-168.68 0 0 -22.4 168.68 0 1.72 1.38 -1.72 21.01zm0 -22.4l0.92 0 0.81 1.38 -1.72 -1.38zm82.62 165.76l-84.34 -144.75 3.45 -19.63 84.34 144.75 0 0 -3.45 19.63zm84.34 144.75l-84.34 -144.75 3.45 -19.63 84.34 144.75 0 19.63 -3.45 0zm3.45 -19.63l5.72 9.81 -5.72 9.81 0 -19.63zm-87.79 144.75l84.34 -144.75 3.45 19.63 -84.34 144.75 0 0 -3.45 -19.63zm-84.34 144.75l84.34 -144.75 3.45 19.63 -84.34 144.75 -1.72 1.38 -1.72 -21.01zm3.45 19.63l-0.81 1.38 -0.92 0 1.72 -1.38zm-170.4 -21.01l168.68 0 0 22.4 -168.68 0 0 0 0 -22.4zm-168.68 0l168.68 0 0 22.4 -168.68 0 -1.72 -1.38 1.72 -21.01zm0 22.4l-0.92 0 -0.81 -1.38 1.72 1.38zm-82.62 -165.76l84.34 144.75 -3.45 19.63 -84.34 -144.75 0 0 3.45 -19.63zm-84.34 -144.75l84.34 144.75 -3.45 19.63 -84.34 -144.75 0 -19.63 3.45 0zm-3.45 19.63l-5.72 -9.81 5.72 -9.81 0 19.63z"/>
    </g>
    <g>
     <path class="fil0" d="M87.39 5033.32l-87.39 0 0 -22.4 87.39 0 1.72 1.38 -1.72 21.01zm0 -22.4l0.92 0 0.81 1.38 -1.72 -1.38zm82.62 165.76l-84.34 -144.75 3.45 -19.63 84.34 144.75 0 0 -3.45 19.63zm84.34 144.75l-84.34 -144.75 3.45 -19.63 84.34 144.75 0 19.63 -3.45 0zm3.45 -19.63l5.72 9.81 -5.72 9.81 0 -19.63zm-87.79 144.75l84.34 -144.75 3.45 19.63 -84.34 144.75 0 0 -3.45 -19.63zm-84.34 144.75l84.34 -144.75 3.45 19.63 -84.34 144.75 -1.72 1.38 -1.72 -21.01zm3.45 19.63l-0.81 1.38 -0.92 0 1.72 -1.38zm-89.12 -21.01l87.39 0 0 22.4 -87.39 0 0 -22.4z"/>
    </g>
    <g>
     <path class="fil0" d="M2789.28 7340.33l149.84 0 0 22.4 -149.84 0 -1.72 -1.38 1.72 -21.01zm0 22.4l-0.92 0 -0.81 -1.38 1.72 1.38zm-82.62 -165.76l84.34 144.75 -3.45 19.63 -84.34 -144.75 0 0 3.45 -19.63zm-84.34 -144.75l84.34 144.75 -3.45 19.63 -84.34 -144.75 0 -19.63 3.45 0zm-3.45 19.63l-5.72 -9.81 5.72 -9.81 0 19.63zm87.79 -144.75l-84.34 144.75 -3.45 -19.63 84.34 -144.75 0 0 3.45 19.63zm84.34 -144.75l-84.34 144.75 -3.45 -19.63 84.34 -144.75 1.72 -1.38 1.72 21.01zm-3.45 -19.63l0.81 -1.38 0.92 0 -1.72 1.38zm151.56 21.01l-149.84 0 0 -22.4 149.84 0 0 22.4z"/>
    </g>
    <g>
     <polygon class="fil4" points="1602.22,7636.07 1686.56,7491.32 1770.9,7346.57 1939.57,7346.57 2108.25,7346.57 2192.59,7491.32 2276.93,7636.07 2192.59,7780.83 2108.25,7925.58 1939.57,7925.58 1770.9,7925.57 1686.56,7780.83 "/>
     <path id="1" class="fil0" d="M1688.28 7501.13l-84.34 144.75 -3.45 -19.63 84.34 -144.75 0 0 3.45 19.63zm84.34 -144.75l-84.34 144.75 -3.45 -19.63 84.34 -144.75 1.72 -1.38 1.72 21.01zm-3.45 -19.63l0.81 -1.38 0.92 0 -1.72 1.38zm170.4 21.01l-168.68 0 0 -22.4 168.68 0 0 0 0 22.4zm168.68 0l-168.68 0 0 -22.4 168.68 0 1.72 1.38 -1.72 21.01zm0 -22.4l0.92 0 0.81 1.38 -1.72 -1.38zm82.62 165.76l-84.34 -144.75 3.45 -19.63 84.34 144.75 0 0 -3.45 19.63zm84.34 144.75l-84.34 -144.75 3.45 -19.63 84.34 144.75 0 19.63 -3.45 0zm3.45 -19.63l5.72 9.81 -5.72 9.81 0 -19.63zm-87.79 144.75l84.34 -144.75 3.45 19.63 -84.34 144.75 0 0 -3.45 -19.63zm-84.34 144.75l84.34 -144.75 3.45 19.63 -84.34 144.75 -1.72 1.38 -1.72 -21.01zm3.45 19.63l-0.81 1.38 -0.92 0 1.72 -1.38zm-170.4 -21.01l168.68 0 0 22.4 -168.68 0 0 0 0 -22.4zm-168.68 -0l168.68 0 0 22.4 -168.68 -0 -1.72 -1.38 1.72 -21.01zm0 22.4l-0.92 0 -0.81 -1.38 1.72 1.38zm-82.62 -165.76l84.34 144.75 -3.45 19.63 -84.34 -144.75 0 0 3.45 -19.63zm-84.34 -144.75l84.34 144.75 -3.45 19.63 -84.34 -144.75 0 -19.63 3.45 0zm-3.45 19.63l-5.72 -9.81 5.72 -9.81 0 19.63z"/>
    </g>
    <g>
     <polygon class="fil1" points="1100.08,5604.43 1184.42,5459.68 1268.76,5314.93 1437.44,5314.93 1606.12,5314.93 1690.46,5459.68 1774.8,5604.43 1690.46,5749.19 1606.12,5893.94 1437.44,5893.94 1268.76,5893.94 1184.42,5749.19 "/>
     <path id="1" class="fil0" d="M1186.15 5469.49l-84.34 144.75 -3.45 -19.63 84.34 -144.75 0 0 3.45 19.63zm84.34 -144.75l-84.34 144.75 -3.45 -19.63 84.34 -144.75 1.72 -1.38 1.72 21.01zm-3.45 -19.63l0.81 -1.38 0.92 0 -1.72 1.38zm170.4 21.01l-168.68 0 0 -22.4 168.68 0 0 0 0 22.4zm168.68 0l-168.68 0 0 -22.4 168.68 0 1.72 1.38 -1.72 21.01zm0 -22.4l0.92 0 0.81 1.38 -1.72 -1.38zm82.62 165.76l-84.34 -144.75 3.45 -19.63 84.34 144.75 0 0 -3.45 19.63zm84.34 144.75l-84.34 -144.75 3.45 -19.63 84.34 144.75 0 19.63 -3.45 0zm3.45 -19.63l5.72 9.81 -5.72 9.81 0 -19.63zm-87.79 144.75l84.34 -144.75 3.45 19.63 -84.34 144.75 0 0 -3.45 -19.63zm-84.34 144.75l84.34 -144.75 3.45 19.63 -84.34 144.75 -1.72 1.38 -1.72 -21.01zm3.45 19.63l-0.81 1.38 -0.92 0 1.72 -1.38zm-170.4 -21.01l168.68 0 0 22.4 -168.68 0 0 0 0 -22.4zm-168.68 0l168.68 0 0 22.4 -168.68 0 -1.72 -1.38 1.72 -21.01zm0 22.4l-0.92 0 -0.81 -1.38 1.72 1.38zm-82.62 -165.76l84.34 144.75 -3.45 19.63 -84.34 -144.75 0 0 3.45 -19.63zm-84.34 -144.75l84.34 144.75 -3.45 19.63 -84.34 -144.75 0 -19.63 3.45 0zm-3.45 19.63l-5.72 -9.81 5.72 -9.81 0 19.63z"/>
    </g>
    <g>
     <polygon class="fil1" points="1620.13,4732.18 1704.47,4587.43 1788.81,4442.68 1957.49,4442.68 2126.17,4442.68 2210.51,4587.43 2294.85,4732.18 2210.51,4876.93 2126.17,5021.68 1957.49,5021.68 1788.81,5021.68 1704.47,4876.93 "/>
     <path id="1" class="fil0" d="M1706.19 4597.24l-84.34 144.75 -3.45 -19.63 84.34 -144.75 0 0 3.45 19.63zm84.34 -144.75l-84.34 144.75 -3.45 -19.63 84.34 -144.75 1.72 -1.38 1.72 21.01zm-3.45 -19.63l0.81 -1.38 0.92 0 -1.72 1.38zm170.4 21.01l-168.68 0 0 -22.4 168.68 0 0 0 0 22.4zm168.68 0l-168.68 0 0 -22.4 168.68 0 1.72 1.38 -1.72 21.01zm0 -22.4l0.92 0 0.81 1.38 -1.72 -1.38zm82.62 165.76l-84.34 -144.75 3.45 -19.63 84.34 144.75 0 0 -3.45 19.63zm84.34 144.75l-84.34 -144.75 3.45 -19.63 84.34 144.75 0 19.63 -3.45 0zm3.45 -19.63l5.72 9.81 -5.72 9.81 0 -19.63zm-87.79 144.75l84.34 -144.75 3.45 19.63 -84.34 144.75 0 0 -3.45 -19.63zm-84.34 144.75l84.34 -144.75 3.45 19.63 -84.34 144.75 -1.72 1.38 -1.72 -21.01zm3.45 19.63l-0.81 1.38 -0.92 0 1.72 -1.38zm-170.4 -21.01l168.68 0 0 22.4 -168.68 0 0 0 0 -22.4zm-168.68 0l168.68 0 0 22.4 -168.68 0 -1.72 -1.38 1.72 -21.01zm0 22.4l-0.92 0 -0.81 -1.38 1.72 1.38zm-82.62 -165.76l84.34 144.75 -3.45 19.63 -84.34 -144.75 0 0 3.45 -19.63zm-84.34 -144.75l84.34 144.75 -3.45 19.63 -84.34 -144.75 0 -19.63 3.45 0zm-3.45 19.63l-5.72 -9.81 5.72 -9.81 0 19.63z"/>
    </g>
    <g>
     <polygon class="fil1" points="2620.6,4155.34 2704.94,4010.58 2789.28,3865.83 2939.12,3865.83 2939.12,4444.84 2789.28,4444.84 2704.94,4300.09 "/>
     <path id="1" class="fil0" d="M2706.66 4020.4l-84.34 144.76 -3.45 -19.63 84.34 -144.76 0 0 3.45 19.63zm84.34 -144.75l-84.34 144.75 -3.45 -19.63 84.34 -144.75 1.72 -1.38 1.72 21.01zm-3.45 -19.63l0.81 -1.38 0.92 0 -1.72 1.38zm151.56 21.01l-149.84 0 0 -22.4 149.84 0 3.58 11.2 -3.58 11.2zm0 -22.4l3.58 0 0 11.2 -3.58 -11.2zm-3.58 590.2l0 -579.01 7.17 0 0 579.01 -3.58 11.2 -3.58 -11.2zm7.17 0l0 11.2 -3.58 0 3.58 -11.2zm-153.42 -11.2l149.84 0 0 22.4 -149.84 0 -1.72 -1.38 1.72 -21.01zm0 22.4l-0.92 0 -0.81 -1.38 1.72 1.38zm-82.62 -165.76l84.34 144.75 -3.45 19.63 -84.34 -144.75 0 0 3.45 -19.63zm-84.34 -144.75l84.34 144.75 -3.45 19.63 -84.34 -144.75 0 -19.63 3.45 0zm-3.45 19.63l-5.72 -9.81 5.72 -9.81 0 19.63z"/>
    </g>
    <g>
     <polygon class="fil1" points="88.36,5595.48 172.7,5450.73 257.04,5305.98 425.72,5305.98 594.4,5305.98 678.74,5450.73 763.08,5595.48 678.74,5740.23 594.4,5884.98 425.72,5884.98 257.04,5884.98 172.7,5740.23 "/>
     <path id="1" class="fil0" d="M174.43 5460.54l-84.34 144.75 -3.45 -19.63 84.34 -144.75 0 0 3.45 19.63zm84.34 -144.75l-84.34 144.75 -3.45 -19.63 84.34 -144.75 1.72 -1.38 1.72 21.01zm-3.45 -19.63l0.81 -1.38 0.92 0 -1.72 1.38zm170.4 21.01l-168.68 0 0 -22.4 168.68 0 0 0 0 22.4zm168.68 0l-168.68 0 0 -22.4 168.68 0 1.72 1.38 -1.72 21.01zm0 -22.4l0.92 0 0.81 1.38 -1.72 -1.38zm82.62 165.76l-84.34 -144.75 3.45 -19.63 84.34 144.75 0 0 -3.45 19.63zm84.34 144.75l-84.34 -144.75 3.45 -19.63 84.34 144.75 0 19.63 -3.45 0zm3.45 -19.63l5.72 9.81 -5.72 9.81 0 -19.63zm-87.79 144.75l84.34 -144.75 3.45 19.63 -84.34 144.75 0 0 -3.45 -19.63zm-84.34 144.75l84.34 -144.75 3.45 19.63 -84.34 144.75 -1.72 1.38 -1.72 -21.01zm3.45 19.63l-0.81 1.38 -0.92 0 1.72 -1.38zm-170.4 -21.01l168.68 0 0 22.4 -168.68 0 0 0 0 -22.4zm-168.68 0l168.68 0 0 22.4 -168.68 0 -1.72 -1.38 1.72 -21.01zm0 22.4l-0.92 0 -0.81 -1.38 1.72 1.38zm-82.62 -165.76l84.34 144.75 -3.45 19.63 -84.34 -144.75 0 0 3.45 -19.63zm-84.34 -144.75l84.34 144.75 -3.45 19.63 -84.34 -144.75 0 -19.63 3.45 0zm-3.45 19.63l-5.72 -9.81 5.72 -9.81 0 19.63z"/>
    </g>
    <g>
     <polygon class="fil1" points="2620.6,5332.25 2704.94,5187.5 2789.28,5042.75 2939.12,5042.75 2939.12,5621.76 2789.28,5621.76 2704.94,5477.01 "/>
     <path id="1" class="fil0" d="M2706.66 5197.31l-84.34 144.75 -3.45 -19.63 84.34 -144.75 0 0 3.45 19.63zm84.34 -144.75l-84.34 144.75 -3.45 -19.63 84.34 -144.75 1.72 -1.38 1.72 21.01zm-3.45 -19.63l0.81 -1.38 0.92 0 -1.72 1.38zm151.56 21.01l-149.84 0 0 -22.4 149.84 0 3.58 11.2 -3.58 11.2zm0 -22.4l3.58 0 0 11.2 -3.58 -11.2zm-3.58 590.2l0 -579.01 7.17 0 0 579.01 -3.58 11.2 -3.58 -11.2zm7.17 0l0 11.2 -3.58 0 3.58 -11.2zm-153.42 -11.2l149.84 0 0 22.4 -149.84 0 -1.72 -1.38 1.72 -21.01zm0 22.4l-0.92 0 -0.81 -1.38 1.72 1.38zm-82.62 -165.76l84.34 144.75 -3.45 19.63 -84.34 -144.75 0 0 3.45 -19.63zm-84.34 -144.75l84.34 144.75 -3.45 19.63 -84.34 -144.75 0 -19.63 3.45 0zm-3.45 19.63l-5.72 -9.81 5.72 -9.81 0 19.63z"/>
    </g>
    <g>
     <polygon class="fil1" points="596.69,4728 681.03,4583.25 765.37,4438.5 934.05,4438.5 1102.72,4438.5 1187.06,4583.25 1271.4,4728 1187.06,4872.76 1102.72,5017.51 934.05,5017.51 765.37,5017.51 681.03,4872.76 "/>
     <path id="1" class="fil0" d="M682.75 4593.07l-84.34 144.75 -3.45 -19.63 84.34 -144.75 0 0 3.45 19.63zm84.34 -144.75l-84.34 144.75 -3.45 -19.63 84.34 -144.75 1.72 -1.38 1.72 21.01zm-3.45 -19.63l0.81 -1.38 0.92 0 -1.72 1.38zm170.4 21.01l-168.68 0 0 -22.4 168.68 0 0 0 0 22.4zm168.68 0l-168.68 0 0 -22.4 168.68 0 1.72 1.38 -1.72 21.01zm0 -22.4l0.92 0 0.81 1.38 -1.72 -1.38zm82.62 165.76l-84.34 -144.75 3.45 -19.63 84.34 144.75 0 0 -3.45 19.63zm84.34 144.75l-84.34 -144.75 3.45 -19.63 84.34 144.75 0 19.63 -3.45 0zm3.45 -19.63l5.72 9.81 -5.72 9.81 0 -19.63zm-87.79 144.75l84.34 -144.75 3.45 19.63 -84.34 144.75 0 0 -3.45 -19.63zm-84.34 144.75l84.34 -144.75 3.45 19.63 -84.34 144.75 -1.72 1.38 -1.72 -21.01zm3.45 19.63l-0.81 1.38 -0.92 0 1.72 -1.38zm-170.4 -21.01l168.68 0 0 22.4 -168.68 0 0 0 0 -22.4zm-168.68 0l168.68 0 0 22.4 -168.68 0 -1.72 -1.38 1.72 -21.01zm0 22.4l-0.92 0 -0.81 -1.38 1.72 1.38zm-82.62 -165.76l84.34 144.75 -3.45 19.63 -84.34 -144.75 0 0 3.45 -19.63zm-84.34 -144.75l84.34 144.75 -3.45 19.63 -84.34 -144.75 0 -19.63 3.45 0zm-3.45 19.63l-5.72 -9.81 5.72 -9.81 0 19.63z"/>
    </g>
    <line class="fil5 str0" x1="268.77" y1="7639.72" x2="602.3" y2= "7639.72" />
    <line class="fil5 str0" x1="1270.99" y1="7644.49" x2="1604.52" y2= "7644.49" />
    <line class="fil5 str0" x1="2275.55" y1="7638.19" x2="2620.6" y2= "7638.19" />
   </g>
   <g>
    <g>
     <g>
      <path class="fil3" d="M852.91 6653.78l14.09 0 32.66 50.39 -14.1 9.13 -32.66 -50.38 14.09 0 -14.09 -9.14zm0 0l7.05 -10.86 7.04 10.86 -14.09 0zm-25.64 54.95l-7.04 -4.57 32.69 -50.38 14.09 9.14 -32.69 50.38 -7.05 -4.57zm24.29 537.49l0 -572.45 16.8 0 0 572.45 -16.8 0z"/>
     </g>
     <g>
      <path class="fil3" d="M1890.8 7212.63l-1059.33 0 0 -16.8 1059.33 0 0 16.8zm20 -1.35l-9.14 -14.09 0 14.09 -50.38 -32.66 9.13 -14.1 50.39 32.66 0 14.09zm0 0l0 -14.09 10.86 7.04 -10.86 7.05zm-54.95 25.64l-4.57 -7.05 50.38 -32.69 9.14 14.09 -50.38 32.69 -4.57 -7.04z"/>
     </g>
     <g>
      <path class="fil3" d="M1147.67 6669.33l-299.38 575.05 -14.9 -7.76 299.38 -575.05 14.9 7.76zm8.03 -18.36l-16.72 1.6 12.5 6.5 -52.24 29.61 -8.28 -14.61 52.24 -29.61 12.5 6.5zm0 0l-12.5 -6.5 11.26 -6.39 1.23 12.89zm-2.63 60.59l-8.36 0.8 -5.73 -59.79 16.72 -1.6 5.73 59.79 -8.36 0.8z"/>
     </g>
    </g>
    <path class="fil0" d="M1469.13 6647.4l-79.9 494.61 -165.92 0 22.21 -88.79 -58.55 0 -39.84 88.79 -168.03 0 255.17 -494.61 234.87 0zm-197.38 318.28c11.83,-56.07 27.92,-125.48 48.17,-208.33 -49.25,95.04 -83.63,164.45 -103.31,208.33l55.13 0zm609.69 -228.86l-129.22 193.63 1.09 211.56 -151.32 0c3.85,-53.57 8.66,-99.73 14.5,-138.29 -27.25,48.25 -54.53,94.32 -82,138.29l-130.13 0 141.01 -211.56 0.54 -193.63 130.13 0c-8.09,83.06 -13.37,130.17 -15.72,141.42 39.08,-69.3 66.76,-116.51 83.22,-141.42l137.89 0zm225.98 -89.42l-22.5 64.41 -160.26 0 22.5 -64.41 160.26 0zm-31.24 89.42l-141.56 405.19 -160.26 0 141.56 -405.19 160.26 0z"/>
   </g>
  </g>
 </g>
</svg>
